<svg xmlns="http://www.w3.org/2000/svg" width="20.521" height="20.521" viewBox="0 0 20.521 20.521">
  <path id="website" d="M12.76,2.5a10.26,10.26,0,1,0,10.26,10.26A10.27,10.27,0,0,0,12.76,2.5Zm2.2,5.335a12.263,12.263,0,0,1-2.2.194,12.34,12.34,0,0,1-2.2-.194c.561-2.549,1.49-4.061,2.2-4.061S14.4,5.286,14.964,7.835Zm-.021-3.78a8.92,8.92,0,0,1,4.082,2.29,10.328,10.328,0,0,1-2.808,1.21,11.976,11.976,0,0,0-1.274-3.5Zm-4.86,8.057a21.124,21.124,0,0,1,.259-3.024,15.041,15.041,0,0,0,2.441.216,15.264,15.264,0,0,0,2.441-.216,29.7,29.7,0,0,1,.259,3.024Zm5.356,1.3a24.914,24.914,0,0,1-.238,3.024,15.041,15.041,0,0,0-2.441-.216,15.263,15.263,0,0,0-2.441.216,24.917,24.917,0,0,1-.238-3.024ZM9.3,7.554A10.3,10.3,0,0,1,6.5,6.344a9.124,9.124,0,0,1,4.082-2.29A12,12,0,0,0,9.3,7.554ZM9.088,8.829a23.539,23.539,0,0,0-.281,3.305H3.839A9.033,9.033,0,0,1,5.675,7.317,11.473,11.473,0,0,0,9.088,8.829Zm-.3,4.579a27.749,27.749,0,0,0,.281,3.305,11.521,11.521,0,0,0-3.434,1.512,9,9,0,0,1-1.815-4.817ZM9.3,17.967a11.745,11.745,0,0,0,1.274,3.5A8.92,8.92,0,0,1,6.5,19.176,10.3,10.3,0,0,1,9.3,17.966Zm1.253-.281a12.6,12.6,0,0,1,4.406,0c-.561,2.549-1.49,4.061-2.2,4.061S11.119,20.235,10.557,17.686Zm5.659.281A9.729,9.729,0,0,1,19.025,19.2a9.124,9.124,0,0,1-4.082,2.29,12.379,12.379,0,0,0,1.274-3.521Zm.216-1.275a23.539,23.539,0,0,0,.281-3.305h4.968A9.033,9.033,0,0,1,19.846,18.2a11.719,11.719,0,0,0-3.413-1.512Zm.3-4.579a27.749,27.749,0,0,0-.281-3.305A11.521,11.521,0,0,0,19.888,7.3a8.965,8.965,0,0,1,1.836,4.817Z" transform="translate(-2.5 -2.5)" fill="#fff"/>
</svg>
