<svg xmlns="http://www.w3.org/2000/svg" xmlns:xlink="http://www.w3.org/1999/xlink" width="390.001" height="56.029" viewBox="0 0 390.001 56.029">
  <defs>
    <linearGradient id="linear-gradient" x1="0.619" y1="0.194" x2="0.512" y2="1.901" gradientUnits="objectBoundingBox">
      <stop offset="0" stop-color="#0856a2"/>
      <stop offset="1" stop-color="#3c108a"/>
    </linearGradient>
  </defs>
  <g id="design-logo" transform="translate(-184.999 -946.108)">
    <g id="Group_33" data-name="Group 33">
      <path id="Path_94" data-name="Path 94" d="M100.128,169.482a12.967,12.967,0,0,1,2.748,8.138q0,6.751-4.668,10.576t-13.1,3.825H58.831V139.142H84.279q8.131,0,12.762,3.6t4.63,10.126a11.784,11.784,0,0,1-8.96,12A12.516,12.516,0,0,1,100.128,169.482Zm-26.54-9.338h7.454q5.571,0,5.572-4.575,0-4.725-5.572-4.725H73.588ZM87.743,175.52a4.608,4.608,0,0,0-1.468-3.675,6.18,6.18,0,0,0-4.179-1.275H73.588v9.6h8.583Q87.743,180.17,87.743,175.52Z" transform="translate(126.168 809.591)" fill="url(#linear-gradient)"/>
      <path id="Path_95" data-name="Path 95" d="M97.742,137.882v55.5H82.987v-55.5Z" transform="translate(152.532 808.226)" fill="url(#linear-gradient)"/>
      <path id="Path_96" data-name="Path 96" d="M137.449,144.326V186.4H122.615v-6a13.91,13.91,0,0,1-5.193,4.613,15.957,15.957,0,0,1-7.606,1.763q-7.378,0-11.632-4.838t-4.252-13.164V144.326h14.682V166.9a7.986,7.986,0,0,0,1.92,5.663,7.339,7.339,0,0,0,10.2,0,8.094,8.094,0,0,0,1.88-5.663V144.326Z" transform="translate(164.477 815.208)" fill="url(#linear-gradient)"/>
      <path id="Path_97" data-name="Path 97" d="M160.157,168.6H132.224a7.723,7.723,0,0,0,1.92,5.138,5.875,5.875,0,0,0,4.329,1.688,5.427,5.427,0,0,0,5.27-3.3H159.48a18.316,18.316,0,0,1-3.8,7.763,19.607,19.607,0,0,1-7.113,5.363,22.681,22.681,0,0,1-9.489,1.95,22.958,22.958,0,0,1-11.105-2.625,18.873,18.873,0,0,1-7.6-7.5,25.4,25.4,0,0,1-.038-22.914A18.691,18.691,0,0,1,127.9,146.7a25.206,25.206,0,0,1,22.248-.075,18.406,18.406,0,0,1,7.529,7.313,22.3,22.3,0,0,1,2.71,11.213A26.545,26.545,0,0,1,160.157,168.6Zm-14.832-7.126a5.261,5.261,0,0,0-1.807-4.238A6.728,6.728,0,0,0,139,155.7a6.647,6.647,0,0,0-4.442,1.463,7.11,7.11,0,0,0-2.259,4.313Z" transform="translate(190.329 814.935)" fill="url(#linear-gradient)"/>
      <path id="Path_98" data-name="Path 98" d="M146.59,188.587q-5.948-4.388-6.4-12.563h15.736a5.84,5.84,0,0,0,1.656,4.05,6.009,6.009,0,0,0,7.04.263,3.348,3.348,0,0,0,1.318-2.813,3.977,3.977,0,0,0-2.183-3.6,38.567,38.567,0,0,0-7.077-2.85,63.882,63.882,0,0,1-8.395-3.338,16.089,16.089,0,0,1-5.572-4.725,13.07,13.07,0,0,1-2.372-8.138,14.8,14.8,0,0,1,2.56-8.738,15.83,15.83,0,0,1,7.077-5.513,26.5,26.5,0,0,1,10.24-1.875q9.261,0,14.795,4.313t5.91,12.113H164.885a4.7,4.7,0,0,0-1.468-3.6,5.294,5.294,0,0,0-3.576-1.2,3.834,3.834,0,0,0-2.71.975,3.593,3.593,0,0,0-1.054,2.775,3.42,3.42,0,0,0,1.167,2.588,10.716,10.716,0,0,0,2.9,1.875q1.732.788,5.12,1.988a63.041,63.041,0,0,1,8.32,3.413,16.982,16.982,0,0,1,5.647,4.725A12.118,12.118,0,0,1,181.6,176.4a15.523,15.523,0,0,1-2.372,8.476,16.268,16.268,0,0,1-6.851,5.925,23.98,23.98,0,0,1-10.578,2.175Q152.538,192.975,146.59,188.587Z" transform="translate(214.964 809.162)" fill="url(#linear-gradient)"/>
      <path id="Path_99" data-name="Path 99" d="M189.68,179.183v12.526h-6.4q-16.191,0-16.187-15.976V161.857h-5.2V149.631h5.2v-10.2h14.832v10.2h7.68v12.226h-7.68v14.1a3.3,3.3,0,0,0,.791,2.475,3.833,3.833,0,0,0,2.673.75Z" transform="translate(238.656 809.904)" fill="url(#linear-gradient)"/>
      <path id="Path_100" data-name="Path 100" d="M188,184.577a19.364,19.364,0,0,1-7.868-7.5A22.244,22.244,0,0,1,177.27,165.6a21.888,21.888,0,0,1,2.9-11.4,19.638,19.638,0,0,1,7.9-7.5,25.768,25.768,0,0,1,22.663,0,19.679,19.679,0,0,1,7.91,7.5,23.974,23.974,0,0,1,0,22.839,19.552,19.552,0,0,1-7.945,7.538,25.849,25.849,0,0,1-22.7,0Zm16.487-12.413q2.071-2.288,2.07-6.563t-2.07-6.525a6.642,6.642,0,0,0-5.082-2.25,6.53,6.53,0,0,0-5.044,2.25q-2.033,2.25-2.029,6.525,0,4.35,1.955,6.6a6.376,6.376,0,0,0,5.044,2.25A6.663,6.663,0,0,0,204.485,172.164Z" transform="translate(255.433 814.935)" fill="url(#linear-gradient)"/>
      <path id="Path_101" data-name="Path 101" d="M240.547,148.984q4.288,4.838,4.289,13.089V186.6H230.077V164.023a8.094,8.094,0,0,0-1.878-5.663,6.5,6.5,0,0,0-5.044-2.063,6.681,6.681,0,0,0-5.2,2.063,8.1,8.1,0,0,0-1.882,5.663V186.6H201.316V144.521h14.759v6a14.543,14.543,0,0,1,5.27-4.613,15.948,15.948,0,0,1,7.6-1.763Q236.253,144.146,240.547,148.984Z" transform="translate(281.677 815.013)" fill="url(#linear-gradient)"/>
      <path id="Path_102" data-name="Path 102" d="M267.4,168.6H239.465a7.734,7.734,0,0,0,1.92,5.138,5.878,5.878,0,0,0,4.329,1.688,5.431,5.431,0,0,0,5.272-3.3h15.736a18.341,18.341,0,0,1-3.8,7.763,19.605,19.605,0,0,1-7.117,5.363,22.648,22.648,0,0,1-9.485,1.95,22.972,22.972,0,0,1-11.107-2.625,18.9,18.9,0,0,1-7.6-7.5,25.43,25.43,0,0,1-.038-22.914,18.727,18.727,0,0,1,7.569-7.463,25.2,25.2,0,0,1,22.246-.075,18.419,18.419,0,0,1,7.529,7.313,22.277,22.277,0,0,1,2.713,11.213A26.555,26.555,0,0,1,267.4,168.6Zm-14.832-7.126a5.269,5.269,0,0,0-1.809-4.238,6.724,6.724,0,0,0-4.517-1.538,6.641,6.641,0,0,0-4.44,1.463,7.1,7.1,0,0,0-2.259,4.313Z" transform="translate(307.375 814.935)" fill="url(#linear-gradient)"/>
    </g>
  </g>
</svg>
