<svg xmlns="http://www.w3.org/2000/svg" width="331.745" height="76" viewBox="0 0 331.745 76">
  <g id="footer-logo" transform="translate(-94.5 -5397)">
    <path id="Union_11" data-name="Union 11" d="M-961.427,282.188a15.989,15.989,0,0,1-6.434-6.347,19.471,19.471,0,0,1-2.324-9.71,19.506,19.506,0,0,1,2.292-9.679,15.849,15.849,0,0,1,6.4-6.315,19.583,19.583,0,0,1,9.461-2.221,19.716,19.716,0,0,1,9.363,2.158,15.589,15.589,0,0,1,6.371,6.188A18.856,18.856,0,0,1-934,265.75a22.421,22.421,0,0,1-.191,2.919h-23.637a6.541,6.541,0,0,0,1.625,4.348,4.975,4.975,0,0,0,3.663,1.428,4.594,4.594,0,0,0,4.461-2.793h13.315a15.518,15.518,0,0,1-3.217,6.569A16.569,16.569,0,0,1-944,282.759a19.151,19.151,0,0,1-8.026,1.65A19.429,19.429,0,0,1-961.427,282.188Zm5.576-23.2a6.015,6.015,0,0,0-1.911,3.649h11.021a4.459,4.459,0,0,0-1.531-3.586,5.7,5.7,0,0,0-3.822-1.3A5.62,5.62,0,0,0-955.851,258.991Zm-89.475,23.2a16.385,16.385,0,0,1-6.657-6.347,18.825,18.825,0,0,1-2.421-9.71,18.533,18.533,0,0,1,2.453-9.647,16.633,16.633,0,0,1,6.688-6.347,20.349,20.349,0,0,1,9.588-2.221,20.334,20.334,0,0,1,9.588,2.221,16.66,16.66,0,0,1,6.694,6.347,18.562,18.562,0,0,1,2.448,9.647,18.727,18.727,0,0,1-2.448,9.679,16.536,16.536,0,0,1-6.724,6.378,20.491,20.491,0,0,1-9.62,2.221A20.315,20.315,0,0,1-1045.327,282.188Zm5.382-21.579a7.971,7.971,0,0,0-1.717,5.522,8.277,8.277,0,0,0,1.655,5.585,5.4,5.4,0,0,0,4.268,1.9,5.633,5.633,0,0,0,4.363-1.936,7.992,7.992,0,0,0,1.752-5.553,7.872,7.872,0,0,0-1.752-5.522,5.618,5.618,0,0,0-4.3-1.9A5.527,5.527,0,0,0-1039.945,260.609Zm-74.664,20.087a13.4,13.4,0,0,1-5.415-10.631h13.315a4.943,4.943,0,0,0,1.4,3.427,4.512,4.512,0,0,0,3.122,1.079,4.516,4.516,0,0,0,2.835-.857,2.832,2.832,0,0,0,1.115-2.38,3.366,3.366,0,0,0-1.848-3.046,32.607,32.607,0,0,0-5.988-2.412,53.9,53.9,0,0,1-7.1-2.824,13.6,13.6,0,0,1-4.714-4,11.056,11.056,0,0,1-2.007-6.886,12.531,12.531,0,0,1,2.166-7.394,13.4,13.4,0,0,1,5.989-4.665,22.443,22.443,0,0,1,8.664-1.587q7.836,0,12.519,3.649a13.109,13.109,0,0,1,5,10.25h-13.57a3.973,3.973,0,0,0-1.242-3.046,4.482,4.482,0,0,0-3.026-1.015,3.252,3.252,0,0,0-2.293.825,3.043,3.043,0,0,0-.892,2.348,2.892,2.892,0,0,0,.987,2.19,9.083,9.083,0,0,0,2.453,1.587q1.467.666,4.332,1.682a53.453,53.453,0,0,1,7.04,2.888,14.37,14.37,0,0,1,4.778,4,10.255,10.255,0,0,1,2.007,6.505,13.133,13.133,0,0,1-2.007,7.172,13.752,13.752,0,0,1-5.8,5.014,20.274,20.274,0,0,1-8.951,1.84Q-1109.576,284.409-1114.609,280.7Zm-36.6,1.491a15.954,15.954,0,0,1-6.432-6.347,19.423,19.423,0,0,1-2.328-9.71,19.46,19.46,0,0,1,2.3-9.679,15.811,15.811,0,0,1,6.4-6.315,19.6,19.6,0,0,1,9.461-2.221,19.726,19.726,0,0,1,9.365,2.158,15.578,15.578,0,0,1,6.371,6.188,18.872,18.872,0,0,1,2.293,9.488,22.485,22.485,0,0,1-.191,2.919h-23.635a6.534,6.534,0,0,0,1.624,4.348,4.972,4.972,0,0,0,3.663,1.428,4.59,4.59,0,0,0,4.459-2.793h13.315a15.477,15.477,0,0,1-3.217,6.569,16.578,16.578,0,0,1-6.017,4.538,19.186,19.186,0,0,1-8.03,1.65A19.417,19.417,0,0,1-1151.209,282.188Zm5.574-23.2a6.024,6.024,0,0,0-1.911,3.649h11.022a4.448,4.448,0,0,0-1.529-3.586,5.7,5.7,0,0,0-3.822-1.3A5.627,5.627,0,0,0-1145.635,258.991Zm-52.654,21.2q-3.6-4.094-3.6-11.138V248.36h12.423v19.1a6.749,6.749,0,0,0,1.625,4.792,5.577,5.577,0,0,0,4.3,1.745,5.567,5.567,0,0,0,4.332-1.745,6.845,6.845,0,0,0,1.591-4.792v-19.1h12.553v35.6h-12.553v-5.077a11.736,11.736,0,0,1-4.394,3.9,13.494,13.494,0,0,1-6.436,1.491A12.433,12.433,0,0,1-1198.289,280.189Zm210.773,3.776v-19.1a6.847,6.847,0,0,0-1.589-4.792,5.5,5.5,0,0,0-4.269-1.745,5.657,5.657,0,0,0-4.4,1.745,6.856,6.856,0,0,0-1.593,4.792v19.1h-12.488v-35.6h12.488v5.077a12.331,12.331,0,0,1,4.459-3.9,13.511,13.511,0,0,1,6.434-1.491,12.459,12.459,0,0,1,9.813,4.094q3.629,4.094,3.63,11.075v20.753Zm-76,0q-13.7,0-13.7-13.518V258.705h-4.4V248.36h4.4v-8.631h12.55v8.631h6.5v10.345h-6.5v11.932a2.784,2.784,0,0,0,.669,2.094,3.242,3.242,0,0,0,2.262.635h3.631v10.6Zm-157.737,0V237h12.484v46.965Zm-42.748,0V239.221h21.533q6.881,0,10.8,3.046a10.224,10.224,0,0,1,3.918,8.568,10.3,10.3,0,0,1-2.069,6.569,10.287,10.287,0,0,1-5.511,3.586,10.606,10.606,0,0,1,6.275,3.9,10.979,10.979,0,0,1,2.325,6.886,10.935,10.935,0,0,1-3.952,8.949q-3.951,3.237-11.084,3.237Zm12.485-10.028h7.263q4.715,0,4.716-3.935a3.9,3.9,0,0,0-1.242-3.11,5.236,5.236,0,0,0-3.537-1.079h-7.2Zm0-16.946h6.309q4.714,0,4.715-3.871,0-4-4.715-4h-6.309Z" transform="translate(1359 5160)" fill="#d8d8d8"/>
    <text id="Empower_Your_Brand" data-name="Empower Your Brand" transform="translate(260 5469)" fill="#999" font-size="12" font-family="Poppins-Regular, Poppins"><tspan x="-62.526" y="0">Empower Your Brand</tspan></text>
    <line id="Line_32" data-name="Line 32" x2="89.745" transform="translate(335.5 5464.54)" fill="none" stroke="#999" stroke-linecap="round" stroke-width="2"/>
    <line id="Line_48" data-name="Line 48" x2="89.745" transform="translate(95.5 5464.54)" fill="none" stroke="#999" stroke-linecap="round" stroke-width="2"/>
  </g>
</svg>
