<svg xmlns="http://www.w3.org/2000/svg" width="16.401" height="10.934" viewBox="0 0 16.401 10.934">
  <path id="envelope" d="M19.128,33.388H12.353a1.332,1.332,0,0,1-1.385-.984h0a1.368,1.368,0,0,1-.03-.317q0-4.157,0-8.312a1.3,1.3,0,0,1,1.432-1.317q6.776,0,13.551,0a1.291,1.291,0,0,1,1.417,1.3q0,4.165,0,8.331a1.3,1.3,0,0,1-1.432,1.3q-3.389,0-6.777,0Zm2.3-4.6h0a.557.557,0,0,0,.089.135q1.18,1.085,2.363,2.162c.208.19.412.384.625.569h0a.667.667,0,0,0,.679.134.591.591,0,0,0,.2-1.05q-1.464-1.333-2.925-2.671c-.049-.045-.1-.093-.167-.161h0a2.136,2.136,0,0,0,.175-.129q1.439-1.321,2.876-2.644c.039-.036.079-.07.115-.108a.59.59,0,0,0-.357-1,.718.718,0,0,0-.659.211q-2.419,2.217-4.843,4.431a.584.584,0,0,1-.927,0l-4.788-4.384a1.891,1.891,0,0,0-.159-.139.68.68,0,0,0-1.059.332.6.6,0,0,0,.226.62q1.465,1.345,2.926,2.693c.046.043.09.087.141.136-.055.053-.1.1-.147.141l-2.923,2.672a.6.6,0,0,0-.238.555h0a.594.594,0,0,0,.44.494.7.7,0,0,0,.72-.17q1.475-1.35,2.95-2.7c.046-.043.1-.082.131-.116.372.333.733.653,1.089.976a1.642,1.642,0,0,0,2.324,0c.353-.323.72-.636,1.127-.994Z" transform="translate(-10.938 -22.455)" fill="#fff"/>
</svg>
