<svg xmlns="http://www.w3.org/2000/svg" width="32.471" height="32" viewBox="0 0 32.471 32">
  <g id="Group_652" data-name="Group 652" transform="translate(-63 -79.705)">
    <path id="Path_1892" data-name="Path 1892" d="M63,85.853c.044-.038.089-.076.134-.117q2.988-2.94,5.974-5.882a1.684,1.684,0,0,0,.122-.149L80.11,90.414a.879.879,0,0,1,.107-.178q4.039-3.983,8.082-7.96a9.279,9.279,0,0,1,1.146-1.033,3.23,3.23,0,0,1,5,2.133,3.1,3.1,0,0,1-.951,2.774L80.163,99.292q-4.994,4.913-9.968,9.821a1.177,1.177,0,0,1-.544.318q-2.4.625-4.785,1.254a.655.655,0,0,1-.845-.833l1.293-4.756a.981.981,0,0,1,.284-.466l8.09-7.955a1.139,1.139,0,0,1,.17-.115L73.71,96.4,63.1,85.97c-.031-.031-.068-.056-.1-.084Zm26.382-2.728-22.749,22.4,2.636,2.606L92.018,85.724ZM73.224,85.517l-1.492,1.474-.926-.909,1.5-1.466-1.073-1.067-.822.816-.927-.9.831-.8L69.242,81.6,64.9,85.875l9.849,9.688,3.5-3.446-.83-.8.836-.812-1.057-1.056-1.477,1.458-.922-.922,1.472-1.446L75.214,87.49l-.806.8-.95-.936.822-.8Z" transform="translate(0 0)" fill="#fc5546"/>
    <path id="Path_1893" data-name="Path 1893" d="M91.207,113.644c-.039-.044-.077-.089-.118-.134l-10-10.007c-.037-.037-.074-.078-.1-.108l.93-.93,9.3,9.288,4.36-4.35-.424-.391-.813.816-.916-.932.812-.8-1.079-1.079L91.677,106.5l-.931-.93,1.487-1.475-1.067-1.05-.791.8-.958-.956.826-.8-1.075-1.043L87.7,102.514l-.953-.954,1.5-1.445-1.062-1.059-.786.819-.945-.936,1.735-1.791L97.47,107.427a1.449,1.449,0,0,0-.147.119l-5.963,5.961c-.043.043-.081.089-.119.135Z" transform="translate(-1.998 -1.939)" fill="#fc5546"/>
  </g>
</svg>
