<svg xmlns="http://www.w3.org/2000/svg" width="32.028" height="30.999" viewBox="0 0 32.028 30.999">
  <g id="Group_27" data-name="Group 27" transform="translate(-639.941 -4886)">
    <path id="Path_1904" data-name="Path 1904" d="M-410.043,263.269c-.728-.961-1.466-1.914-2.179-2.887a1.214,1.214,0,0,0-1.076-.545q-6.228.017-12.456,0a1.212,1.212,0,0,0-1.077.542,36.078,36.078,0,0,1-2.3,2.874q0-1.158,0-2.317c0-.828-.258-1.085-1.074-1.092-.656-.006-1.313-.008-1.969-.014-.031,0-.062-.028-.126-.058v-6.289h25.543v6.361H-408.9c-.751.006-1.019.276-1.025,1.032-.006.791,0,1.582,0,2.374Zm-9.484-5.843h9.423c.62,0,.991-.306.99-.794s-.381-.792-.992-.807h-18.633a1.333,1.333,0,0,0-.671.086,1.07,1.07,0,0,0-.492.618.945.945,0,0,0,.309.722,1.247,1.247,0,0,0,.749.167c3.106.012,6.212.009,9.317.009Z" transform="translate(1075.485 4632.517)" fill="#fc5546"/>
    <path id="Path_1905" data-name="Path 1905" d="M-446.257,381.06h32a10.893,10.893,0,0,1-.03,1.738c-.038.232-.385.448-.635.6-.147.087-.381.031-.576.031h-29.484c-1.1,0-1.271-.168-1.272-1.255C-446.257,381.819-446.257,381.466-446.257,381.06Z" transform="translate(1086.202 4533.552)" fill="#fc5546"/>
    <path id="Path_1906" data-name="Path 1906" d="M-391.074,344.847c0-1.991-.055-3.944.017-5.893a3.155,3.155,0,0,1,3.145-2.887,3.151,3.151,0,0,1,3.2,2.888c.075,1.948.018,3.9.018,5.892Z" transform="translate(1043.843 4568.102)" fill="#fc5546"/>
    <path id="Path_1907" data-name="Path 1907" d="M-446.236,344.852c-.013-.171-.031-.309-.032-.448,0-1.668-.012-3.336,0-5a3.209,3.209,0,0,1,.89-2.349,3.209,3.209,0,0,1,2.31-.988,3.237,3.237,0,0,1,2.307.995,3.237,3.237,0,0,1,.9,2.345c.013,1.668,0,3.335,0,5,0,.138-.017.276-.028.444Z" transform="translate(1086.214 4568.104)" fill="#fc5546"/>
    <path id="Path_1908" data-name="Path 1908" d="M-335.923,344.833v-2.147c0-1.153-.021-2.307.008-3.459a3.227,3.227,0,0,1,2.883-3.167,3.21,3.21,0,0,1,3.422,2.427,3.323,3.323,0,0,1,.09.789q.012,2.609,0,5.216a3.32,3.32,0,0,1-.038.341Z" transform="translate(1001.483 4568.122)" fill="#fc5546"/>
    <path id="Path_1909" data-name="Path 1909" d="M-385.2,308.492a2.4,2.4,0,0,1,2.389,2.409,2.408,2.408,0,0,1-2.414,2.386,2.41,2.41,0,0,1-2.388-2.412,2.4,2.4,0,0,1,2.413-2.383Z" transform="translate(1041.172 4589.807)" fill="#fc5546"/>
    <path id="Path_1910" data-name="Path 1910" d="M-329.947,308.492a2.416,2.416,0,0,1,2.384,2.418,2.419,2.419,0,0,1-2.426,2.377,2.392,2.392,0,0,1-1.688-.718,2.392,2.392,0,0,1-.683-1.7,2.385,2.385,0,0,1,.712-1.69,2.385,2.385,0,0,1,1.7-.685Z" transform="translate(998.741 4589.807)" fill="#fc5546"/>
    <path id="Path_1911" data-name="Path 1911" d="M-438.053,310.891a2.392,2.392,0,0,1-.7,1.7,2.392,2.392,0,0,1-1.7.7,2.42,2.42,0,0,1-2.4-2.4,2.415,2.415,0,0,1,2.408-2.394,2.388,2.388,0,0,1,1.693.7A2.388,2.388,0,0,1-438.053,310.891Z" transform="translate(1083.587 4589.806)" fill="#fc5546"/>
  </g>
</svg>
