<svg xmlns="http://www.w3.org/2000/svg" width="30.74" height="30.741" viewBox="0 0 30.74 30.741">
  <g id="_24hours3_122341" data-name="24hours3_122341" transform="translate(-0.003)">
    <path id="Path_9" data-name="Path 9" d="M30.744,14.089A14.226,14.226,0,0,0,16.417,0,14.409,14.409,0,0,0,5.911,4.511a2.136,2.136,0,0,0-2.9-.122l-1.642,1.3a3.792,3.792,0,0,0-1.33,2.7c-.36,3.391,2.013,8.75,6.045,13.653,4.28,5.2,9.465,8.7,12.9,8.7h0A3.665,3.665,0,0,0,21.329,30l1.642-1.3a2.092,2.092,0,0,0,.694-2.45A14.014,14.014,0,0,0,30.744,14.089Zm-8.568,13.6-1.642,1.3a2.425,2.425,0,0,1-1.546.465c-3.028,0-7.927-3.385-11.913-8.232C3.307,16.648.992,11.543,1.313,8.523A2.571,2.571,0,0,1,2.166,6.7l1.642-1.3A.874.874,0,0,1,5.03,5.45L8.164,9.26a.821.821,0,0,1-.2,1.156,4.375,4.375,0,0,0-1.577,3.06,9.191,9.191,0,0,0,2.294,6.5,9.1,9.1,0,0,0,6.578,3.595,4.365,4.365,0,0,0,2.752-.9.91.91,0,0,1,1.223.058l3.134,3.81A.836.836,0,0,1,22.175,27.691Zm.75-2.5-2.7-3.281a2.138,2.138,0,0,0-3.009-.247,3.266,3.266,0,0,1-1.956.625,7.816,7.816,0,0,1-5.589-3.127,7.9,7.9,0,0,1-2.01-5.552,3.179,3.179,0,0,1,1.1-2.192,2.1,2.1,0,0,0,.389-2.973L6.735,5.506a13.128,13.128,0,0,1,9.682-4.225q.484,0,.96.035V3.33h1.281V1.471A12.938,12.938,0,0,1,29.383,12.681H27.366v1.281h2.1c0,.042,0,.085,0,.127A12.742,12.742,0,0,1,22.925,25.192Z" transform="translate(0)" fill="#fc5546"/>
    <path id="Path_10" data-name="Path 10" d="M192.5,145.518l.671-.609c1.767-1.673,2.89-2.9,2.89-4.424a2.34,2.34,0,0,0-2.567-2.4,3.719,3.719,0,0,0-2.374.837l.361.786a2.882,2.882,0,0,1,1.78-.7,1.483,1.483,0,0,1,1.664,1.61c-.013,1.242-.98,2.307-3.122,4.31l-.89.849v.685h5.353v-.925H192.5v-.025Z" transform="translate(-178.937 -129.426)" fill="#fc5546"/>
    <path id="Path_11" data-name="Path 11" d="M295.2,140.315h-1.226l-3.741,5.261v.735h3.9v2.244H295.2v-2.244h1.174v-.875H295.2v-5.121Zm-1.071,2.37v2.751h-2.748v-.025l2.051-2.8c.232-.38.438-.735.7-1.217h.039Q294.132,142.039,294.132,142.685Z" transform="translate(-272.025 -131.512)" fill="#fc5546"/>
  </g>
</svg>
