<svg id="_40-Web_Development" data-name="40-Web Development" xmlns="http://www.w3.org/2000/svg" width="30" height="30" viewBox="0 0 30 30">
  <path id="Path_6" data-name="Path 6" d="M29.375,15A.625.625,0,0,0,30,14.375V3.125A3.129,3.129,0,0,0,26.875,0H3.125A3.129,3.129,0,0,0,0,3.125v17.5A3.129,3.129,0,0,0,3.125,23.75H10v2.791L8.4,27.6a.625.625,0,0,0-.278.522v.625A1.25,1.25,0,0,0,9.375,30h11.25a1.25,1.25,0,0,0,1.25-1.25v-.625a.625.625,0,0,0-.278-.52L20,26.541v-.916a.625.625,0,0,0-1.25,0v1.25a.625.625,0,0,0,.278.52l1.6,1.064v.291H9.375v-.291l1.6-1.063a.625.625,0,0,0,.278-.522V23.75H26.875A3.129,3.129,0,0,0,30,20.625V17.5a.625.625,0,0,0-.625-.625H3.75a.625.625,0,0,0,0,1.25h25v2.5A1.875,1.875,0,0,1,26.875,22.5H3.125A1.875,1.875,0,0,1,1.25,20.625V3.125A1.875,1.875,0,0,1,3.125,1.25h23.75A1.875,1.875,0,0,1,28.75,3.125v11.25A.625.625,0,0,0,29.375,15Z" fill="#fc5546"/>
  <path id="Path_7" data-name="Path 7" d="M16.817,7.183a.625.625,0,0,0-.884,0l-3.75,3.75a.625.625,0,0,0,0,.884l3.75,3.75a.625.625,0,1,0,.884-.884l-3.308-3.308,3.308-3.308a.625.625,0,0,0,0-.884Z" transform="translate(-4.5 -2.625)" fill="#fc5546"/>
  <path id="Path_8" data-name="Path 8" d="M28.183,15.567a.625.625,0,0,0,.884,0l3.75-3.75a.625.625,0,0,0,0-.884l-3.75-3.75a.625.625,0,1,0-.884.884l3.308,3.308-3.308,3.308A.625.625,0,0,0,28.183,15.567Z" transform="translate(-10.5 -2.625)" fill="#fc5546"/>
</svg>
