<svg xmlns="http://www.w3.org/2000/svg" width="32.586" height="32.586" viewBox="0 0 32.586 32.586">
  <path id="rocket_launch_icon_172923" d="M40.152,55.516a8.836,8.836,0,0,1-5.981,5.515,14.9,14.9,0,0,1-4.271.749.988.988,0,0,1-.988-.988,14.9,14.9,0,0,1,.749-4.271,8.836,8.836,0,0,1,5.515-5.981.988.988,0,1,1,.625,1.875c-3.667,1.222-4.6,5.336-4.834,7.307,1.972-.24,6.092-1.178,7.31-4.831a.988.988,0,0,1,1.875.625ZM56.68,42.862l-1.573,1.573V54.658a2.29,2.29,0,0,1-.675,1.63l-5.326,5.326a2.305,2.305,0,0,1-3.891-1.178l-1.322-6.608L36.864,46.8l-6.608-1.322a2.305,2.305,0,0,1-1.178-3.891L34.4,36.261a2.291,2.291,0,0,1,1.63-.675H46.257l1.574-1.574c4.6-4.6,9.306-4.47,11.115-4.2a2.287,2.287,0,0,1,1.935,1.935c.27,1.809.4,6.513-4.2,11.115Zm-26.036.678,6.383,1.277,7.254-7.254H36.034a.327.327,0,0,0-.233.1l-5.326,5.325a.329.329,0,0,0,.169.556ZM53.13,46.411l-7.254,7.254,1.277,6.383a.329.329,0,0,0,.556.168l5.326-5.326a.327.327,0,0,0,.1-.233Zm2.152-4.947c1.321-1.321,4.321-4.885,3.643-9.426a.322.322,0,0,0-.272-.272c-4.541-.678-8.1,2.322-9.426,3.643l-1.862,1.862h0l-8.616,8.616L44.8,51.944l8.616-8.616h0l1.863-1.863Z" transform="translate(-28.403 -29.703)" fill="#fc5546"/>
</svg>
