<svg xmlns="http://www.w3.org/2000/svg" width="24.455" height="13.952" viewBox="0 0 24.455 13.952">
  <path id="sapp" d="M87.421,441.865q.293.815-1.91,3.743-.306.407-.828,1.082-.509.649-.7.917a6.111,6.111,0,0,0-.388.63.84.84,0,0,0-.153.535,2.872,2.872,0,0,0,.166.439,1.823,1.823,0,0,0,.414.547q.293.28.726.675a.138.138,0,0,1,.064.051,12.679,12.679,0,0,1,2.432,2.814,1.776,1.776,0,0,1,.083.159,1.567,1.567,0,0,1,.089.337.983.983,0,0,1-.006.433.63.63,0,0,1-.318.35,1.476,1.476,0,0,1-.751.159l-3.26.051a1.427,1.427,0,0,1-.713-.064,3.1,3.1,0,0,1-.662-.28l-.255-.153a5.964,5.964,0,0,1-.891-.815q-.509-.547-.872-.987a4.218,4.218,0,0,0-.777-.738.808.808,0,0,0-.719-.2.836.836,0,0,0-.1.045,1.107,1.107,0,0,0-.216.185,1.618,1.618,0,0,0-.274.376,2.61,2.61,0,0,0-.216.662,4.2,4.2,0,0,0-.083.987,1.3,1.3,0,0,1-.045.35.858.858,0,0,1-.1.236l-.051.064a1.012,1.012,0,0,1-.675.28H74.969a5.786,5.786,0,0,1-1.859-.21,7.1,7.1,0,0,1-1.674-.675,15.252,15.252,0,0,1-1.311-.84,7.565,7.565,0,0,1-.9-.732l-.318-.306q-.127-.127-.35-.382t-.91-1.159q-.688-.9-1.35-1.923t-1.56-2.687q-.9-1.668-1.662-3.463a1.015,1.015,0,0,1-.076-.344.412.412,0,0,1,.038-.2l.051-.076a.887.887,0,0,1,.726-.242l3.489-.025a1.361,1.361,0,0,1,.293.083.864.864,0,0,1,.2.108l.064.038a.84.84,0,0,1,.306.407q.255.637.586,1.318t.522,1.038l.2.369q.369.764.713,1.324a6.542,6.542,0,0,0,.618.872,3.05,3.05,0,0,0,.528.49.807.807,0,0,0,.433.178.951.951,0,0,0,.344-.064.22.22,0,0,0,.064-.064,2.531,2.531,0,0,0,.153-.28,2.061,2.061,0,0,0,.172-.6q.057-.369.121-1.031a9.894,9.894,0,0,0,0-1.592,5.917,5.917,0,0,0-.115-.929,2.437,2.437,0,0,0-.178-.586l-.076-.153a1.561,1.561,0,0,0-1.082-.548q-.166-.025.064-.306a1.509,1.509,0,0,1,.484-.382,8.355,8.355,0,0,1,3.043-.306,8.468,8.468,0,0,1,1.719.165,1.466,1.466,0,0,1,.427.172.683.683,0,0,1,.261.306,1.989,1.989,0,0,1,.134.407,2.935,2.935,0,0,1,.045.579q0,.369-.013.7t-.032.9q-.019.567-.019,1.05,0,.14-.013.535t-.006.611q.006.216.045.516a1.4,1.4,0,0,0,.146.5.848.848,0,0,0,.286.312l.216.051q.115.025.331-.14a4.628,4.628,0,0,0,.484-.439,6.585,6.585,0,0,0,.662-.853q.395-.579.866-1.369a20.777,20.777,0,0,0,1.362-2.865.874.874,0,0,1,.127-.223.569.569,0,0,1,.14-.134l.051-.038.064-.032.166-.038.255-.006,3.667-.025a2,2,0,0,1,.815.032.744.744,0,0,1,.395.21Z" transform="translate(-63 -440.857)" fill="#fff"/>
</svg>
