<svg xmlns="http://www.w3.org/2000/svg" width="150.628" height="76.613" viewBox="0 0 150.628 76.613">
  <g id="footer-logo" transform="translate(0)">
    <g id="Group_39" data-name="Group 39" transform="translate(0 54.033)">
      <g id="Group_3" data-name="Group 3" transform="translate(56.139 0)">
        <path id="Path_20" data-name="Path 20" d="M421.745,210.244c-2.5-.593-3.147-1.067-3.147-2.205,0-1.162.8-1.755,2.165-1.755a2.379,2.379,0,0,1,2.4,1.2,1.6,1.6,0,0,0,1.417.906h2.214c-.223-2.4-1.853-4.719-5.938-4.719-3.639,0-5.648,1.921-5.648,4.766,0,2.205,1.027,3.841,5.223,4.884,2.634.64,3.371,1.209,3.371,2.561,0,1.186-.759,1.944-2.545,1.944s-2.879-.735-3.237-2.371h-3.348c.357,2.988,2.433,5.027,6.34,5.027,4.063,0,6.183-2.063,6.183-5.027C427.192,213.137,426.21,211.382,421.745,210.244Z" transform="translate(-414.669 -202.941)" fill="#062d65"/>
        <path id="Path_21" data-name="Path 21" d="M484.878,227.49c-1.15,4.385-1.752,6.8-1.977,7.927h-.022c-.178-1.138-1.228-4.908-2.411-9.152H477.03l4.219,12.662c-.446,1.352-1.027,1.778-2.21,1.778-.268,0-.6-.024-.826-.047v2.727a13.6,13.6,0,0,0,1.5.095c2.768,0,3.706-1.043,4.8-4.576l3.884-12.638h-1.928A1.641,1.641,0,0,0,484.878,227.49Z" transform="translate(-464.247 -220.9)" fill="#062d65"/>
        <path id="Path_22" data-name="Path 22" d="M596.883,223.226c-3.728,0-5.58,2.75-5.58,6.615,0,3.225,1.652,6.236,5.469,6.236a5.117,5.117,0,0,0,5.29-3.96h-2.681a.8.8,0,0,0-.7.4,1.813,1.813,0,0,1-1.839.9c-1.585,0-2.322-1.494-2.322-3.035h7.635a7.655,7.655,0,0,0,.044-1.043C602.2,226.285,600.835,223.226,596.883,223.226Zm-2.3,5.074c.134-1.517.759-2.632,2.277-2.632,1.563,0,2.1,1.209,2.121,2.632Z" transform="translate(-555.097 -218.484)" fill="#062d65"/>
        <path id="Path_23" data-name="Path 23" d="M690.232,223.226c-3.385,0-5.495,2.632-5.495,6.473,0,3.3,1.741,5.952,4.777,5.952a3.368,3.368,0,0,0,3.259-1.731v.593c0,2.395-.4,3.746-2.478,3.746a1.835,1.835,0,0,1-2.032-1.423h-3.259c.112,1.4.938,3.889,5.156,3.889,4.375,0,5.737-2.49,5.737-6.426,0-1.029.022-3.7.022-6.16S694.777,223.226,690.232,223.226Zm.2,9.674c-1.407,0-2.411-1.233-2.411-3.343,0-2.466,1.094-3.6,2.478-3.6,2.031,0,2.366,1.423,2.366,3.486S692.349,232.9,690.429,232.9Z" transform="translate(-629.379 -218.484)" fill="#062d65"/>
        <path id="Path_25" data-name="Path 25" d="M750.018,224.614h-1.575V236.9h3.214V226.254A1.64,1.64,0,0,0,750.018,224.614Z" transform="translate(-680.026 -219.587)" fill="#062d65"/>
        <path id="Path_26" data-name="Path 26" d="M775.8,223.226c-3.728,0-5.58,2.75-5.58,6.615,0,3.225,1.652,6.236,5.469,6.236a5.117,5.117,0,0,0,5.29-3.96H778.3a.8.8,0,0,0-.7.4,1.814,1.814,0,0,1-1.84.9c-1.585,0-2.321-1.494-2.321-3.035h7.634a7.624,7.624,0,0,0,.045-1.043C781.116,226.285,779.755,223.226,775.8,223.226Zm-2.3,5.074c.134-1.517.759-2.632,2.277-2.632,1.563,0,2.1,1.209,2.121,2.632Z" transform="translate(-697.342 -218.484)" fill="#062d65"/>
        <path id="Path_27" data-name="Path 27" d="M831.649,228.039c-1.875-.474-2.232-.759-2.232-1.375,0-.545.357-1.043,1.406-1.043a1.724,1.724,0,0,1,1.741.862.829.829,0,0,0,.745.442h2.447c-.089-1.66-1.295-3.7-4.8-3.7-3.483,0-4.666,1.92-4.666,3.723,0,1.731.6,2.964,4.375,3.96,1.652.427,2.143.735,2.143,1.517,0,.759-.424,1.209-1.607,1.209a2.013,2.013,0,0,1-2.187-1.541h-3.148c.268,2.181,1.7,3.983,5.224,3.983,3.5,0,4.978-1.85,4.978-3.889C836.07,230.387,835.512,228.988,831.649,228.039Z" transform="translate(-741.581 -218.484)" fill="#062d65"/>
        <path id="Path_28" data-name="Path 28" d="M540.591,223.32h-.019l-.818,0a4.75,4.75,0,0,0-4.729,4.735v7.833H538.2v-7.833a1.567,1.567,0,0,1,1.564-1.557l.818,0h.006a1.541,1.541,0,0,1,1.162.521,1.6,1.6,0,0,1,.383,1.066v6.139a1.64,1.64,0,0,0,1.64,1.64h1.537V228.14a4.849,4.849,0,0,0-1.432-3.49A4.7,4.7,0,0,0,540.591,223.32Z" transform="translate(-510.355 -218.558)" fill="#062d65"/>
        <path id="Path_29" data-name="Path 29" d="M655.67,223.323a4.75,4.75,0,0,0-4.729,4.735v7.833h3.177v-7.833a1.566,1.566,0,0,1,1.561-1.557l1.7,0-.006-3.177Z" transform="translate(-602.51 -218.558)" fill="#062d65"/>
        <path id="Path_37" data-name="Path 37" d="M750.018,200.09h-1.575v3.035h3.214v-1.4A1.64,1.64,0,0,0,750.018,200.09Z" transform="translate(-680.026 -200.09)" fill="#062d65"/>
      </g>
      <g id="Group_4" data-name="Group 4" transform="translate(0 0)">
        <path id="Path_30" data-name="Path 30" d="M148.024,206.427a3,3,0,0,1,2.915,1.622,1.663,1.663,0,0,0,1.47.915h2.2c-.38-2.75-2.366-5.288-6.474-5.288-4.956,0-7.344,4.007-7.344,8.489,0,4.647,2.3,8.323,7.188,8.323a6.236,6.236,0,0,0,6.63-5.288h-3.349a3.09,3.09,0,0,1-3.147,2.513c-2.969,0-3.884-2.916-3.884-5.667C144.23,209.059,145.279,206.427,148.024,206.427Z" transform="translate(-140.792 -202.941)" fill="#3e9ad8" style="isolation: isolate"/>
        <path id="Path_31" data-name="Path 31" d="M215.437,200.09h-1.575V217.4h3.214V201.73A1.64,1.64,0,0,0,215.437,200.09Z" transform="translate(-198.884 -200.09)" fill="#3e9ad8" style="isolation: isolate"/>
        <path id="Path_32" data-name="Path 32" d="M241.467,223.226c-3.661,0-5.826,2.679-5.826,6.473,0,3.652,2.1,6.378,5.67,6.378,3.661,0,5.759-2.727,5.759-6.449C247.07,225.787,244.86,223.226,241.467,223.226Zm-.089,10.2c-1.54,0-2.5-1.4-2.5-3.77,0-2.585.982-3.746,2.455-3.746,1.607,0,2.5,1.209,2.5,3.77C243.833,232.023,242.963,233.422,241.378,233.422Z" transform="translate(-216.199 -218.484)" fill="#3e9ad8" style="isolation: isolate"/>
        <path id="Path_33" data-name="Path 33" d="M365.5,202.549a1.64,1.64,0,0,0-1.64-1.64h-1.485v6.742a3.368,3.368,0,0,0-3.259-1.731c-3.036,0-4.777,2.656-4.777,5.952,0,3.841,2.11,6.473,5.495,6.473,4.545,0,5.689-2.912,5.689-4.913,0-1.76-.022-1.349-.022-2.535Zm-5.4,13.069c-1.384,0-2.478-1.138-2.478-3.6,0-2.11,1-3.343,2.411-3.343,1.92,0,2.433,1.4,2.433,3.462S362.131,215.618,360.1,215.618Z" transform="translate(-310.567 -200.741)" fill="#3e9ad8" style="isolation: isolate"/>
        <path id="Path_34" data-name="Path 34" d="M304.495,226.265V232.4a1.6,1.6,0,0,1-.4,1.083,1.552,1.552,0,0,1-1.152.5l-.818,0a1.567,1.567,0,0,1-1.564-1.557V224.6h-3.177v7.833a4.75,4.75,0,0,0,4.729,4.734l.818,0h.019a4.7,4.7,0,0,0,3.29-1.33,4.847,4.847,0,0,0,1.432-3.49v-7.723h-1.537A1.64,1.64,0,0,0,304.495,226.265Z" transform="translate(-265.287 -219.574)" fill="#3e9ad8" style="isolation: isolate"/>
      </g>
    </g>
    <g id="Group_40" data-name="Group 40" transform="translate(48.354 0)">
      <path id="Path_35" data-name="Path 35" d="M195.152,653.919l3.654-1.007v-7.757l-3.654-1.006a16.9,16.9,0,0,0-1.246-3.035l1.859-3.275-5.482-5.482-3.195,1.813v0a16.781,16.781,0,0,0-3.284-1.382l-1.022-3.7h-7.753l-1.022,3.7a16.827,16.827,0,0,0-3.386,1.44l-3.118-1.77-5.482,5.482,1.844,3.247v0a16.7,16.7,0,0,0-1.162,2.819H167.9a12.084,12.084,0,1,1,11.011,17.06h0a12.079,12.079,0,0,1-11.008-7.111h-5.227a17.023,17.023,0,0,0,1.269,3.065l-1.779,3.137,5.481,5.482,3.084-1.752v0a17.085,17.085,0,0,0,3.306,1.385l.994,3.6h7.753l.994-3.6a16.937,16.937,0,0,0,3.2-1.326l3.161,1.794,5.485-5.482-1.794-3.161v0A16.951,16.951,0,0,0,195.152,653.919Z" transform="translate(-145.344 -619.957)" fill="#062d65"/>
      <path id="Path_36" data-name="Path 36" d="M122.683,626.942a7.167,7.167,0,1,1,0-14.335h3.069l.731-1.585a8.464,8.464,0,0,1,12.393-3.5h7.306a13.917,13.917,0,0,0-23.795-.37,12.622,12.622,0,0,0-1.08,25.166v0c.041,0,.082.006.124.01l.043.005v0c.4.038.8.06,1.208.06h29.785v-5.456Z" transform="translate(-110.059 -600.64)" fill="#3e9ad8"/>
    </g>
  </g>
</svg>
