<svg xmlns="http://www.w3.org/2000/svg" width="36" height="29" viewBox="0 0 36 29">
  <path id="bell-on" d="M34.1.5a.906.906,0,0,1-.4,1.216l-3.6,1.812A.906.906,0,0,1,29.3,1.9l3.6-1.813A.9.9,0,0,1,34.1.5ZM17.1.852a.9.9,0,0,1,1.8,0v1A9.024,9.024,0,0,1,27,10.82v1.7a9.39,9.39,0,0,0,2.717,6.6l.152.153A2.435,2.435,0,0,1,30.6,21.05a2.5,2.5,0,0,1-2.492,2.509H7.892A2.5,2.5,0,0,1,5.4,21.05a2.613,2.613,0,0,1,.681-1.773l.2-.153A9.39,9.39,0,0,0,9,12.52v-1.7a9.024,9.024,0,0,1,8.1-8.967ZM18,3.57a7.257,7.257,0,0,0-7.2,7.25v1.7A11.171,11.171,0,0,1,7.554,20.4l-.152.153a.707.707,0,0,0-.2.493.694.694,0,0,0,.692.7H28.108a.694.694,0,0,0,.692-.7.706.706,0,0,0-.2-.493l-.152-.153A11.171,11.171,0,0,1,25.2,12.52v-1.7a7.268,7.268,0,0,0-7.251-7.25Zm0,23.613a1.806,1.806,0,0,0,1.7-1.206.859.859,0,0,1,1.148-.555.914.914,0,0,1,.551,1.155,3.6,3.6,0,0,1-6.8,0,.914.914,0,0,1,.551-1.155.859.859,0,0,1,1.148.555A1.806,1.806,0,0,0,18,27.184ZM0,9.914a.939.939,0,0,1,.9-.906H5.4a.941.941,0,0,1,.9.906.875.875,0,0,1-.9.906H.9A.873.873,0,0,1,0,9.914Zm35.1-.906a.941.941,0,0,1,.9.906.875.875,0,0,1-.9.906H30.6a.875.875,0,0,1-.9-.906.941.941,0,0,1,.9-.906ZM2.3,1.713A.909.909,0,0,1,1.9.5.9.9,0,0,1,3.1.092L6.7,1.9A.906.906,0,0,1,5.9,3.526Z" transform="translate(0 0.004)" fill="#3e9ad8"/>
</svg>
