<svg xmlns="http://www.w3.org/2000/svg" width="36" height="29" viewBox="0 0 36 29">
  <path id="business-time" d="M27.9,12.688A8.156,8.156,0,1,0,36,20.844,8.123,8.123,0,0,0,27.9,12.688Zm0,14.5a6.344,6.344,0,1,1,6.3-6.344A6.33,6.33,0,0,1,27.9,27.188Zm2.7-7.25H28.8V17.219a.9.9,0,1,0-1.8,0v3.625a.9.9,0,0,0,.9.906h2.7a.906.906,0,0,0,0-1.812ZM18.9,25.375H3.6a1.807,1.807,0,0,1-1.8-1.813v-7.25H9.9v3.625a.9.9,0,0,0,.9.906h6.3a.906.906,0,0,0,0-1.813H11.7V16.313h7.2a.906.906,0,0,0,0-1.812H1.8V9.063A1.807,1.807,0,0,1,3.6,7.25H25.2A1.807,1.807,0,0,1,27,9.063v.906a.9.9,0,1,0,1.8,0V9.063a3.612,3.612,0,0,0-3.6-3.625H21.6V2.719A2.71,2.71,0,0,0,18.9,0h-9A2.71,2.71,0,0,0,7.2,2.719V5.438H3.6A3.614,3.614,0,0,0,0,9.063v14.5a3.612,3.612,0,0,0,3.6,3.625H18.9a.906.906,0,0,0,0-1.812ZM9,2.719a.9.9,0,0,1,.9-.906h9a.9.9,0,0,1,.9.906V5.438H9Z" fill="#3e9ad8"/>
</svg>
