<svg xmlns="http://www.w3.org/2000/svg" width="49" height="43" viewBox="0 0 49 43">
  <path id="chart-bullet" d="M26.031,32a1.536,1.536,0,0,1,1.531,1.536v1.536H44.406A4.6,4.6,0,0,1,49,39.679v6.143a4.6,4.6,0,0,1-4.594,4.607H27.563v1.536a1.531,1.531,0,1,1-3.062,0V50.429H4.594A4.6,4.6,0,0,1,0,45.821V39.679a4.6,4.6,0,0,1,4.594-4.607H24.5V33.536A1.536,1.536,0,0,1,26.031,32ZM15.313,47.357H24.5V38.143H15.313Zm12.25-9.214v9.214H44.406a1.538,1.538,0,0,0,1.531-1.536V39.679a1.538,1.538,0,0,0-1.531-1.536Zm-15.312,0H4.594a1.536,1.536,0,0,0-1.531,1.536v6.143a1.536,1.536,0,0,0,1.531,1.536H12.25ZM35.219,53.5a1.538,1.538,0,0,1,1.531,1.536v1.536h7.656A4.6,4.6,0,0,1,49,61.179v6.143a4.6,4.6,0,0,1-4.594,4.607H36.75v1.536a1.531,1.531,0,1,1-3.062,0V71.929H4.594A4.6,4.6,0,0,1,0,67.321V61.179a4.6,4.6,0,0,1,4.594-4.607H33.688V55.036A1.538,1.538,0,0,1,35.219,53.5ZM33.688,68.857V59.643H21.438v9.214Zm3.063-9.214v9.214h7.656a1.538,1.538,0,0,0,1.531-1.536V61.179a1.538,1.538,0,0,0-1.531-1.536Zm-18.375,0H4.594a1.536,1.536,0,0,0-1.531,1.536v6.143a1.536,1.536,0,0,0,1.531,1.536H18.375Z" transform="translate(0 -32)" fill="#3e9ad8"/>
</svg>
