<svg xmlns="http://www.w3.org/2000/svg" width="54" height="43" viewBox="0 0 54 43">
  <path id="gears" d="M13.672,18.113A4.783,4.783,0,1,0,18.462,22.9,4.792,4.792,0,0,0,13.672,18.113Zm0,6.834a2.05,2.05,0,1,1,2.053-2.05A2.055,2.055,0,0,1,13.672,24.947ZM53.68,35.052a2.181,2.181,0,0,0-2.141-1.718h-1.7a11.137,11.137,0,0,0-1.1-1.9l.853-1.475a2.23,2.23,0,0,0,.3-1.1,2.172,2.172,0,0,0-.724-1.62,14.052,14.052,0,0,0-4.979-2.866,2.2,2.2,0,0,0-2.572.988l-.825,1.426a10.37,10.37,0,0,0-2.248,0l-.822-1.422a2.185,2.185,0,0,0-2.569-.99,14.135,14.135,0,0,0-4.978,2.863,2.188,2.188,0,0,0-.728,1.622,2.216,2.216,0,0,0,.295,1.1l.839,1.45a11.183,11.183,0,0,0-1.115,1.924H27.8a2.183,2.183,0,0,0-2.14,1.719,13.762,13.762,0,0,0,0,5.762A2.18,2.18,0,0,0,27.8,42.533h1.668a11.14,11.14,0,0,0,1.115,1.924l-.838,1.45a2.229,2.229,0,0,0-.3,1.1,2.155,2.155,0,0,0,.724,1.619,14.2,14.2,0,0,0,4.98,2.866,2.193,2.193,0,0,0,2.57-.987l.825-1.426a10.044,10.044,0,0,0,2.248,0l.826,1.429A2.183,2.183,0,0,0,43.443,51.6a2.089,2.089,0,0,0,.671-.109A14.193,14.193,0,0,0,49.1,48.623,2.143,2.143,0,0,0,49.82,47a2.218,2.218,0,0,0-.3-1.1l-.853-1.475a11.11,11.11,0,0,0,1.1-1.9h1.7a2.182,2.182,0,0,0,2.14-1.719,10.391,10.391,0,0,0,.379-2.88A13.787,13.787,0,0,0,53.68,35.052Zm-2.591,4.741H47.947l-.321.916a8.375,8.375,0,0,1-1.568,2.709l-.632.737L47,46.874a11.487,11.487,0,0,1-3.24,1.863l-1.549-2.683-.955.182a8.646,8.646,0,0,1-3.176,0l-.954-.182-1.546,2.68a11.443,11.443,0,0,1-3.24-1.863l1.563-2.7-.636-.737a8.391,8.391,0,0,1-1.584-2.728l-.321-.916H28.25a10.936,10.936,0,0,1,0-3.728h3.111l.321-.916a8.38,8.38,0,0,1,1.584-2.728l.636-.737-1.563-2.7a11.539,11.539,0,0,1,3.24-1.863l1.546,2.68.954-.182a8.5,8.5,0,0,1,3.171,0l.96.187,1.55-2.688A11.515,11.515,0,0,1,47,28.984L45.429,31.7l.632.737a8.369,8.369,0,0,1,1.568,2.709l.321.916h3.141a11.166,11.166,0,0,1,.162,1.866A10.858,10.858,0,0,1,51.089,39.793ZM26.253,24.844l-1.42-.82a9.934,9.934,0,0,0,.063-1.108,10.31,10.31,0,0,0-.064-1.137l1.43-.825a2.195,2.195,0,0,0,.983-2.568,14.091,14.091,0,0,0-2.874-4.982,2.224,2.224,0,0,0-2.711-.422l-1.48.852a11.039,11.039,0,0,0-1.9-1.1v-1.7A2.191,2.191,0,0,0,16.559,8.9a13.849,13.849,0,0,0-5.774,0A2.193,2.193,0,0,0,9.069,11.04v1.7a10.92,10.92,0,0,0-1.9,1.1l-1.473-.849a2.238,2.238,0,0,0-2.727.424A14.192,14.192,0,0,0,.1,18.383a2.183,2.183,0,0,0,.99,2.566l1.427.825a10.316,10.316,0,0,0-.064,1.137,9.936,9.936,0,0,0,.063,1.108l-1.422.825a2.168,2.168,0,0,0-1,2.563,14.168,14.168,0,0,0,2.862,4.965,2.249,2.249,0,0,0,2.729.44l1.452-.838a11.076,11.076,0,0,0,1.926,1.113v1.666a2.192,2.192,0,0,0,1.722,2.138,13.841,13.841,0,0,0,5.774,0,2.192,2.192,0,0,0,1.715-2.138V33.088A11.114,11.114,0,0,0,20.2,31.975l1.449.833a2.348,2.348,0,0,0,2.727-.421,14.2,14.2,0,0,0,2.869-4.973A2.178,2.178,0,0,0,26.253,24.844Zm-4.259-3.528a7.838,7.838,0,0,1,0,3.174l-.181.952,2.679,1.545a11.448,11.448,0,0,1-1.865,3.232l-2.7-1.557-.735.632a8.438,8.438,0,0,1-2.732,1.58l-.919.325v3.108a10.981,10.981,0,0,1-3.737,0V31.2l-.915-.325a8.389,8.389,0,0,1-2.728-1.58l-.735-.641L4.714,30.217a11.429,11.429,0,0,1-1.865-3.232L5.528,25.44l-.178-.954a7.838,7.838,0,0,1,0-3.174l.182-.953L2.849,18.807a11.532,11.532,0,0,1,1.864-3.236l2.725,1.573.736-.63a8.385,8.385,0,0,1,2.713-1.567l.917-.32V11.491a10.981,10.981,0,0,1,3.737,0v3.142l.918.318a8.415,8.415,0,0,1,2.713,1.567l.736.63,2.725-1.573A11.572,11.572,0,0,1,24.5,18.81l-2.685,1.551ZM39.671,33.147a4.783,4.783,0,1,0,4.789,4.783A4.792,4.792,0,0,0,39.671,33.147Zm0,6.834a2.05,2.05,0,1,1,2.053-2.05A2.055,2.055,0,0,1,39.671,39.981Z" transform="translate(0.012 -8.597)" fill="#3e9ad8"/>
</svg>
