<svg xmlns="http://www.w3.org/2000/svg" width="48.879" height="39.115" viewBox="0 0 48.879 39.115">
  <path id="hygienic" d="M-5755.088-4856.15l-46.448-36.669a1.224,1.224,0,0,1-.2-1.717,1.227,1.227,0,0,1,1.717-.2l46.448,36.668a1.163,1.163,0,0,1,.135,1.721,1.224,1.224,0,0,1-.961.464A1.16,1.16,0,0,1-5755.088-4856.15Zm-24.635-1.909v-1.647a4.283,4.283,0,0,0-4.377-4.285,4.256,4.256,0,0,0-3.042,1.281l-1.165,1.165a2.168,2.168,0,0,1-1.536.636,2.173,2.173,0,0,1-1.537-.636,2.173,2.173,0,0,1,0-3.073l1.165-1.165a4.345,4.345,0,0,0-3.072-7.419h-1.65a2.171,2.171,0,0,1-2.173-2.172,2.172,2.172,0,0,1,2.173-2.174h1.647a4.222,4.222,0,0,0,3.231-1.469l1.917,1.512a6.573,6.573,0,0,1-3.205,2.132,6.673,6.673,0,0,1,4.329,3.92,6.673,6.673,0,0,1-.292,5.84,6.641,6.641,0,0,1,3.206-.821,6.834,6.834,0,0,1,6.551,4.9,6.8,6.8,0,0,1,4.057-4.477l2.478,1.956a4.341,4.341,0,0,0-4.358,4.353v1.647a2.172,2.172,0,0,1-2.173,2.172A2.171,2.171,0,0,1-5779.723-4858.06Zm.319-10.17a1.638,1.638,0,0,1,1.632-1.632,1.717,1.717,0,0,1,1.634,1.726,1.633,1.633,0,0,1-1.634,1.632A1.72,1.72,0,0,1-5779.4-4868.229Zm12.441-5.082a6.575,6.575,0,0,1,3.2-2.13,6.676,6.676,0,0,1-4.329-3.92,6.675,6.675,0,0,1,.292-5.841,6.643,6.643,0,0,1-3.207.821,6.913,6.913,0,0,1-6.55-4.9,6.829,6.829,0,0,1-4.049,4.406l-2.487-1.954a4.352,4.352,0,0,0,4.367-4.354v-1.646a2.069,2.069,0,0,1,2.1-2.172,2.191,2.191,0,0,1,2.243,2.172v1.647a4.343,4.343,0,0,0,4.378,4.354,4.252,4.252,0,0,0,3.041-1.282l1.165-1.165a2.167,2.167,0,0,1,1.536-.637,2.169,2.169,0,0,1,1.536.637,2.174,2.174,0,0,1,0,3.072l-1.165,1.165a4.346,4.346,0,0,0,3.073,7.419h1.647a2.172,2.172,0,0,1,2.172,2.174,2.171,2.171,0,0,1-2.172,2.172h-1.647a4.223,4.223,0,0,0-3.231,1.469Zm-19.81-.917a1.639,1.639,0,0,1,1.634-1.634,1.718,1.718,0,0,1,1.632,1.726,1.633,1.633,0,0,1-1.632,1.632A1.719,1.719,0,0,1-5786.772-4874.229Zm12-6a1.638,1.638,0,0,1,1.634-1.632,1.716,1.716,0,0,1,1.632,1.726,1.633,1.633,0,0,1-1.632,1.632A1.72,1.72,0,0,1-5774.772-4880.229Z" transform="translate(5802 4895)" fill="#3e9ad8"/>
</svg>
