<svg xmlns="http://www.w3.org/2000/svg" width="32" height="34" viewBox="0 0 32 34">
  <path id="management" d="M-5786.251-4860.4a.646.646,0,0,1-.636-.509l-.725-2.44h-.016a15.521,15.521,0,0,1-9.794-5.07,15.554,15.554,0,0,1-3.98-10.4,15.449,15.449,0,0,1,4.62-11.073,15.574,15.574,0,0,1,4.944-3.3,15.321,15.321,0,0,1,5.966-1.2,15.866,15.866,0,0,1,2.86.264l-.386,1.89a13.719,13.719,0,0,0-2.457-.223,13.4,13.4,0,0,0-5.227,1.055,13.647,13.647,0,0,0-4.334,2.894,13.527,13.527,0,0,0-4.051,9.7,13.65,13.65,0,0,0,3.2,8.784,13.637,13.637,0,0,0,7.968,4.632l.443.08-.634-2.9a.627.627,0,0,1,.125-.537.659.659,0,0,1,.51-.248.639.639,0,0,1,.239.045l7.044,2.273a.637.637,0,0,1,.432.479.645.645,0,0,1-.2.62l-5.486,5.028A.625.625,0,0,1-5786.251-4860.4Zm9.463-6.437a1.034,1.034,0,0,1-.865-.491l-1.012-1.473a1.028,1.028,0,0,1-.1-1.1,1.253,1.253,0,0,1,1.06-.651,1.03,1.03,0,0,1,.864.494l1.012,1.471a1.026,1.026,0,0,1,.1,1.1A1.249,1.249,0,0,1-5776.788-4866.836Zm-15.962-4.358a1.051,1.051,0,0,1-.949-.778.906.906,0,0,1,.416-1.066l4.667-3.038-.089-.228a3.775,3.775,0,0,1,1.456-4.508,3.739,3.739,0,0,1,1.091-.484l.225-.059.012-7.253a.919.919,0,0,1,.3-.727,1.054,1.054,0,0,1,.688-.244.929.929,0,0,1,.989.969l-.013,7.4.187.078a3.743,3.743,0,0,1,1.716,1.425,3.769,3.769,0,0,1-1.1,5.2,3.736,3.736,0,0,1-2.041.6,3.766,3.766,0,0,1-1.959-.547l-.162-.1-4.883,3.178-.036.024A.984.984,0,0,1-5792.75-4871.194Zm7.549-8.235a1.76,1.76,0,0,0-.963.286,1.756,1.756,0,0,0-.769,1.117,1.756,1.756,0,0,0,.25,1.333,1.76,1.76,0,0,0,1.479.807,1.767,1.767,0,0,0,.967-.289,1.758,1.758,0,0,0,.769-1.116,1.768,1.768,0,0,0-.248-1.334A1.767,1.767,0,0,0-5785.2-4879.43Zm13.375,6.868a1.2,1.2,0,0,1-.512-.125l-1.609-.767a1.035,1.035,0,0,1-.606-1.206,1.134,1.134,0,0,1,1.045-.922,1.2,1.2,0,0,1,.514.125l1.609.768a1.026,1.026,0,0,1,.606,1.206A1.131,1.131,0,0,1-5771.827-4872.562Zm-.477-7.28a1.056,1.056,0,0,1-1.067-1.073,1.049,1.049,0,0,1,.943-1.136l1.843-.147c.039,0,.078,0,.115,0a1.057,1.057,0,0,1,1.068,1.074,1.048,1.048,0,0,1-1.007,1.14l-1.778.142C-5772.227-4879.843-5772.266-4879.841-5772.3-4879.841Zm-2.191-6.2a1.17,1.17,0,0,1-1.059-.848,1.019,1.019,0,0,1,.442-1.195l1.469-1.013a1.11,1.11,0,0,1,.637-.217,1.168,1.168,0,0,1,1.058.848,1.021,1.021,0,0,1-.441,1.2l-1.469,1.013A1.105,1.105,0,0,1-5774.5-4886.044Zm-4.954-4.3a1.251,1.251,0,0,1-1.027-.559,1.017,1.017,0,0,1-.028-1.032l.767-1.613a1.013,1.013,0,0,1,.943-.636,1.252,1.252,0,0,1,1.028.559,1.015,1.015,0,0,1,.027,1.032l-.767,1.611A1.012,1.012,0,0,1-5779.449-4890.347Z" transform="translate(5801.401 4894.4)" fill="#3e9ad8"/>
</svg>
