<svg xmlns="http://www.w3.org/2000/svg" width="30" height="30" viewBox="0 0 30 30">
  <path id="manage-time" d="M-5775.864-4865.906v-1.715h-4.849v1.715a.917.917,0,0,1-.926.907.917.917,0,0,1-.926-.907v-4.666h-1.084a.917.917,0,0,1-.926-.906.917.917,0,0,1,.926-.906h1.084v-4.011a2.245,2.245,0,0,1,1.395-2.058,2.866,2.866,0,0,1-.054-.564,2.908,2.908,0,0,1,2.937-2.873,2.908,2.908,0,0,1,2.937,2.873,3.036,3.036,0,0,1-.055.564,2.246,2.246,0,0,1,1.4,2.058v4.011h1.083a.917.917,0,0,1,.926.906.917.917,0,0,1-.926.906h-1.083v4.666a.919.919,0,0,1-.928.907A.917.917,0,0,1-5775.864-4865.906Zm-4.849-10.488v6.961h4.849v-6.961a.409.409,0,0,0-.414-.4h-4.021A.409.409,0,0,0-5780.713-4876.395Zm1.307-2.616a1.037,1.037,0,0,0,.107.4h2a.924.924,0,0,0,.094-.4,1.074,1.074,0,0,0-1.084-1.061A1.134,1.134,0,0,0-5779.406-4879.01Zm-8.588,13.1v-18.588a3.988,3.988,0,0,0-2.293,1.18.875.875,0,0,1-.688.313.959.959,0,0,1-.707-.305l0,0a4.266,4.266,0,0,0-3.222-1.288,4.191,4.191,0,0,0-3.41,1.5.965.965,0,0,1-.78.39,1.023,1.023,0,0,1-.229-.027l-.027-.009a.924.924,0,0,1-.636-.858v-.262c0-6.138,5.827-11.132,12.99-11.132a13.966,13.966,0,0,1,9.8,3.831,10.063,10.063,0,0,1,3.125,7.27v.293a.892.892,0,0,1-.638.858.693.693,0,0,1-.29.048.988.988,0,0,1-.736-.389l-.009-.013a4.193,4.193,0,0,0-3.41-1.5,4.324,4.324,0,0,0-3.219,1.283.874.874,0,0,1-.688.314.958.958,0,0,1-.708-.305l-.011-.013a3.81,3.81,0,0,0-2.355-1.178v18.592a.917.917,0,0,1-.926.907A.917.917,0,0,1-5787.994-4865.906Zm11.919-19.8c-.909-3.7-4.407-6.609-8.791-7.3a15.254,15.254,0,0,1,2.742,7.293,6.71,6.71,0,0,1,3.03-.694A6.784,6.784,0,0,1-5776.074-4885.705Zm-15.8-.012a15.271,15.271,0,0,1,2.741-7.292,11.906,11.906,0,0,0-5.751,2.559,8.862,8.862,0,0,0-3.04,4.733,6.54,6.54,0,0,1,3.021-.7A6.716,6.716,0,0,1-5791.879-4885.717Zm4.286-6.267a13.922,13.922,0,0,0-2.369,5.821c-.018.152-.033.3-.049.434a6.925,6.925,0,0,1,2.741-.678v-.005h.27a6.76,6.76,0,0,1,2.976.676c-.017-.145-.032-.289-.048-.427a13.334,13.334,0,0,0-2.366-5.852l-.009-.015a6.058,6.058,0,0,0-.552-.728C-5787.2-4892.517-5787.4-4892.263-5787.593-4891.983Zm-5.7,26.077v-1.715h-4.847v1.715a.919.919,0,0,1-.928.907.917.917,0,0,1-.926-.907v-4.666h-1.083a.919.919,0,0,1-.928-.906.918.918,0,0,1,.928-.906h1.083v-4.011a2.246,2.246,0,0,1,1.4-2.058,2.793,2.793,0,0,1-.055-.564,2.91,2.91,0,0,1,2.938-2.873,2.909,2.909,0,0,1,2.937,2.873,2.882,2.882,0,0,1-.057.564,2.243,2.243,0,0,1,1.4,2.058v4.011h1.084a.917.917,0,0,1,.926.906.917.917,0,0,1-.926.906h-1.084v4.666a.917.917,0,0,1-.926.907A.919.919,0,0,1-5793.289-4865.906Zm-4.847-10.488v6.961h4.847v-6.961a.409.409,0,0,0-.414-.4h-4.02A.409.409,0,0,0-5798.136-4876.395Zm1.305-2.616a1.065,1.065,0,0,0,.108.4h2a.916.916,0,0,0,.093-.4,1.073,1.073,0,0,0-1.083-1.061A1.136,1.136,0,0,0-5796.831-4879.01Z" transform="translate(5802.001 4895)" fill="#3e9ad8"/>
</svg>
