<svg xmlns="http://www.w3.org/2000/svg" width="49" height="44" viewBox="0 0 49 44">
  <path id="memo-circle-check" d="M27.222,12.375A1.372,1.372,0,0,0,25.861,11H6.806a1.375,1.375,0,0,0,0,2.75H25.861A1.372,1.372,0,0,0,27.222,12.375ZM6.806,27.5a1.375,1.375,0,0,0,0,2.75H17.694a1.375,1.375,0,0,0,0-2.75ZM23.819,41.25H5.444A2.737,2.737,0,0,1,2.722,38.5V5.5A2.737,2.737,0,0,1,5.444,2.75H27.222A2.737,2.737,0,0,1,29.944,5.5V15.813a1.361,1.361,0,1,0,2.722,0V5.5A5.472,5.472,0,0,0,27.222,0H5.444A5.472,5.472,0,0,0,0,5.5v33A5.472,5.472,0,0,0,5.444,44H23.819a1.375,1.375,0,0,0,0-2.75ZM24.5,20.625a1.372,1.372,0,0,0-1.361-1.375H6.806a1.375,1.375,0,0,0,0,2.75H23.139A1.372,1.372,0,0,0,24.5,20.625ZM36.75,19.25A12.376,12.376,0,1,0,49,31.625,12.316,12.316,0,0,0,36.75,19.25Zm0,22a9.625,9.625,0,1,1,9.528-9.625A9.583,9.583,0,0,1,36.75,41.25Zm3.8-13.8-5.388,5.443L32.95,30.656a1.35,1.35,0,0,0-1.924,0,1.385,1.385,0,0,0,0,1.944L34.2,35.808a1.35,1.35,0,0,0,1.924,0l6.351-6.416a1.384,1.384,0,0,0,0-1.944A1.348,1.348,0,0,0,40.553,27.448Z" fill="#3e9ad8"/>
</svg>
