<svg xmlns="http://www.w3.org/2000/svg" width="32.912" height="32.684" viewBox="0 0 32.912 32.684">
  <path id="message-pen" d="M27.9,0H3.214A4.11,4.11,0,0,0-.9,4.056V22.511a4.073,4.073,0,0,0,4.114,4.056H9.385v5.342a.771.771,0,0,0,1.229.624l8.029-6.023H27.9a4.11,4.11,0,0,0,4.114-4.056V4.056A4.077,4.077,0,0,0,27.9,0Zm2.115,22.626a2.063,2.063,0,0,1-2.057,2.057H18.692a2.057,2.057,0,0,0-1.235.412L11.5,29.569V25.712a1.028,1.028,0,0,0-1.028-1.028h-7.2a2.063,2.063,0,0,1-2.057-2.057V4.114A2.063,2.063,0,0,1,3.272,2.057H27.955a2.063,2.063,0,0,1,2.057,2.057ZM21.366,7.013a2.983,2.983,0,0,0-1.815-.886,2.83,2.83,0,0,0-2.26.809L9.308,14.919a1.018,1.018,0,0,0-.281.522l-.786,3.85a1.024,1.024,0,0,0,1.21,1.2l3.932-.725a1.03,1.03,0,0,0,.525-.279l7.913-7.855a2.939,2.939,0,0,0,.892-1.8A2.783,2.783,0,0,0,21.9,7.589ZM12.676,17.825l-2.121.424.424-2.1L16.563,10.6l1.7,1.683Zm7.765-7.707-.726.721-1.7-1.683.727-.721a.776.776,0,0,1,1.091,0l.6.6A.76.76,0,0,1,20.441,10.118Z" transform="translate(0.9)" fill="#c3e7ff"/>
</svg>
