<svg xmlns="http://www.w3.org/2000/svg" width="36" height="29" viewBox="0 0 36 29">
  <path id="poll-people" d="M8.1,2.719A2.7,2.7,0,1,1,5.4,0,2.71,2.71,0,0,1,8.1,2.719ZM5.4,1.813a.906.906,0,1,0,.9.906A.9.9,0,0,0,5.4,1.813Zm27.9,0A2.71,2.71,0,0,1,36,4.532V8.158a2.71,2.71,0,0,1-2.7,2.719h-18a2.71,2.71,0,0,1-2.7-2.719V4.532a2.71,2.71,0,0,1,2.7-2.719Zm0,1.813H28.8V9.064h4.5a.906.906,0,0,0,.9-.906V4.532A.9.9,0,0,0,33.3,3.626Zm-18.9.906V8.158a.906.906,0,0,0,.9.906H27V3.626H15.3A.9.9,0,0,0,14.4,4.532Zm18.9,13.6A2.71,2.71,0,0,1,36,20.848v3.626a2.71,2.71,0,0,1-2.7,2.719h-18a2.71,2.71,0,0,1-2.7-2.719V20.848a2.71,2.71,0,0,1,2.7-2.719Zm0,1.813H21.6V25.38H33.3a.906.906,0,0,0,.9-.906V20.848A.906.906,0,0,0,33.3,19.941Zm-18.9.906v3.626a.906.906,0,0,0,.9.906h4.5V19.941H15.3A.906.906,0,0,0,14.4,20.848ZM.063,27.538a4.509,4.509,0,0,1,4.465-3.971H6.272a4.512,4.512,0,0,1,4.466,3.971l.056.448A.944.944,0,0,1,9.962,29a.925.925,0,0,1-.956-.838l-.056-.4A2.7,2.7,0,0,0,6.272,25.38H4.528a2.705,2.705,0,0,0-2.679,2.379l-.056.4a.94.94,0,0,1-1,.838.906.906,0,0,1-.782-1.014Zm0-16.316A4.509,4.509,0,0,1,4.528,7.251H6.272a4.512,4.512,0,0,1,4.466,3.971l.056.448a.944.944,0,0,1-.832,1.014.925.925,0,0,1-.956-.838l-.056-.4A2.7,2.7,0,0,0,6.272,9.064H4.528a2.705,2.705,0,0,0-2.679,2.379l-.056.4a.94.94,0,0,1-1,.838A.906.906,0,0,1,.007,11.67ZM8.1,19.035a2.7,2.7,0,1,1-2.7-2.719A2.71,2.71,0,0,1,8.1,19.035Zm-2.7-.906a.906.906,0,1,0,.9.906A.9.9,0,0,0,5.4,18.128Z" transform="translate(0)" fill="#3e9ad8"/>
</svg>
