<svg xmlns="http://www.w3.org/2000/svg" width="33" height="29" viewBox="0 0 33 29">
  <path id="replacements" d="M-5785.5-4874.157a8.206,8.206,0,0,1,8.25-8.156,8.2,8.2,0,0,1,8.249,8.156,8.2,8.2,0,0,1-8.249,8.157A8.206,8.206,0,0,1-5785.5-4874.157Zm4.813,5.358a6.444,6.444,0,0,0,3.438.986,6.135,6.135,0,0,0,3.385-.986,2.238,2.238,0,0,0-1.771-.827h-3.231A2.425,2.425,0,0,0-5780.687-4868.8Zm5.053-2.639a4.244,4.244,0,0,1,3.214,1.46,6.3,6.3,0,0,0,1.587-4.18,6.377,6.377,0,0,0-6.416-6.343,6.377,6.377,0,0,0-6.417,6.343,6.3,6.3,0,0,0,1.587,4.18,4.248,4.248,0,0,1,3.214-1.46Zm-22.7,5.437a3.648,3.648,0,0,1-3.667-3.625v-18.124a3.647,3.647,0,0,1,3.667-3.626h1.834v-2.718a.912.912,0,0,1,.916-.906.913.913,0,0,1,.917.906v2.718h11v-2.718a.912.912,0,0,1,.916-.906.912.912,0,0,1,.917.906v2.718H-5780a3.648,3.648,0,0,1,3.667,3.626v3.624h-23.833v14.5a1.821,1.821,0,0,0,1.832,1.813h13.3a10.317,10.317,0,0,0,1.983,1.813Zm-1.832-21.75v1.813h22v-1.812a1.82,1.82,0,0,0-1.833-1.813h-18.334A1.821,1.821,0,0,0-5800.166-4887.75Zm19.707,12.234a3.193,3.193,0,0,1,3.209-3.171,3.192,3.192,0,0,1,3.208,3.171,3.191,3.191,0,0,1-3.208,3.171A3.193,3.193,0,0,1-5780.459-4875.516Zm1.833,0a1.364,1.364,0,0,0,1.376,1.359,1.364,1.364,0,0,0,1.375-1.359,1.364,1.364,0,0,0-1.375-1.36A1.364,1.364,0,0,0-5778.625-4875.516Zm-15.228,2.088-2.815-2.815a.845.845,0,0,1,0-1.2.846.846,0,0,1,1.194,0l2.218,2.219,5.034-5.034a.843.843,0,0,1,1.194,0,.838.838,0,0,1,0,1.192l-5.632,5.634a.849.849,0,0,1-.6.246A.859.859,0,0,1-5793.854-4873.427Z" transform="translate(5802 4895)" fill="#3e9ad8"/>
</svg>
