<svg xmlns="http://www.w3.org/2000/svg" width="48" height="52" viewBox="0 0 48 52">
  <path id="shield-virus" d="M41.61,24.375A1.617,1.617,0,0,0,40.01,26a1.539,1.539,0,0,0,1.6,1.534,1.579,1.579,0,1,0,0-3.159Zm11.2-1.716H51.6a3.256,3.256,0,0,1-2.262-5.548l.858-.871a1.633,1.633,0,0,0,.469-1.149,1.538,1.538,0,0,0-1.6-1.534,1.581,1.581,0,0,0-1.131.476l-.861.866a3.11,3.11,0,0,1-2.24.958A3.222,3.222,0,0,1,41.607,12.6V11.284a1.6,1.6,0,1,0-3.2,0v1.231a3.222,3.222,0,0,1-3.223,3.257,3.112,3.112,0,0,1-2.24-.958l-.854-.777a1.546,1.546,0,0,0-1.13-.477,1.6,1.6,0,0,0-1.6,1.534,1.631,1.631,0,0,0,.469,1.149l.858.871a3.569,3.569,0,0,1,.944,2.368,3.224,3.224,0,0,1-3.206,3.273H27.209a1.625,1.625,0,0,0,0,3.25h1.212a3.256,3.256,0,0,1,2.262,5.548l-.854.867a1.633,1.633,0,0,0-.469,1.149,1.538,1.538,0,0,0,1.6,1.534,1.581,1.581,0,0,0,1.131-.476l.858-.871a3.111,3.111,0,0,1,2.239-.958,3.24,3.24,0,0,1,3.223,3.256v1.231a1.6,1.6,0,1,0,3.2,0V36.052A3.221,3.221,0,0,1,44.834,32.8h0a3.112,3.112,0,0,1,2.24.958l.858.871a1.6,1.6,0,0,0,2.731-1.057,1.631,1.631,0,0,0-.469-1.149l-.858-.871A3.256,3.256,0,0,1,51.6,26h1.212a1.612,1.612,0,0,0,1.6-1.625A1.7,1.7,0,0,0,52.81,22.659Zm-7.62,6.6q0,.2.012.392c-.124-.007-.249-.011-.374-.011h0A6.411,6.411,0,0,0,40,31.845a6.235,6.235,0,0,0-4.814-2.2q-.188,0-.374.011.012-.2.012-.392a6.588,6.588,0,0,0-2.165-4.882A6.584,6.584,0,0,0,34.82,19.5q0-.2-.012-.392.186.011.373.011A6.374,6.374,0,0,0,40,16.9a6.375,6.375,0,0,0,4.823,2.214q.187,0,.373-.011-.012.2-.012.392a6.584,6.584,0,0,0,2.165,4.882A6.576,6.576,0,0,0,45.19,29.26Zm-6.78-8.227a1.613,1.613,0,0,0-1.6,1.625,1.7,1.7,0,0,0,1.6,1.716,1.617,1.617,0,0,0,1.6-1.625A1.7,1.7,0,0,0,38.409,21.034ZM61.06,8.5,41.86.373a4.752,4.752,0,0,0-3.69,0L18.969,8.5A4.87,4.87,0,0,0,16.01,13c0,26.124,18.919,39,23.989,39,5.2,0,24.01-13.02,24.01-39A4.88,4.88,0,0,0,61.06,8.5ZM40,48.75c-4.37,0-20.79-12.645-20.79-35.841a1.616,1.616,0,0,1,.99-1.5l19.19-8.12a2.936,2.936,0,0,1,.629-.128,2.973,2.973,0,0,1,.615.123l19.2,8.127a1.857,1.857,0,0,1,.976,1.5C60.81,39.6,41.28,48.75,40,48.75Z" transform="translate(-16.01)" fill="#3e9ad8"/>
</svg>
