<svg xmlns="http://www.w3.org/2000/svg" width="51" height="41" viewBox="0 0 51 41">
  <path id="user-clock" d="M43.35,28.188H40.8V24.344a1.275,1.275,0,1,0-2.55,0v5.625a.779.779,0,0,0,.777.781H43.35a1.281,1.281,0,0,0,0-2.562Zm-3.825-10.25A11.531,11.531,0,1,0,51,29.469,11.493,11.493,0,0,0,39.525,17.938Zm0,20.5a8.969,8.969,0,1,1,8.925-8.969A8.958,8.958,0,0,1,39.525,38.438Zm-12.75,0H2.762a.215.215,0,0,1-.212-.216A11.3,11.3,0,0,1,13.81,26.906h8.08a10.366,10.366,0,0,1,2.437.3,1.275,1.275,0,0,0,1.555-.954l.006-.025a1.286,1.286,0,0,0-.976-1.542,13.671,13.671,0,0,0-3.022-.341H13.81A13.838,13.838,0,0,0,0,38.229,2.779,2.779,0,0,0,2.762,41H26.78a1.281,1.281,0,0,0,0-2.562ZM17.85,20.5A10.25,10.25,0,1,0,7.65,10.25,10.225,10.225,0,0,0,17.85,20.5Zm0-17.937A7.688,7.688,0,1,1,10.2,10.25,7.677,7.677,0,0,1,17.85,2.563Z" transform="translate(0)" fill="#3e9ad8"/>
</svg>
