<svg xmlns="http://www.w3.org/2000/svg" width="36" height="29" viewBox="0 0 36 29">
  <path id="users-gear-alt" d="M18.13,18.125a5.891,5.891,0,1,0-5.843-5.891A5.85,5.85,0,0,0,18.13,18.125Zm0-9.969a4.078,4.078,0,1,1-4.081,4.078A4.083,4.083,0,0,1,18.13,8.156Zm9.98,2.719a4.252,4.252,0,0,0-1.784.395.942.942,0,0,0-.518,1.16.909.909,0,0,0,1.239.5,2.491,2.491,0,0,1,1.063-.246H31.8a2.613,2.613,0,0,1,2.241,1.337.925.925,0,0,0,.8.476.908.908,0,0,0,.776-1.372A4.332,4.332,0,0,0,31.8,10.875Zm.907-1.812a4.531,4.531,0,1,0-4.534-4.531A4.533,4.533,0,0,0,29.018,9.063Zm0-7.25A2.719,2.719,0,1,1,26.3,4.531,2.722,2.722,0,0,1,29.018,1.813ZM35.393,22.5l-.568-.33a5.649,5.649,0,0,0,0-.83l.54-.315a1.22,1.22,0,0,0,.578-1.428,7.316,7.316,0,0,0-1.591-2.75,1.219,1.219,0,0,0-1.51-.241l-.566.327a5.832,5.832,0,0,0-.716-.413v-.708a1.2,1.2,0,0,0-.95-1.18,7.242,7.242,0,0,0-3.167-.005,1.206,1.206,0,0,0-.971,1.185v.658a5.852,5.852,0,0,0-.718.413l-.553-.318a1.223,1.223,0,0,0-1.516.219,7.855,7.855,0,0,0-1.6,2.823,1.2,1.2,0,0,0,.549,1.4l.57.332a6.127,6.127,0,0,0,0,.826l-.541.318A1.2,1.2,0,0,0,22.09,23.9a7.316,7.316,0,0,0,1.6,2.774,1.213,1.213,0,0,0,1.491.223l.572-.328a5.766,5.766,0,0,0,.716.413v.658a1.2,1.2,0,0,0,.946,1.18A12.482,12.482,0,0,0,29.029,29a6.971,6.971,0,0,0,1.558-.173,1.208,1.208,0,0,0,.975-1.185v-.656a5.817,5.817,0,0,0,.716-.413l.549.317a1.207,1.207,0,0,0,1.516-.219A7.357,7.357,0,0,0,35.949,23.9,1.2,1.2,0,0,0,35.393,22.5Zm-2.431-1.473a3.979,3.979,0,0,1,0,1.455l-.119.629,1.212.7a5.6,5.6,0,0,1-.736,1.268l-1.206-.7-.488.414a4,4,0,0,1-1.269.732l-.606.213v1.4a5.685,5.685,0,0,1-1.461,0V25.745l-.6-.214a4,4,0,0,1-1.269-.732l-.486-.413-1.212.7a5.46,5.46,0,0,1-.735-1.269l1.2-.7-.112-.623a4.239,4.239,0,0,1,0-1.473l.112-.623-1.2-.7a5.416,5.416,0,0,1,.733-1.27l1.213.7.486-.413a3.992,3.992,0,0,1,1.269-.732l.6-.214V16.363a5.386,5.386,0,0,1,1.461,0v1.394l.606.213a4.01,4.01,0,0,1,1.269.732l.488.414,1.207-.7a5.543,5.543,0,0,1,.735,1.266l-1.212.705ZM7.254,9.063A4.531,4.531,0,1,0,2.72,4.531,4.533,4.533,0,0,0,7.254,9.063Zm0-7.25a2.719,2.719,0,1,1-2.72,2.719A2.722,2.722,0,0,1,7.254,1.813ZM21.763,27.188H9.079a6.032,6.032,0,0,1,6.183-5.437h3.78a.906.906,0,1,0,0-1.812H15.308a7.814,7.814,0,0,0-8.053,7.55A1.561,1.561,0,0,0,8.864,29h12.9a.906.906,0,1,0,0-1.812Zm7.254-8.156a2.719,2.719,0,1,0,2.72,2.719A2.722,2.722,0,0,0,29.018,19.031Zm0,3.625a.906.906,0,1,1,.907-.906A.907.907,0,0,1,29.018,22.656ZM9.227,12.931A.906.906,0,1,0,10,11.294a4.3,4.3,0,0,0-1.843-.419H4.473A4.588,4.588,0,0,0,0,15.559v.753a.907.907,0,0,0,1.814,0v-.753a2.773,2.773,0,0,1,2.659-2.872H8.161A2.543,2.543,0,0,1,9.227,12.931Z" fill="#3e9ad8"/>
</svg>
