<svg xmlns="http://www.w3.org/2000/svg" width="15.563" height="25" viewBox="0 0 15.563 25">
  <g id="arrow-down" transform="translate(80.319) rotate(90)">
    <g id="Group_17" data-name="Group 17" transform="translate(0 64.756)">
      <g id="Group_16" data-name="Group 16" transform="translate(0 0)">
        <path id="Path_1129" data-name="Path 1129" d="M112.072,72.236a.5.5,0,0,0-.064-.064l-7.081-7.233a.571.571,0,0,0-.99.381v3.807H94.762c-.343,0-.723.076-.723.381V75.6a.876.876,0,0,0,.723.761h9.175v3.426a.609.609,0,0,0,.343.533h.228a.609.609,0,0,0,.419-.19l7.081-7.2A.5.5,0,0,0,112.072,72.236Z" transform="translate(-87.187 -64.756)" fill="gold"/>
        <path id="Path_1130" data-name="Path 1130" d="M63.265,122.122a.571.571,0,0,0-.571.571v6.091a.571.571,0,1,0,1.142,0v-6.091A.571.571,0,0,0,63.265,122.122Z" transform="translate(-58.126 -117.942)" fill="gold"/>
        <path id="Path_1131" data-name="Path 1131" d="M31.918,122.122a.571.571,0,0,0-.571.571v6.091a.571.571,0,0,0,1.142,0v-6.091A.571.571,0,0,0,31.918,122.122Z" transform="translate(-29.063 -117.942)" fill="gold"/>
        <path id="Path_1132" data-name="Path 1132" d="M.571,122.122a.571.571,0,0,0-.571.571v6.091a.571.571,0,0,0,1.142,0v-6.091A.571.571,0,0,0,.571,122.122Z" transform="translate(0 -117.942)" fill="gold"/>
      </g>
    </g>
  </g>
</svg>
