<svg xmlns="http://www.w3.org/2000/svg" width="36.996" height="15.564" viewBox="0 0 36.996 15.564">
  <g id="arrow-left-right" transform="translate(4972 2852)">
    <g id="Group_18901" data-name="Group 18901">
      <g id="Group_17" data-name="Group 17" transform="translate(-4972.003 -2852)">
        <g id="Group_16" data-name="Group 16">
          <path id="Path_1129" data-name="Path 1129" d="M94.153,72.236a.5.5,0,0,1,.064-.064l7.081-7.233a.571.571,0,0,1,.99.381v3.807h9.175c.343,0,.723.076.723.381V75.6a.876.876,0,0,1-.723.761h-9.175v3.426a.609.609,0,0,1-.343.533h-.228a.609.609,0,0,1-.419-.19l-7.081-7.2A.5.5,0,0,1,94.153,72.236Z" transform="translate(-94.039 -64.756)" fill="gold"/>
          <path id="Path_1130" data-name="Path 1130" d="M63.265,122.122a.571.571,0,0,1,.571.571v6.091a.571.571,0,1,1-1.142,0v-6.091a.571.571,0,0,1,.571-.571Z" transform="translate(-43.404 -117.942)" fill="gold"/>
          <path id="Path_1131" data-name="Path 1131" d="M31.918,122.122a.571.571,0,0,1,.571.571v6.091a.571.571,0,0,1-1.142,0v-6.091a.571.571,0,0,1,.571-.571Z" transform="translate(-9.773 -117.942)" fill="gold"/>
          <path id="Path_1132" data-name="Path 1132" d="M.571,122.122a.571.571,0,0,1,.571.571v6.091a.571.571,0,0,1-1.142,0v-6.091a.571.571,0,0,1,.571-.571Z" transform="translate(23.858 -117.942)" fill="gold"/>
        </g>
      </g>
      <g id="arrow-right" transform="translate(-4960 -2916.756)">
        <g id="Group_17-2" data-name="Group 17" transform="translate(0 64.756)">
          <g id="Group_16-2" data-name="Group 16">
            <path id="Path_1129-2" data-name="Path 1129" d="M112.072,72.236a.5.5,0,0,0-.064-.064l-7.081-7.233a.571.571,0,0,0-.99.381v3.807H94.762c-.343,0-.723.076-.723.381V75.6a.876.876,0,0,0,.723.761h9.175v3.426a.609.609,0,0,0,.343.533h.228a.609.609,0,0,0,.419-.19l7.081-7.2A.5.5,0,0,0,112.072,72.236Z" transform="translate(-87.187 -64.756)" fill="gold"/>
            <path id="Path_1130-2" data-name="Path 1130" d="M63.265,122.122a.571.571,0,0,0-.571.571v6.091a.571.571,0,1,0,1.142,0v-6.091a.571.571,0,0,0-.571-.571Z" transform="translate(-58.126 -117.942)" fill="gold"/>
            <path id="Path_1131-2" data-name="Path 1131" d="M31.918,122.122a.571.571,0,0,0-.571.571v6.091a.571.571,0,1,0,1.142,0v-6.091a.571.571,0,0,0-.571-.571Z" transform="translate(-29.063 -117.942)" fill="gold"/>
            <path id="Path_1132-2" data-name="Path 1132" d="M.571,122.122a.571.571,0,0,0-.571.571v6.091a.571.571,0,0,0,1.142,0v-6.091a.571.571,0,0,0-.571-.571Z" transform="translate(0 -117.942)" fill="gold"/>
          </g>
        </g>
      </g>
    </g>
  </g>
</svg>
