<svg id="comment" xmlns="http://www.w3.org/2000/svg" width="15" height="15" viewBox="0 0 15 15">
  <g id="Group_28" data-name="Group 28">
    <g id="Group_27" data-name="Group 27">
      <path id="Path_1139" data-name="Path 1139" d="M14.561,0H.439A.439.439,0,0,0,0,.439v11.3a.439.439,0,0,0,.439.439H2.824v2.385a.439.439,0,0,0,.75.311l2.7-2.7h8.291A.439.439,0,0,0,15,11.736V.439A.439.439,0,0,0,14.561,0Zm-.439,11.3H6.088a.439.439,0,0,0-.311.129L3.7,13.5V11.736a.439.439,0,0,0-.439-.439H.879V.879H14.121Z"/>
    </g>
  </g>
  <g id="Group_30" data-name="Group 30" transform="translate(4.236 5.648)">
    <g id="Group_29" data-name="Group 29">
      <path id="Path_1140" data-name="Path 1140" d="M145.35,192.929a.44.44,0,1,0,.129.311A.443.443,0,0,0,145.35,192.929Z" transform="translate(-144.6 -192.8)"/>
    </g>
  </g>
  <g id="Group_32" data-name="Group 32" transform="translate(7.061 5.648)">
    <g id="Group_31" data-name="Group 31">
      <path id="Path_1141" data-name="Path 1141" d="M241.75,192.929a.44.44,0,1,0,.129.311A.443.443,0,0,0,241.75,192.929Z" transform="translate(-241 -192.8)"/>
    </g>
  </g>
  <g id="Group_34" data-name="Group 34" transform="translate(9.885 5.648)">
    <g id="Group_33" data-name="Group 33">
      <path id="Path_1142" data-name="Path 1142" d="M338.15,192.929a.44.44,0,1,0,.129.311A.443.443,0,0,0,338.15,192.929Z" transform="translate(-337.4 -192.8)"/>
    </g>
  </g>
</svg>
