<svg xmlns="http://www.w3.org/2000/svg" width="20" height="12.891" viewBox="0 0 20 12.891">
  <g id="eye" transform="translate(0 -91)">
    <path id="Path_1193" data-name="Path 1193" d="M2.7,100.81a10.907,10.907,0,0,0,7.3,3.081,10.907,10.907,0,0,0,7.3-3.081,15.237,15.237,0,0,0,2.618-3.061.586.586,0,0,0,0-.608A15.238,15.238,0,0,0,17.3,94.081,10.907,10.907,0,0,0,10,91a10.907,10.907,0,0,0-7.3,3.081A15.238,15.238,0,0,0,.085,97.141a.586.586,0,0,0,0,.608A15.239,15.239,0,0,0,2.7,100.81Zm.786-5.859A9.645,9.645,0,0,1,10,92.172a9.633,9.633,0,0,1,6.487,2.756,14.942,14.942,0,0,1,2.225,2.518,14.877,14.877,0,0,1-2.2,2.495A9.644,9.644,0,0,1,10,102.719a9.633,9.633,0,0,1-6.487-2.756,14.942,14.942,0,0,1-2.225-2.518,14.873,14.873,0,0,1,2.2-2.495Z"/>
    <path id="Path_1194" data-name="Path 1194" d="M155.1,159.2a4.1,4.1,0,1,0-4.1-4.1A4.106,4.106,0,0,0,155.1,159.2Zm0-7.031a2.93,2.93,0,1,1-2.93,2.93A2.933,2.933,0,0,1,155.1,152.172Z" transform="translate(-145.102 -57.656)"/>
    <path id="Path_1195" data-name="Path 1195" d="M212.758,214.516A1.758,1.758,0,1,0,211,212.758,1.76,1.76,0,0,0,212.758,214.516Zm0-2.344a.586.586,0,1,1-.586.586A.587.587,0,0,1,212.758,212.172Z" transform="translate(-202.758 -115.313)"/>
  </g>
</svg>
