<svg xmlns="http://www.w3.org/2000/svg" width="21.333" height="16" viewBox="0 0 21.333 16">
  <g id="mail" transform="translate(0 -64)">
    <g id="Group_12" data-name="Group 12" transform="translate(0 64)">
      <g id="Group_11" data-name="Group 11" transform="translate(0 0)">
        <path id="Path_1127" data-name="Path 1127" d="M7.071,65.3c2.928,2.48,8.066,6.842,9.576,8.2a.892.892,0,0,0,1.29,0c1.511-1.362,6.649-5.724,9.577-8.2a.444.444,0,0,0,.063-.613,1.765,1.765,0,0,0-1.4-.685H8.4a1.765,1.765,0,0,0-1.395.685A.444.444,0,0,0,7.071,65.3Z" transform="translate(-6.626 -64)" fill="gold"/>
        <path id="Path_1128" data-name="Path 1128" d="M21.076,126.453a.442.442,0,0,0-.474.064c-3.247,2.753-7.391,6.281-8.695,7.456a1.8,1.8,0,0,1-2.481,0c-1.39-1.252-6.043-5.208-8.694-7.455a.444.444,0,0,0-.732.339v11.177a1.78,1.78,0,0,0,1.778,1.778H19.556a1.78,1.78,0,0,0,1.778-1.778V126.856A.444.444,0,0,0,21.076,126.453Z" transform="translate(0 -123.811)" fill="gold"/>
      </g>
    </g>
  </g>
</svg>
