<svg xmlns="http://www.w3.org/2000/svg" width="21.821" height="20" viewBox="0 0 21.821 20">
  <path id="shopping-cart" d="M20.925,24.979H3.863L3.61,22.154a.9.9,0,0,0-.893-.816H.9a.9.9,0,1,0,0,1.792h1L2.928,34.613a3.448,3.448,0,0,0,1.291,2.336,2.716,2.716,0,1,0,4.694.747h4.9A2.717,2.717,0,1,0,16.373,35.9H6.365A1.664,1.664,0,0,1,4.835,34.9l14.322-.842a.9.9,0,0,0,.817-.677l1.821-7.283a.9.9,0,0,0-.869-1.113ZM6.358,39.546a.925.925,0,1,1,.925-.925A.926.926,0,0,1,6.358,39.546Zm10.014,0a.925.925,0,1,1,.925-.925A.926.926,0,0,1,16.373,39.546ZM18.394,32.3l-13.8.811-.569-6.342H19.777Z" transform="translate(0 -21.338)" fill="gold"/>
</svg>
