<svg xmlns="http://www.w3.org/2000/svg" width="14.063" height="16" viewBox="0 0 14.063 16">
  <g id="user" transform="translate(-31)">
    <g id="Group_65" data-name="Group 65" transform="translate(33.813)">
      <g id="Group_64" data-name="Group 64">
        <path id="Path_1199" data-name="Path 1199" d="M125.219,0a4.219,4.219,0,1,0,4.219,4.219A4.224,4.224,0,0,0,125.219,0Z" transform="translate(-121)" fill="gold"/>
      </g>
    </g>
    <g id="Group_67" data-name="Group 67" transform="translate(31 9.375)">
      <g id="Group_66" data-name="Group 66">
        <path id="Path_1200" data-name="Path 1200" d="M43.28,301.819A6.014,6.014,0,0,0,38.969,300H37.094a6.014,6.014,0,0,0-4.311,1.819A6.148,6.148,0,0,0,31,306.156a.469.469,0,0,0,.469.469H44.594a.469.469,0,0,0,.469-.469A6.148,6.148,0,0,0,43.28,301.819Z" transform="translate(-31 -300)" fill="gold"/>
      </g>
    </g>
  </g>
</svg>
