<svg width="24" height="24" viewBox="0 0 24 24" fill="none" xmlns="http://www.w3.org/2000/svg">
<path d="M21.9375 23.25C19.25 23.25 16.6302 22.651 14.0781 21.4531C11.526 20.2552 9.26562 18.6719 7.29688 16.7031C5.32812 14.7344 3.74479 12.474 2.54688 9.92188C1.34896 7.36979 0.75 4.75 0.75 2.0625C0.75 1.6875 0.875 1.375 1.125 1.125C1.375 0.875 1.6875 0.75 2.0625 0.75H7.125C7.41667 0.75 7.67708 0.84375 7.90625 1.03125C8.13542 1.21875 8.27083 1.45833 8.3125 1.75L9.125 6.125C9.16667 6.41667 9.16146 6.68229 9.10938 6.92188C9.05729 7.16146 8.9375 7.375 8.75 7.5625L5.71875 10.625C6.59375 12.125 7.69271 13.5313 9.01562 14.8438C10.3385 16.1563 11.7917 17.2917 13.375 18.25L16.3125 15.3125C16.5 15.125 16.7448 14.9844 17.0469 14.8906C17.349 14.7969 17.6458 14.7708 17.9375 14.8125L22.25 15.6875C22.5417 15.75 22.7812 15.8906 22.9688 16.1094C23.1562 16.3281 23.25 16.5833 23.25 16.875V21.9375C23.25 22.3125 23.125 22.625 22.875 22.875C22.625 23.125 22.3125 23.25 21.9375 23.25ZM4.53125 8.25L6.59375 6.1875L6.0625 3.25H3.28125C3.38542 4.10417 3.53125 4.94792 3.71875 5.78125C3.90625 6.61458 4.17708 7.4375 4.53125 8.25ZM15.7188 19.4375C16.5313 19.7917 17.3594 20.0729 18.2031 20.2812C19.0469 20.4896 19.8958 20.625 20.75 20.6875V17.9375L17.8125 17.3438L15.7188 19.4375Z" fill="#31DD9F"/>
</svg>
