<svg xmlns="http://www.w3.org/2000/svg" width="36.973" height="35.124" viewBox="0 0 36.973 35.124">
  <path id="store" d="M38.973,7.546A5.553,5.553,0,0,0,33.427,2H7.546A5.553,5.553,0,0,0,2,7.546v5.234a7.872,7.872,0,0,0,1.849,5.076V33.427a3.7,3.7,0,0,0,3.7,3.7H33.427a3.7,3.7,0,0,0,3.7-3.7V17.854a7.864,7.864,0,0,0,1.849-5.076Zm-3.7,0v5.234a3.918,3.918,0,0,1-3.5,4.006l-.2,0a3.7,3.7,0,0,1-3.7-3.7V5.7h5.546A1.851,1.851,0,0,1,35.276,7.546ZM16.789,5.7h7.395v7.395a3.7,3.7,0,0,1-7.395,0ZM5.7,7.546A1.851,1.851,0,0,1,7.546,5.7h5.546v7.395a3.7,3.7,0,0,1-3.7,3.7l-.2-.006a3.915,3.915,0,0,1-3.5-4ZM16.789,33.427V27.881h7.395v5.546Zm11.092,0V27.881a3.7,3.7,0,0,0-3.7-3.7H16.789a3.7,3.7,0,0,0-3.7,3.7v5.546H7.546V20.244A7.152,7.152,0,0,0,9,20.475a7.372,7.372,0,0,0,5.94-2.5,7.385,7.385,0,0,0,11.092,0,7.372,7.372,0,0,0,5.94,2.5,7.132,7.132,0,0,0,1.455-.231V33.427Z" transform="translate(-2 -2)" fill="#2097ef"/>
</svg>
