<svg xmlns="http://www.w3.org/2000/svg" width="58.42" height="93.608" viewBox="0 0 58.42 93.608">
  <path id="blockquote" d="M317.917,376.686c0-7.14.071-14.28-.014-21.418-.143-12.054,5.551-20.76,15.853-26.243,6.441-3.429,13.457-5.777,20.217-8.6,1.647-.689,2.512-.166,2.632,1.655.239,3.62.14,6.635-3.753,8.99-5.82,3.522-10.467,8.457-12.33,15.373a21.177,21.177,0,0,0-.581,2.987c-.543,4.546.446,5.633,5.106,5.641,6.018.01,12.036-.034,18.053.011,8.016.061,13.158,5.207,13.191,13.248q.065,16.064,0,32.127c-.027,8.112-5.3,13.271-13.5,13.279q-15.605.016-31.21,0c-8.444-.007-13.67-5.285-13.67-13.788Q317.916,388.313,317.917,376.686Z" transform="translate(-317.901 -320.128)" fill="#b6b8bd"/>
</svg>
