<svg id="clock" xmlns="http://www.w3.org/2000/svg" width="14.623" height="14.623" viewBox="0 0 14.623 14.623">
  <g id="Group_1488" data-name="Group 1488">
    <path id="Path_3767" data-name="Path 3767" d="M7.311,0a7.311,7.311,0,1,0,7.311,7.311A7.319,7.319,0,0,0,7.311,0Zm0,13.024a5.713,5.713,0,1,1,5.713-5.713A5.72,5.72,0,0,1,7.311,13.024Z" fill="#fff"/>
    <path id="Path_3768" data-name="Path 3768" d="M258.028,142.939v-3.064a.619.619,0,1,0-1.239,0v3.262c0,.01,0,.019,0,.029a.616.616,0,0,0,.179.468l2.307,2.307a.619.619,0,1,0,.876-.876Z" transform="translate(-250.084 -135.619)" fill="#fff"/>
  </g>
</svg>
