<svg xmlns="http://www.w3.org/2000/svg" width="35.368" height="46.876" viewBox="0 0 35.368 46.876">
  <g id="insured" transform="translate(101.933 319.2)">
    <path id="Path_3884" data-name="Path 3884" d="M-83.881-319.2c1.592.64,3.182,1.287,4.777,1.92q5.689,2.258,11.383,4.505a1.521,1.521,0,0,1,1.155,1.614c0,7.138.008,14.277-.015,21.415a10.57,10.57,0,0,1-2.115,5.94,26.436,26.436,0,0,1-6.352,6.269,48.96,48.96,0,0,1-8.81,5.174c-.011.005-.016.025-.023.039h-.732c-1.9-1.028-3.835-1.99-5.683-3.1a33.1,33.1,0,0,1-8.37-6.888,12.857,12.857,0,0,1-3.1-6.028,11.227,11.227,0,0,1-.161-1.955q-.018-10.319-.01-20.638a1.621,1.621,0,0,1,1.289-1.888l15.885-6.287a.9.9,0,0,0,.146-.093Zm-1.832,43.054v-.607q0-4.165,0-8.331A1.476,1.476,0,0,1-84.7-286.6a1.466,1.466,0,0,1,1.917,1.514c.007,2.808,0,5.615,0,8.422v.518A45.878,45.878,0,0,0-75.12-281.2a20.1,20.1,0,0,0,4.1-4.4,8.253,8.253,0,0,0,1.527-4.615q-.02-9.818,0-19.637a.566.566,0,0,0-.417-.634q-5.317-2.086-10.623-4.2c-.732-.29-1.466-.573-2.253-.88v.554q0,4.3,0,8.605a1.468,1.468,0,0,1-.993,1.487,1.467,1.467,0,0,1-1.933-1.493c-.007-2.869,0-5.737,0-8.606v-.529c-.135.041-.221.062-.3.094q-6.331,2.5-12.664,5c-.3.117-.326.29-.326.554q.008,9.819.011,19.637a7.6,7.6,0,0,0,.151,1.542,10.98,10.98,0,0,0,2.915,5.1,35.513,35.513,0,0,0,8.416,6.478C-86.94-276.81-86.351-276.5-85.713-276.146Z" fill="#f92524"/>
    <path id="Path_3885" data-name="Path 3885" d="M-7.5-169.551c-.865,0-1.67,0-2.474,0-1.022,0-1.415-.391-1.417-1.407q0-2.036,0-4.073c0-.972.417-1.383,1.4-1.386.806,0,1.612,0,2.489,0,0-.3,0-.567,0-.835,0-.595-.008-1.19.008-1.785A1.132,1.132,0,0,1-6.218-180.3q2.151-.016,4.3,0A1.128,1.128,0,0,1-.642-179.03c.016.851,0,1.7,0,2.612H1.777c1.094,0,1.476.386,1.476,1.491,0,1.342.005,2.685,0,4.027,0,.933-.41,1.341-1.336,1.348-.835.007-1.67,0-2.548,0,0,.476,0,.9,0,1.324,0,.442.011.885-.007,1.327-.034.809-.414,1.227-1.213,1.241q-2.219.04-4.439,0c-.81-.014-1.2-.45-1.209-1.29S-7.5-168.649-7.5-169.551Zm2.269-8.523c-.027.052-.052.078-.052.1q-.012,1.144-.018,2.288c-.006,1.086-.377,1.461-1.452,1.462h-2.4v2.472c.89,0,1.744,0,2.6,0a1.116,1.116,0,0,1,1.148.666,2.166,2.166,0,0,1,.105.762c.012.8,0,1.61,0,2.442h2.4c.029-.055.056-.081.056-.108.007-.778.011-1.556.016-2.334.008-1.043.4-1.429,1.445-1.43q1.2,0,2.412,0v-2.472c-.9,0-1.771.006-2.639,0a1.09,1.09,0,0,1-1.142-.737,2.943,2.943,0,0,1-.073-.725c-.009-.788,0-1.577,0-2.39Z" transform="translate(-80.176 -123.002)" fill="#f92524"/>
  </g>
</svg>
