<svg xmlns="http://www.w3.org/2000/svg" width="215" height="52.953" viewBox="0 0 215 52.953">
  <g id="Logo2" transform="translate(-375 -40)">
    <g id="Group_23" data-name="Group 23" transform="translate(-1.055 -293.179)">
      <path id="Path_29" data-name="Path 29" d="M399.993,342.622l9.443-9.443,9.444,9.443-4.388,4.389-5.055-5.054-5.054,5.055Zm0,34.067,9.443,9.444,9.444-9.444-4.39-4.388-5.054,5.053-5.054-5.054Zm4.388-11.834,5.053-5.052-5.054-5.054-5.053,5.053Zm10.107,0,5.054-5.054-5.053-5.054-5.055,5.055Z" transform="translate(-5.719)" fill="#03a7d3"/>
      <path id="Path_30" data-name="Path 30" d="M376.055,363.73l13.832-13.83,4.387,4.388-9.441,9.442,9.442,9.443-4.388,4.389Zm46.547,0-9.442,9.443,4.387,4.389,13.832-13.832-13.83-13.83-4.388,4.388Zm-18.884-4.458,5.054-5.055-5.054-5.054-5.054,5.054Zm0,18.256,5.054-5.054-5.054-5.054-5.054,5.054Z" transform="translate(0 -3.928)" fill="#03a7d3"/>
    </g>
    <text id="GUMHOST" transform="translate(442 78)" fill="#03a7d3" font-size="30" font-family="SegoeUI-Bold, Segoe UI" font-weight="700"><tspan x="0" y="0">GUM</tspan><tspan y="0" font-family="SegoeUI, Segoe UI" font-weight="400">HOST</tspan></text>
  </g>
</svg>
