<svg id="_2760250-ai" data-name="2760250-ai" xmlns="http://www.w3.org/2000/svg" xmlns:xlink="http://www.w3.org/1999/xlink" width="532.271" height="485.074" viewBox="0 0 532.271 485.074">
  <defs>
    <style>
      .cls-1, .cls-46 {
        opacity: 0.2;
      }

      .cls-2 {
        fill: url(#linear-gradient);
      }

      .cls-3 {
        fill: url(#linear-gradient-2);
      }

      .cls-4 {
        fill: url(#linear-gradient-3);
      }

      .cls-5 {
        fill: url(#linear-gradient-4);
      }

      .cls-6 {
        fill: url(#linear-gradient-5);
      }

      .cls-7 {
        fill: url(#linear-gradient-6);
      }

      .cls-8 {
        fill: url(#linear-gradient-7);
      }

      .cls-44, .cls-9 {
        fill: none;
        stroke: #fff;
        stroke-linejoin: round;
      }

      .cls-9 {
        stroke-width: 3px;
      }

      .cls-10, .cls-33, .cls-43, .cls-45 {
        opacity: 0.3;
      }

      .cls-11, .cls-33, .cls-45, .cls-46 {
        fill: #fff;
      }

      .cls-12, .cls-20, .cls-33, .cls-34, .cls-54, .cls-59 {
        fill-rule: evenodd;
      }

      .cls-12 {
        fill: url(#linear-gradient-8);
      }

      .cls-13 {
        fill: url(#linear-gradient-9);
      }

      .cls-14 {
        fill: url(#linear-gradient-10);
      }

      .cls-15 {
        fill: url(#linear-gradient-11);
      }

      .cls-16, .cls-27, .cls-29 {
        opacity: 0.5;
      }

      .cls-17 {
        fill: url(#linear-gradient-12);
      }

      .cls-18 {
        fill: url(#linear-gradient-13);
      }

      .cls-19 {
        fill: url(#linear-gradient-14);
      }

      .cls-20 {
        fill: url(#linear-gradient-15);
      }

      .cls-21 {
        fill: #050a2d;
      }

      .cls-22 {
        fill: url(#linear-gradient-16);
      }

      .cls-23 {
        fill: url(#linear-gradient-17);
      }

      .cls-24 {
        fill: url(#linear-gradient-18);
      }

      .cls-25 {
        fill: url(#linear-gradient-19);
      }

      .cls-26 {
        fill: url(#linear-gradient-20);
      }

      .cls-27 {
        fill: url(#linear-gradient-21);
      }

      .cls-28 {
        fill: url(#linear-gradient-22);
      }

      .cls-29 {
        fill: url(#linear-gradient-23);
      }

      .cls-30 {
        fill: url(#linear-gradient-24);
      }

      .cls-31 {
        fill: url(#linear-gradient-25);
      }

      .cls-32 {
        fill: url(#linear-gradient-27);
      }

      .cls-34 {
        fill: url(#linear-gradient-28);
      }

      .cls-35 {
        fill: url(#linear-gradient-29);
      }

      .cls-36 {
        fill: url(#linear-gradient-30);
      }

      .cls-37 {
        fill: url(#linear-gradient-31);
      }

      .cls-38 {
        opacity: 0.7;
      }

      .cls-39 {
        fill: url(#linear-gradient-32);
      }

      .cls-40 {
        fill: #5fc6ff;
      }

      .cls-41 {
        fill: url(#linear-gradient-33);
      }

      .cls-42, .cls-43 {
        fill: #80e4ff;
      }

      .cls-44 {
        stroke-width: 1.5px;
      }

      .cls-47 {
        fill: url(#linear-gradient-34);
      }

      .cls-48 {
        fill: url(#linear-gradient-35);
      }

      .cls-49 {
        fill: url(#linear-gradient-36);
      }

      .cls-50 {
        fill: url(#linear-gradient-37);
      }

      .cls-51 {
        fill: url(#linear-gradient-38);
      }

      .cls-52 {
        fill: url(#linear-gradient-39);
      }

      .cls-53 {
        fill: url(#linear-gradient-40);
      }

      .cls-54 {
        fill: url(#linear-gradient-41);
      }

      .cls-55 {
        fill: url(#linear-gradient-42);
      }

      .cls-56 {
        fill: url(#linear-gradient-43);
      }

      .cls-57 {
        fill: url(#linear-gradient-44);
      }

      .cls-58 {
        fill: url(#linear-gradient-45);
      }

      .cls-59 {
        fill: url(#linear-gradient-46);
      }
    </style>
    <linearGradient id="linear-gradient" x1="0.995" y1="-0.025" x2="0.005" y2="-0.025" gradientUnits="objectBoundingBox">
      <stop offset="0" stop-color="#2c61b4"/>
      <stop offset="1" stop-color="#3d90ce"/>
    </linearGradient>
    <linearGradient id="linear-gradient-2" x1="0.995" y1="-0.065" x2="0.004" y2="-0.065" xlink:href="#linear-gradient"/>
    <linearGradient id="linear-gradient-3" x1="1" y1="-0.027" x2="0" y2="-0.027" xlink:href="#linear-gradient"/>
    <linearGradient id="linear-gradient-4" x1="1.033" y1="1.032" x2="1.421" y2="0.436" xlink:href="#linear-gradient"/>
    <linearGradient id="linear-gradient-5" x1="1.033" y1="1.032" x2="1.422" y2="0.435" xlink:href="#linear-gradient"/>
    <linearGradient id="linear-gradient-6" x1="1.033" y1="1.032" x2="1.422" y2="0.436" xlink:href="#linear-gradient"/>
    <linearGradient id="linear-gradient-7" x1="1.013" y1="1.025" x2="1.401" y2="0.429" xlink:href="#linear-gradient"/>
    <linearGradient id="linear-gradient-8" x1="0.672" y1="-0.576" x2="1.115" y2="0.777" xlink:href="#linear-gradient"/>
    <linearGradient id="linear-gradient-9" x1="1.037" y1="0.527" x2="0.519" y2="-0.425" gradientUnits="objectBoundingBox">
      <stop offset="0" stop-color="#13287b"/>
      <stop offset="1" stop-color="#1c41a2"/>
    </linearGradient>
    <linearGradient id="linear-gradient-10" x1="1.102" y1="0.636" x2="0.759" y2="-0.331" gradientUnits="objectBoundingBox">
      <stop offset="0" stop-color="#eb2c45"/>
      <stop offset="1" stop-color="#ff8873"/>
    </linearGradient>
    <linearGradient id="linear-gradient-11" x1="0.5" y1="1" x2="0.5" gradientUnits="objectBoundingBox">
      <stop offset="0" stop-color="#ff4b70"/>
      <stop offset="1" stop-color="#ffcb7a"/>
    </linearGradient>
    <linearGradient id="linear-gradient-12" x1="1.015" y1="0.322" x2="0.605" y2="-0.377" gradientUnits="objectBoundingBox">
      <stop offset="0" stop-color="#392479" stop-opacity="0.502"/>
      <stop offset="1" stop-color="#295ab0"/>
    </linearGradient>
    <linearGradient id="linear-gradient-13" x1="0.739" y1="1.328" x2="1.027" y2="0.274" gradientUnits="objectBoundingBox">
      <stop offset="0" stop-color="#151b49"/>
      <stop offset="1" stop-color="#152365"/>
    </linearGradient>
    <linearGradient id="linear-gradient-14" x1="0.741" y1="1.333" x2="1.029" y2="0.278" xlink:href="#linear-gradient-9"/>
    <linearGradient id="linear-gradient-15" x1="1.088" y1="0.605" x2="0.06" y2="-0.15" gradientUnits="objectBoundingBox">
      <stop offset="0" stop-color="#13287b"/>
      <stop offset="1" stop-color="#122784"/>
    </linearGradient>
    <linearGradient id="linear-gradient-16" x1="0.668" y1="1.507" x2="1.176" y2="0.213" gradientUnits="objectBoundingBox">
      <stop offset="0" stop-color="#15256f"/>
      <stop offset="1" stop-color="#1a47a5"/>
    </linearGradient>
    <linearGradient id="linear-gradient-17" x1="0.617" y1="1.503" x2="1.124" y2="0.157" xlink:href="#linear-gradient-16"/>
    <linearGradient id="linear-gradient-18" x1="0.616" y1="1.505" x2="1.123" y2="0.159" xlink:href="#linear-gradient-16"/>
    <linearGradient id="linear-gradient-19" x1="1.007" y1="1" x2="1.007" gradientUnits="objectBoundingBox">
      <stop offset="0" stop-color="#5097d1"/>
      <stop offset="1" stop-color="#5bd0db"/>
    </linearGradient>
    <linearGradient id="linear-gradient-20" x1="0.383" y1="1.491" x2="-0.124" y2="0.144" gradientUnits="objectBoundingBox">
      <stop offset="0" stop-color="#16215d"/>
      <stop offset="1" stop-color="#122c7f"/>
    </linearGradient>
    <linearGradient id="linear-gradient-21" x1="-0.084" y1="-0.109" x2="-0.141" y2="0.044" xlink:href="#linear-gradient-20"/>
    <linearGradient id="linear-gradient-22" x1="1.002" y1="0.476" x2="0.942" y2="-0.24" gradientUnits="objectBoundingBox">
      <stop offset="0" stop-color="#fff" stop-opacity="0.302"/>
      <stop offset="1" stop-color="#fff" stop-opacity="0.102"/>
    </linearGradient>
    <linearGradient id="linear-gradient-23" x1="1.012" y1="0.114" x2="0.989" y2="-0.376" xlink:href="#linear-gradient-22"/>
    <linearGradient id="linear-gradient-24" x1="1.018" y1="0.747" x2="0.635" y2="-0.397" gradientUnits="objectBoundingBox">
      <stop offset="0" stop-color="#fff" stop-opacity="0.502"/>
      <stop offset="1" stop-color="#fff" stop-opacity="0.2"/>
    </linearGradient>
    <linearGradient id="linear-gradient-25" x1="0.996" y1="-0.068" x2="0.005" y2="-0.068" xlink:href="#linear-gradient-24"/>
    <linearGradient id="linear-gradient-27" x1="0.996" y1="-0.068" x2="0.005" y2="-0.068" xlink:href="#linear-gradient-24"/>
    <linearGradient id="linear-gradient-28" x1="0.999" y1="-0.229" x2="0" y2="-0.229" xlink:href="#linear-gradient"/>
    <linearGradient id="linear-gradient-29" x1="1.187" y1="0.658" x2="0.617" y2="-0.324" xlink:href="#linear-gradient-10"/>
    <linearGradient id="linear-gradient-30" x1="1.191" y1="0.679" x2="0.626" y2="-0.26" xlink:href="#linear-gradient-11"/>
    <linearGradient id="linear-gradient-31" x1="1.016" y1="1.006" x2="1.262" y2="0.519" gradientUnits="objectBoundingBox">
      <stop offset="0" stop-color="#fd4570" stop-opacity="0.6"/>
      <stop offset="1" stop-color="#83dce6" stop-opacity="0.102"/>
    </linearGradient>
    <linearGradient id="linear-gradient-32" x1="1.133" y1="1.059" x2="1.606" y2="0.427" xlink:href="#linear-gradient"/>
    <linearGradient id="linear-gradient-33" x1="1.021" y1="1.02" x2="1.135" y2="0.694" xlink:href="#linear-gradient"/>
    <linearGradient id="linear-gradient-34" x1="0.999" y1="1.017" x2="1.221" y2="0.539" xlink:href="#linear-gradient-31"/>
    <linearGradient id="linear-gradient-35" x1="1.135" y1="1.059" x2="1.604" y2="0.427" xlink:href="#linear-gradient"/>
    <linearGradient id="linear-gradient-36" x1="1.021" y1="1.02" x2="1.134" y2="0.694" xlink:href="#linear-gradient"/>
    <linearGradient id="linear-gradient-37" x1="1.015" y1="1.006" x2="1.262" y2="0.519" xlink:href="#linear-gradient-31"/>
    <linearGradient id="linear-gradient-38" x1="1.134" y1="1.06" x2="1.606" y2="0.427" xlink:href="#linear-gradient"/>
    <linearGradient id="linear-gradient-39" x1="1.021" y1="1.02" x2="1.135" y2="0.694" xlink:href="#linear-gradient"/>
    <linearGradient id="linear-gradient-40" x1="1.058" y1="0.613" x2="0.722" y2="-0.391" xlink:href="#linear-gradient-9"/>
    <linearGradient id="linear-gradient-41" x1="1.091" y1="0.662" x2="0.753" y2="-0.27" xlink:href="#linear-gradient-10"/>
    <linearGradient id="linear-gradient-42" x1="1.08" y1="0.794" x2="0.592" y2="-0.539" gradientUnits="objectBoundingBox">
      <stop offset="0" stop-color="#eb2c45"/>
      <stop offset="1" stop-color="#ff6263"/>
    </linearGradient>
    <linearGradient id="linear-gradient-43" x1="1.408" y1="0.584" x2="0.897" y2="-0.267" xlink:href="#linear-gradient-42"/>
    <linearGradient id="linear-gradient-44" x1="1.647" y1="0.503" x2="1.073" y2="-0.821" xlink:href="#linear-gradient-42"/>
    <linearGradient id="linear-gradient-45" x1="1.058" y1="0.614" x2="0.722" y2="-0.39" xlink:href="#linear-gradient-11"/>
    <linearGradient id="linear-gradient-46" x1="0.63" y1="-0.534" x2="1.074" y2="0.818" xlink:href="#linear-gradient"/>
  </defs>
  <g id="OBJECTS" transform="translate(0)">
    <g id="_Group_" data-name="&lt;Group&gt;">
      <g id="_Group_2" data-name="&lt;Group&gt;" transform="translate(167.876)">
        <g id="_Group_3" data-name="&lt;Group&gt;" class="cls-1" transform="translate(148.216 376.38)">
          <path id="_Path_" data-name="&lt;Path&gt;" class="cls-2" d="M303.989,1066.577l-77.3,44.629a4.873,4.873,0,0,0,0,8.441l77.137,44.535a15.763,15.763,0,0,0,15.764,0l77.3-44.629a4.873,4.873,0,0,0,0-8.441l-77.137-44.535A15.762,15.762,0,0,0,303.989,1066.577Z" transform="translate(-224.257 -1064.465)"/>
        </g>
        <g id="_Group_4" data-name="&lt;Group&gt;" class="cls-1" transform="translate(286.934 313.646)">
          <path id="_Path_2" data-name="&lt;Path&gt;" class="cls-3" d="M184,918.7,154.62,935.66a1.852,1.852,0,0,0,0,3.21L183.944,955.8a5.994,5.994,0,0,0,5.992,0l29.383-16.962a1.852,1.852,0,0,0,0-3.21L190,918.7A5.994,5.994,0,0,0,184,918.7Z" transform="translate(-153.693 -917.895)"/>
        </g>
        <g id="_Group_5" data-name="&lt;Group&gt;" class="cls-1" transform="translate(110.436 6.344)">
          <path id="_Path_3" data-name="&lt;Path&gt;" class="cls-4" d="M502.7,205v28.724a14.419,14.419,0,0,0,7.2,12.481l78.866,45.532a5.067,5.067,0,0,0,7.6-4.387V258.625a14.419,14.419,0,0,0-7.2-12.481L510.3,200.612A5.068,5.068,0,0,0,502.7,205Z" transform="translate(-502.7 -199.925)"/>
        </g>
        <g id="_Group_6" data-name="&lt;Group&gt;" class="cls-1" transform="translate(258.846 184.342)">
          <path id="_Path_4" data-name="&lt;Path&gt;" class="cls-5" d="M282,620.093v24.363a12.219,12.219,0,0,0,6.112,10.585l27.166,15.687a4.3,4.3,0,0,0,6.446-3.719V642.645a12.219,12.219,0,0,0-6.112-10.585l-27.166-15.687A4.3,4.3,0,0,0,282,620.093Z" transform="translate(-282 -615.792)"/>
        </g>
        <g id="_Group_7" data-name="&lt;Group&gt;" class="cls-1" transform="translate(0 11.026)">
          <path id="_Path_5" data-name="&lt;Path&gt;" class="cls-6" d="M886.76,215.163v24.363a12.22,12.22,0,0,0,6.112,10.585L920.038,265.8a4.3,4.3,0,0,0,6.446-3.719V237.715a12.219,12.219,0,0,0-6.112-10.585l-27.166-15.687A4.3,4.3,0,0,0,886.76,215.163Z" transform="translate(-886.76 -210.862)"/>
        </g>
        <g id="_Group_8" data-name="&lt;Group&gt;" class="cls-1" transform="translate(193.758)">
          <path id="_Path_6" data-name="&lt;Path&gt;" class="cls-7" d="M434.07,189.4v24.367a12.219,12.219,0,0,0,6.112,10.585l27.166,15.687a4.3,4.3,0,0,0,6.446-3.719V211.955a12.219,12.219,0,0,0-6.112-10.585l-27.166-15.687a4.3,4.3,0,0,0-6.446,3.719Z" transform="translate(-434.07 -185.102)"/>
        </g>
        <g id="_Group_9" data-name="&lt;Group&gt;" class="cls-1" transform="translate(303.805 142.916)">
          <path id="_Path_7" data-name="&lt;Path&gt;" class="cls-8" d="M128.21,525.574v37.165a18.64,18.64,0,0,0,9.322,16.145L178.968,602.8a6.554,6.554,0,0,0,9.832-5.675V559.965a18.64,18.64,0,0,0-9.322-16.145l-41.436-23.926a6.554,6.554,0,0,0-9.831,5.675Z" transform="translate(-128.21 -519.007)"/>
        </g>
      </g>
      <g id="_Group_10" data-name="&lt;Group&gt;" transform="translate(276.676 379.025)">
        <g id="_Group_11" data-name="&lt;Group&gt;">
          <path id="_Path_8" data-name="&lt;Path&gt;" class="cls-9" d="M396.079,1072.753l-77.3,44.629a4.873,4.873,0,0,0,0,8.44l77.137,44.535a15.762,15.762,0,0,0,15.764,0l77.3-44.625a4.873,4.873,0,0,0,0-8.441l-77.137-44.535a15.762,15.762,0,0,0-15.764,0Z" transform="translate(-316.348 -1070.645)"/>
        </g>
        <g id="_Group_12" data-name="&lt;Group&gt;" class="cls-10" transform="translate(40.898 23.155)">
          <path id="_Path_9" data-name="&lt;Path&gt;" class="cls-11" d="M426.511,1133.8l73.225,42.211a1.242,1.242,0,0,0,1.113,0l.171-.1a.339.339,0,0,0,0-.642L427.8,1133.064a1.242,1.242,0,0,0-1.113,0l-.171.1A.339.339,0,0,0,426.511,1133.8Z" transform="translate(-414.133 -1129.427)"/>
          <path id="_Path_10" data-name="&lt;Path&gt;" class="cls-11" d="M440.7,1142l73.225,42.211a1.242,1.242,0,0,0,1.113,0l.171-.1a.338.338,0,0,0,0-.642l-73.225-42.211a1.242,1.242,0,0,0-1.113,0l-.171.1A.339.339,0,0,0,440.7,1142Z" transform="translate(-434.397 -1134.117)"/>
          <path id="_Path_11" data-name="&lt;Path&gt;" class="cls-11" d="M454.891,1150.195l73.225,42.211a1.242,1.242,0,0,0,1.113,0l.171-.1a.338.338,0,0,0,0-.642l-73.225-42.211a1.242,1.242,0,0,0-1.113,0l-.171.1A.339.339,0,0,0,454.891,1150.195Z" transform="translate(-454.66 -1138.802)"/>
          <path id="_Path_12" data-name="&lt;Path&gt;" class="cls-11" d="M469.071,1221.475l26.349,15.212a1.242,1.242,0,0,0,1.113,0l.171-.1a.339.339,0,0,0,0-.642l-26.349-15.212a1.242,1.242,0,0,0-1.113,0l-.171.1A.338.338,0,0,0,469.071,1221.475Z" transform="translate(-428.033 -1179.573)"/>
          <path id="_Path_13" data-name="&lt;Path&gt;" class="cls-11" d="M483.261,1229.665l26.349,15.212a1.242,1.242,0,0,0,1.113,0l.171-.1a.338.338,0,0,0,0-.642l-26.349-15.212a1.242,1.242,0,0,0-1.113,0l-.171.1A.338.338,0,0,0,483.261,1229.665Z" transform="translate(-448.297 -1184.258)"/>
          <path id="_Path_14" data-name="&lt;Path&gt;" class="cls-11" d="M497.451,1237.854l26.349,15.212a1.242,1.242,0,0,0,1.113,0l.171-.1a.338.338,0,0,0,0-.642l-26.349-15.212a1.242,1.242,0,0,0-1.113,0l-.171.1A.338.338,0,0,0,497.451,1237.854Z" transform="translate(-468.56 -1188.942)"/>
          <path id="_Path_15" data-name="&lt;Path&gt;" class="cls-11" d="M511.641,1246.045l26.349,15.212a1.242,1.242,0,0,0,1.113,0l.171-.1a.338.338,0,0,0,0-.642L512.925,1245.3a1.242,1.242,0,0,0-1.113,0l-.171.1A.339.339,0,0,0,511.641,1246.045Z" transform="translate(-488.824 -1193.626)"/>
          <path id="_Path_16" data-name="&lt;Path&gt;" class="cls-11" d="M486.83,1167.085l-73.225-42.211a1.242,1.242,0,0,0-1.113,0l-.171.1a.338.338,0,0,0,0,.642l73.225,42.211a1.242,1.242,0,0,0,1.113,0l.171-.1A.338.338,0,0,0,486.83,1167.085Z" transform="translate(-393.869 -1124.742)"/>
        </g>
      </g>
      <g id="_Group_13" data-name="&lt;Group&gt;" transform="translate(154.013 183.614)">
        <path id="_Path_17" data-name="&lt;Path&gt;" class="cls-9" d="M934.711,627.775l-17.33-10.007a27.437,27.437,0,0,0-27.436,0l-2.029,1.173a8.011,8.011,0,0,0,0,13.876l1.815,1.049-4.674,2.7,11.021.967,9.168,5.294a27.437,27.437,0,0,0,27.436,0l2.029-1.173A8.011,8.011,0,0,0,934.711,627.775Z" transform="translate(-883.91 -614.092)"/>
        <path id="_Compound_Path_" data-name="&lt;Compound Path&gt;" class="cls-12" d="M925.854,640.531a5.27,5.27,0,0,0,4.734.2c1.211-.7,1.061-1.922-.338-2.731a5.27,5.27,0,0,0-4.734-.2C924.3,638.5,924.455,639.722,925.854,640.531Zm7.794,4.391a5.27,5.27,0,0,0,4.734.2c1.211-.7,1.062-1.922-.338-2.731a5.27,5.27,0,0,0-4.734-.2C932.1,642.893,932.249,644.113,933.648,644.922Zm7.794,4.391a5.27,5.27,0,0,0,4.734.2c1.211-.7,1.062-1.922-.338-2.731a5.27,5.27,0,0,0-4.734-.2C939.893,647.285,940.043,648.5,941.443,649.314Z" transform="translate(-909.645 -627.383)"/>
      </g>
      <g id="_Group_14" data-name="&lt;Group&gt;" transform="translate(14.266 262.408)">
        <g id="_Group_15" data-name="&lt;Group&gt;" transform="translate(0.003 22.723)">
          <g id="_Group_16" data-name="&lt;Group&gt;">
            <path id="_Compound_Path_2" data-name="&lt;Compound Path&gt;" class="cls-13" d="M1199.045,876.2c9.125,9.125,28.189,13.4,42.583,9.54s18.666-14.381,9.541-23.507-28.189-13.4-42.583-9.54S1189.92,867.074,1199.045,876.2Z" transform="translate(-1194.245 -851.274)"/>
          </g>
        </g>
        <g id="_Group_17" data-name="&lt;Group&gt;">
          <path id="_Compound_Path_3" data-name="&lt;Compound Path&gt;" class="cls-14" d="M1194.276,817.446c.03,2.521.026,4.331-.009,5.444-.1,3.326,1.447,6.865,4.794,10.212,9.125,9.125,28.189,13.4,42.583,9.54,9.468-2.538,14.557-7.957,14.33-13.966q-.115-3.127-.026-5.787-12.981-11.621-25.411-15.721c-8.539-2.821-16.076.86-21.936,2.431q-6.465,1.733-14.325,7.85Z" transform="translate(-1194.263 -802.733)"/>
          <path id="_Compound_Path_4" data-name="&lt;Compound Path&gt;" class="cls-15" d="M1199.045,823.11c9.125,9.125,28.189,13.4,42.583,9.54s18.666-14.381,9.541-23.507-28.189-13.4-42.583-9.54S1189.92,813.984,1199.045,823.11Z" transform="translate(-1194.243 -798.184)"/>
        </g>
      </g>
      <g id="_Group_18" data-name="&lt;Group&gt;" transform="translate(41.904 173.559)">
        <g id="_Group_19" data-name="&lt;Group&gt;" class="cls-16" transform="translate(0.004 38.778)">
          <path id="_Path_18" data-name="&lt;Path&gt;" class="cls-17" d="M477.965,913.873,726.115,770.6a12.046,12.046,0,0,0,0-20.866c-28.347-16.367-82.9-47.865-110.723-63.924a34.463,34.463,0,0,0-34.459,0L332.787,829.088a12.045,12.045,0,0,0,0,20.866L443.5,913.873A34.471,34.471,0,0,0,477.965,913.873Z" transform="translate(-326.761 -681.2)"/>
        </g>
        <g id="_Group_20" data-name="&lt;Group&gt;" transform="translate(0 11.706)">
          <path id="_Path_19" data-name="&lt;Path&gt;" class="cls-18" d="M477.968,850.623l248.15-143.269a11.943,11.943,0,0,0,6.026-10.435V685.76q-88.927-47.137-116.745-63.2a34.463,34.463,0,0,0-34.459,0L326.763,764.793q-.007,7.435,0,11.5a11.935,11.935,0,0,0,6.022,10.409L443.5,850.623a34.471,34.471,0,0,0,34.464,0Z" transform="translate(-326.76 -617.95)"/>
        </g>
        <g id="_Group_21" data-name="&lt;Group&gt;" transform="translate(0.004)">
          <path id="_Path_20" data-name="&lt;Path&gt;" class="cls-19" d="M477.965,823.273,726.115,680a12.046,12.046,0,0,0,0-20.866c-28.347-16.367-82.9-47.865-110.723-63.924a34.463,34.463,0,0,0-34.459,0L332.787,738.488a12.045,12.045,0,0,0,0,20.866L443.5,823.273A34.471,34.471,0,0,0,477.965,823.273Z" transform="translate(-326.761 -590.6)"/>
        </g>
        <g id="_Group_22" data-name="&lt;Group&gt;" transform="translate(306.648 26.979)">
          <g id="_Group_23" data-name="&lt;Group&gt;">
            <path id="_Compound_Path_5" data-name="&lt;Compound Path&gt;" class="cls-20" d="M513.212,671.519a2.4,2.4,0,0,0-.749-.633l-22.929-13.157a2.947,2.947,0,0,0-2.945-.141c-.629.492-.33,1.352.668,1.918l22.929,13.157a2.947,2.947,0,0,0,2.945.141.859.859,0,0,0,.081-1.288ZM481.188,653.9a1.088,1.088,0,0,0-.342,1.729,1.81,1.81,0,0,0,2.166.206,1.088,1.088,0,0,0,.342-1.729A1.81,1.81,0,0,0,481.188,653.9Z" transform="translate(-480.548 -653.634)"/>
          </g>
        </g>
        <g id="_Group_24" data-name="&lt;Group&gt;" transform="translate(313.414 106.65)">
          <g id="_Group_25" data-name="&lt;Group&gt;" transform="translate(0)">
            <g id="_Group_26" data-name="&lt;Group&gt;" transform="translate(49.089)">
              <g id="_Group_27" data-name="&lt;Group&gt;">
                <path id="_Path_21" data-name="&lt;Path&gt;" class="cls-21" d="M393.6,849.817a2.433,2.433,0,0,0,.925-.334l11.12-6.506a2.943,2.943,0,0,0,1.6-2.478c-.111-.792-1.006-.963-1.995-.381l-11.12,6.506a2.943,2.943,0,0,0-1.6,2.478.862.862,0,0,0,1.074.715Z" transform="translate(-392.523 -839.773)"/>
              </g>
            </g>
            <g id="_Group_28" data-name="&lt;Group&gt;" transform="translate(24.388 10.73)">
              <g id="_Group_29" data-name="&lt;Group&gt;">
                <path id="_Path_22" data-name="&lt;Path&gt;" class="cls-21" d="M436.425,878.594a2.435,2.435,0,0,0,.925-.334l17.493-10.213a2.943,2.943,0,0,0,1.6-2.478c-.111-.792-1.006-.963-1.995-.381L436.951,875.4a2.943,2.943,0,0,0-1.6,2.478.862.862,0,0,0,1.074.715Z" transform="translate(-435.343 -864.843)"/>
              </g>
            </g>
            <g id="_Group_30" data-name="&lt;Group&gt;" transform="translate(0 24.829)">
              <g id="_Group_31" data-name="&lt;Group&gt;">
                <path id="_Path_23" data-name="&lt;Path&gt;" class="cls-21" d="M493.4,911.534a2.435,2.435,0,0,0,.924-.334l17.493-10.212a2.943,2.943,0,0,0,1.6-2.478c-.111-.792-1.006-.963-1.995-.381l-17.493,10.212a2.943,2.943,0,0,0-1.6,2.478.862.862,0,0,0,1.074.715Z" transform="translate(-492.323 -897.783)"/>
              </g>
            </g>
          </g>
          <g id="_Group_32" data-name="&lt;Group&gt;" transform="translate(50.095 0.137)">
            <g id="_Group_33" data-name="&lt;Group&gt;">
              <path id="_Path_24" data-name="&lt;Path&gt;" class="cls-22" d="M391.249,850.137a2.435,2.435,0,0,0,.924-.334l11.12-6.506a2.943,2.943,0,0,0,1.6-2.478c-.111-.792-1.006-.963-2-.381l-11.12,6.506a2.943,2.943,0,0,0-1.6,2.478A.862.862,0,0,0,391.249,850.137Z" transform="translate(-390.163 -840.093)"/>
            </g>
          </g>
          <g id="_Group_34" data-name="&lt;Group&gt;" transform="translate(25.394 10.867)">
            <g id="_Group_35" data-name="&lt;Group&gt;">
              <path id="_Path_25" data-name="&lt;Path&gt;" class="cls-23" d="M434.075,878.914a2.433,2.433,0,0,0,.925-.334l17.493-10.212a2.943,2.943,0,0,0,1.6-2.478c-.111-.792-1.006-.963-1.995-.381L434.6,875.721A2.943,2.943,0,0,0,433,878.2a.862.862,0,0,0,1.074.715Z" transform="translate(-432.993 -865.163)"/>
            </g>
          </g>
          <g id="_Group_36" data-name="&lt;Group&gt;" transform="translate(1.006 24.966)">
            <g id="_Group_37" data-name="&lt;Group&gt;">
              <path id="_Path_26" data-name="&lt;Path&gt;" class="cls-24" d="M491.055,911.854a2.434,2.434,0,0,0,.924-.334l17.493-10.212a2.943,2.943,0,0,0,1.6-2.478c-.111-.792-1.006-.963-1.995-.381l-17.493,10.213a2.943,2.943,0,0,0-1.6,2.478.862.862,0,0,0,1.074.715Z" transform="translate(-489.973 -898.103)"/>
            </g>
          </g>
        </g>
        <g id="_Group_38" data-name="&lt;Group&gt;" transform="translate(6.539 6.527)">
          <path id="_Path_27" data-name="&lt;Path&gt;" class="cls-25" d="M342.03,757.641a5.422,5.422,0,0,0,2.756,4.777L455.5,826.338a27.941,27.941,0,0,0,27.932,0l248.15-143.269a5.513,5.513,0,0,0,0-9.549l-32.272-18.631a9.915,9.915,0,0,0-9.917,0c-.967.556-1.913,1.1-2.816,1.626a7.807,7.807,0,0,1-7.82,0L630.067,628.4a2.3,2.3,0,0,1,0-3.985l4.43-2.555a2.539,2.539,0,0,0,0-4.4l-13.637-7.871a27.925,27.925,0,0,0-27.924,0L344.786,752.86a5.42,5.42,0,0,0-2.756,4.772Z" transform="translate(-342.03 -605.85)"/>
        </g>
        <g id="_Group_39" data-name="&lt;Group&gt;" transform="translate(45.545 196.396)">
          <g id="_Group_40" data-name="&lt;Group&gt;" transform="translate(0)">
            <g id="_Group_41" data-name="&lt;Group&gt;">
              <path id="_Path_28" data-name="&lt;Path&gt;" class="cls-26" d="M1118.175,1050.18a2.943,2.943,0,0,0,1.6,2.478l17.493,10.212c.993.582,1.888.411,1.995-.381a2.943,2.943,0,0,0-1.6-2.478l-17.493-10.212a2.411,2.411,0,0,0-.924-.334.861.861,0,0,0-1.074.715Z" transform="translate(-1118.163 -1049.454)"/>
            </g>
          </g>
          <path id="_Path_29" data-name="&lt;Path&gt;" class="cls-27" d="M1119.878,1052.679l17.493,10.212c.933.548,1.772.419,1.96-.257a2.053,2.053,0,0,1-1.263-.33l-17.493-10.212a2.943,2.943,0,0,1-1.6-2.478,1.092,1.092,0,0,1,.043-.124.789.789,0,0,0-.74.706,2.943,2.943,0,0,0,1.6,2.478Z" transform="translate(-1118.27 -1049.475)"/>
        </g>
        <path id="_Path_30" data-name="&lt;Path&gt;" class="cls-28" d="M688.811,668.8,664.7,654.878a9.925,9.925,0,0,0-9.917,0c-.967.556-1.913,1.1-2.816,1.626a7.807,7.807,0,0,1-7.82,0l-48.691-28.112a2.3,2.3,0,0,1,0-3.985l4.43-2.555a2.539,2.539,0,0,0,0-4.4l-13.637-7.871a27.926,27.926,0,0,0-27.924,0L367.53,719.735l321.281-50.942Z" transform="translate(-300.876 -599.317)"/>
        <path id="_Path_31" data-name="&lt;Path&gt;" class="cls-29" d="M745.408,793.7,378.839,851.824l-14.7,8.488a5.513,5.513,0,0,0,0,9.549l1.849,1.07,338.667-53.7L745.408,793.7Z" transform="translate(-354.841 -706.77)"/>
        <g id="_Group_42" data-name="&lt;Group&gt;" transform="translate(64.376 178.535)">
          <g id="_Group_43" data-name="&lt;Group&gt;" class="cls-1">
            <path id="_Path_32" data-name="&lt;Path&gt;" class="cls-11" d="M1114.042,1009.807a3.425,3.425,0,0,0,3.078.128c.788-.454.689-1.25-.223-1.776a3.424,3.424,0,0,0-3.077-.128C1113.032,1008.484,1113.13,1009.28,1114.042,1009.807Z" transform="translate(-1113.288 -1007.724)"/>
          </g>
          <g id="_Group_44" data-name="&lt;Group&gt;" class="cls-16" transform="translate(5.8 3.184)">
            <path id="_Path_33" data-name="&lt;Path&gt;" class="cls-11" d="M1100.492,1017.247a3.424,3.424,0,0,0,3.077.128c.787-.454.689-1.25-.223-1.776a3.424,3.424,0,0,0-3.077-.128C1099.482,1015.924,1099.581,1016.72,1100.492,1017.247Z" transform="translate(-1099.738 -1015.164)"/>
          </g>
          <g id="_Group_45" data-name="&lt;Group&gt;" transform="translate(11.787 6.467)">
            <path id="_Path_34" data-name="&lt;Path&gt;" class="cls-11" d="M1086.5,1024.917a3.425,3.425,0,0,0,3.078.128c.787-.454.689-1.25-.223-1.776a3.425,3.425,0,0,0-3.078-.128C1085.492,1023.594,1085.591,1024.39,1086.5,1024.917Z" transform="translate(-1085.748 -1022.834)"/>
          </g>
        </g>
        <g id="_Group_46" data-name="&lt;Group&gt;" transform="translate(133.132 66.043)">
          <path id="_Path_35" data-name="&lt;Path&gt;" class="cls-30" d="M595.242,768.5,711.7,835.733a4.864,4.864,0,0,0,4.875,0l34.678-20.018a1.687,1.687,0,0,0,0-2.923L634.795,745.555a4.864,4.864,0,0,0-4.875,0l-34.678,20.018A1.687,1.687,0,0,0,595.242,768.5Z" transform="translate(-594.397 -744.9)"/>
          <path id="_Path_36" data-name="&lt;Path&gt;" class="cls-31" d="M622.309,829.243l54.251,31.985a4.864,4.864,0,0,0,4.914.021l1.7-.98a1.69,1.69,0,0,0,.013-2.919l-54.251-31.986a4.864,4.864,0,0,0-4.914-.021l-1.7.98A1.69,1.69,0,0,0,622.309,829.243Z" transform="translate(-537.908 -790.538)"/>
          <g id="_Group_47" data-name="&lt;Group&gt;" class="cls-10" transform="translate(14.592 13.047)">
            <path id="_Path_37" data-name="&lt;Path&gt;" class="cls-11" d="M659.281,784.445,766.9,846.55a1.242,1.242,0,0,0,1.113,0l.171-.1a.338.338,0,0,0,0-.642L660.565,783.7a1.242,1.242,0,0,0-1.113,0l-.171.1A.338.338,0,0,0,659.281,784.445Z" transform="translate(-652.977 -780.067)"/>
            <path id="_Path_38" data-name="&lt;Path&gt;" class="cls-11" d="M673.471,792.635l107.616,62.1a1.242,1.242,0,0,0,1.113,0l.171-.1a.339.339,0,0,0,0-.642l-107.616-62.1a1.242,1.242,0,0,0-1.113,0l-.171.1A.338.338,0,0,0,673.471,792.635Z" transform="translate(-673.24 -784.752)"/>
            <path id="_Path_39" data-name="&lt;Path&gt;" class="cls-11" d="M754,837.619l-107.616-62.1a1.242,1.242,0,0,0-1.113,0l-.171.1a.338.338,0,0,0,0,.642l107.616,62.1a1.242,1.242,0,0,0,1.113,0l.171-.1A.338.338,0,0,0,754,837.619Z" transform="translate(-632.727 -775.382)"/>
          </g>
        </g>
        <g id="_Group_48" data-name="&lt;Group&gt;" transform="translate(85.323 93.564)">
          <path id="_Path_40" data-name="&lt;Path&gt;" class="cls-30" d="M706.942,832.8,823.4,900.033a4.864,4.864,0,0,0,4.875,0l34.678-20.018a1.687,1.687,0,0,0,0-2.923L746.495,809.855a4.864,4.864,0,0,0-4.875,0l-34.678,20.018A1.687,1.687,0,0,0,706.942,832.8Z" transform="translate(-706.098 -809.2)"/>
          <path id="_Path_41" data-name="&lt;Path&gt;" class="cls-32" d="M734.009,893.538l54.251,31.981a4.864,4.864,0,0,0,4.914.021l1.7-.98a1.69,1.69,0,0,0,.013-2.919l-54.251-31.986a4.864,4.864,0,0,0-4.914-.021l-1.7.98a1.69,1.69,0,0,0-.013,2.919Z" transform="translate(-649.608 -854.832)"/>
          <path id="_Compound_Path_6" data-name="&lt;Compound Path&gt;" class="cls-33" d="M768.934,899.324l64.023,36.946a1.242,1.242,0,0,0,1.113,0l.171-.1a.338.338,0,0,0,0-.642l-64.018-36.946a1.242,1.242,0,0,0-1.113,0l-.171.1a.338.338,0,0,0,0,.642ZM758.071,905.6l64.023,36.946a.338.338,0,0,1,0,.642l-.171.1a1.241,1.241,0,0,1-1.113,0l-64.018-36.946a.339.339,0,0,1,0-.642l.171-.1a1.242,1.242,0,0,1,1.113,0Zm6.074-3.505,64.018,36.946a.339.339,0,0,1,0,.642l-.171.1a1.242,1.242,0,0,1-1.113,0L762.856,902.83a.339.339,0,0,1,0-.642l.171-.1a1.241,1.241,0,0,1,1.113,0Z" transform="translate(-698.37 -860.251)"/>
        </g>
      </g>
      <g id="_Group_49" data-name="&lt;Group&gt;" transform="translate(184.629 18.03)">
        <g id="_Group_50" data-name="&lt;Group&gt;" transform="translate(168.676)">
          <path id="_Path_42" data-name="&lt;Path&gt;" class="cls-9" d="M263.22,233.785V270.95a18.64,18.64,0,0,0,9.322,16.145L374.568,346a6.554,6.554,0,0,0,9.831-5.675v-37.16a18.64,18.64,0,0,0-9.322-16.145L273.052,228.114a6.554,6.554,0,0,0-9.832,5.675Z" transform="translate(-263.22 -227.227)"/>
        </g>
        <g id="_Group_51" data-name="&lt;Group&gt;" transform="translate(256.753 139.447)">
          <path id="_Path_43" data-name="&lt;Path&gt;" class="cls-9" d="M199,559.59v37.164a18.64,18.64,0,0,0,9.322,16.145l41.436,23.926a6.554,6.554,0,0,0,9.831-5.675V593.985a18.64,18.64,0,0,0-9.322-16.145l-41.436-23.926A6.554,6.554,0,0,0,199,559.59Z" transform="translate(-199 -553.027)"/>
        </g>
        <g id="_Group_52" data-name="&lt;Group&gt;" transform="translate(224.858 46.969)">
          <path id="_Path_44" data-name="&lt;Path&gt;" class="cls-9" d="M343.47,342.676v1.669a19.51,19.51,0,0,0,9.763,16.907l6.527,3.767,4.516,6.45V367.63l1.293.745a5.7,5.7,0,0,0,8.552-4.939v-1.669a19.51,19.51,0,0,0-9.763-16.907l-12.335-7.122a5.7,5.7,0,0,0-8.552,4.939Z" transform="translate(-343.47 -336.964)"/>
          <path id="_Compound_Path_7" data-name="&lt;Compound Path&gt;" class="cls-34" d="M375.934,373.514a3.739,3.739,0,0,0-1.806-2.846c-1-.574-1.806-.235-1.806.762a3.739,3.739,0,0,0,1.806,2.846C375.125,374.849,375.934,374.511,375.934,373.514Zm-5.479-3.24a3.739,3.739,0,0,0-1.806-2.846c-1-.574-1.806-.235-1.806.762a3.739,3.739,0,0,0,1.806,2.846C369.646,371.609,370.455,371.271,370.455,370.273Zm-5.483-3.24a3.739,3.739,0,0,0-1.806-2.846c-1-.574-1.806-.235-1.806.762a3.739,3.739,0,0,0,1.806,2.846C364.163,368.369,364.972,368.031,364.972,367.033Z" transform="translate(-352.941 -352.376)"/>
        </g>
        <g id="_Group_53" data-name="&lt;Group&gt;" transform="translate(0 20.755)">
          <g id="_Group_54" data-name="&lt;Group&gt;">
            <path id="_Path_45" data-name="&lt;Path&gt;" class="cls-9" d="M840.09,280.371v26.34a13.213,13.213,0,0,0,6.609,11.445l29.37,16.958a4.644,4.644,0,0,0,6.968-4.023v-26.34a13.213,13.213,0,0,0-6.609-11.445l-29.37-16.958A4.644,4.644,0,0,0,840.09,280.371Z" transform="translate(-840.09 -275.718)"/>
          </g>
          <g id="_Group_55" data-name="&lt;Group&gt;" transform="translate(9.982 16.496)">
            <path id="_Path_46" data-name="&lt;Path&gt;" class="cls-35" d="M860.723,322.611l7.546,13.149c.342.539-2.461,1.755-2.016,1.952q3.878-.636,4.117-.736l8.813-3.7c1.237-.522,1.913-1.935,1.609-4.062a11.749,11.749,0,0,0-4.233-7.422,4.742,4.742,0,0,0-4.075-.924q-.482.122-2.885.561c.428.484.544.873.355,1.16-1.057-2.825-3.467-6.823-6.172-7.927a4.682,4.682,0,0,0-2.149-.385c-.441.039-1.819.291-4.143.758,1.164.625,1.708,1.177,1.626,1.665a8.947,8.947,0,0,0,1.609,5.919Z" transform="translate(-855.347 -314.26)"/>
            <path id="_Path_47" data-name="&lt;Path&gt;" class="cls-36" d="M867.808,324.21l7.546,13.149c.582.916,1.524,1.46,2.1,1.216l8.813-3.7c1.237-.522,1.913-1.935,1.609-4.062a11.748,11.748,0,0,0-4.233-7.422,4.547,4.547,0,0,0-6.6.8c-1.057-2.825-3.467-6.827-6.172-7.927-2.371-.967-4.293-.128-4.665,2.037a8.947,8.947,0,0,0,1.609,5.919Z" transform="translate(-866.131 -315.175)"/>
          </g>
        </g>
      </g>
      <g id="_Group_56" data-name="&lt;Group&gt;" transform="translate(250.14 34.11)">
        <path id="_Path_48" data-name="&lt;Path&gt;" class="cls-37" d="M394.82,274.65V329.5a22.014,22.014,0,0,0,11.008,19.068L557.453,436.11l5.384,10.974V367.324a22.014,22.014,0,0,0-11.009-19.068L409.582,266.128a9.839,9.839,0,0,0-14.758,8.522Z" transform="translate(-394.82 -264.795)"/>
        <g id="_Group_57" data-name="&lt;Group&gt;" transform="translate(143.436 88.684)">
          <g id="_Group_58" data-name="&lt;Group&gt;" class="cls-38">
            <path id="_Path_49" data-name="&lt;Path&gt;" class="cls-39" d="M431.3,477.718l-9.485-5.474a1.858,1.858,0,0,0-2.786,1.609v11.8a3.893,3.893,0,0,0,1.947,3.373l9.485,5.474a1.858,1.858,0,0,0,2.786-1.609v-11.8a3.881,3.881,0,0,0-1.947-3.368Z" transform="translate(-419.03 -471.993)"/>
          </g>
          <g id="_Group_59" data-name="&lt;Group&gt;" class="cls-38" transform="translate(3.347 5.664)">
            <path id="_Path_50" data-name="&lt;Path&gt;" class="cls-40" d="M428.1,490.483v3.437l6.989,4.036V494.52a7.077,7.077,0,0,0-2.512-4.807c.574,0,.963-.407.963-1.121a4.019,4.019,0,0,0-1.943-3.065c-1.074-.621-1.943-.253-1.943.822a3.72,3.72,0,0,0,.963,2.234,1.8,1.8,0,0,0-2.512,1.9Z" transform="translate(-428.1 -485.225)"/>
          </g>
        </g>
        <g id="_Group_60" data-name="&lt;Group&gt;" class="cls-38" transform="translate(47.047 32.868)">
          <path id="_Path_51" data-name="&lt;Path&gt;" class="cls-41" d="M467.56,343.146V355.9a3.4,3.4,0,0,0,1.7,2.945l85.8,49.538a1.555,1.555,0,0,0,2.333-1.348V394.281a3.4,3.4,0,0,0-1.7-2.945l-85.8-49.538A1.555,1.555,0,0,0,467.56,343.146Z" transform="translate(-467.56 -341.587)"/>
        </g>
        <path id="_Path_52" data-name="&lt;Path&gt;" class="cls-42" d="M552.362,419.557a2.1,2.1,0,0,0-1.113-1.374l-70.956-40.965c-.612-.355-1.113-.312-1.113.09a2.1,2.1,0,0,0,1.113,1.374l70.956,40.965C551.861,420,552.362,419.959,552.362,419.557Z" transform="translate(-420.452 -328.961)"/>
        <path id="_Path_53" data-name="&lt;Path&gt;" class="cls-42" d="M729.23,324.625l-22.167-12.8c-.612-.355-1.113-.312-1.113.09a2.1,2.1,0,0,0,1.113,1.374l22.167,12.8c.612.355,1.113.312,1.113-.09A2.1,2.1,0,0,0,729.23,324.625Z" transform="translate(-695.494 -291.559)"/>
        <g id="_Group_61" data-name="&lt;Group&gt;" transform="translate(10.456 49.616)">
          <path id="_Path_54" data-name="&lt;Path&gt;" class="cls-43" d="M566.229,466.047a2.1,2.1,0,0,0-1.113-1.374L420.143,380.957c-.612-.355-1.113-.312-1.113.09a2.1,2.1,0,0,0,1.113,1.374l144.973,83.715c.612.355,1.113.312,1.113-.09Z" transform="translate(-419.03 -380.716)"/>
          <path id="_Path_55" data-name="&lt;Path&gt;" class="cls-43" d="M419.03,503.157a2.1,2.1,0,0,0,1.113,1.374l87.191,50.347c.612.355,1.113.312,1.113-.09a2.1,2.1,0,0,0-1.113-1.374l-87.191-50.347C419.531,502.712,419.03,502.755,419.03,503.157Z" transform="translate(-361.248 -450.561)"/>
          <g id="_Group_62" data-name="&lt;Group&gt;" class="cls-10" transform="translate(0 9.451)">
            <path id="_Path_56" data-name="&lt;Path&gt;" class="cls-42" d="M704.543,426.506,663.9,403.037c-.612-.355-1.113-.312-1.113.09A2.1,2.1,0,0,0,663.9,404.5l40.64,23.468c.612.355,1.113.312,1.113-.09A2.1,2.1,0,0,0,704.543,426.506Z" transform="translate(-662.79 -402.796)"/>
            <path id="_Path_57" data-name="&lt;Path&gt;" class="cls-42" d="M419.03,465.167a2.1,2.1,0,0,0,1.113,1.374L519.13,523.7c.612.355,1.113.312,1.113-.09a2.1,2.1,0,0,0-1.113-1.374l-98.987-57.161c-.612-.355-1.113-.312-1.113.09Z" transform="translate(-373.044 -438.282)"/>
          </g>
          <path id="_Path_58" data-name="&lt;Path&gt;" class="cls-43" d="M473.872,514.276l-53.729-31.151c-.612-.355-1.113-.317-1.113.09a2.118,2.118,0,0,0,1.113,1.378l53.729,31.151c.612.355,1.113.317,1.113-.09a2.1,2.1,0,0,0-1.113-1.374Z" transform="translate(-327.786 -439.154)"/>
        </g>
        <g id="_Group_63" data-name="&lt;Group&gt;" transform="translate(147.499 158.748)">
          <path id="_Path_59" data-name="&lt;Path&gt;" class="cls-44" d="M424.55,640.55v66.12" transform="translate(-416.756 -638.469)"/>
          <path id="_Path_60" data-name="&lt;Path&gt;" class="cls-45" d="M414.071,792.377a7.543,7.543,0,0,0,6.634,1.485c2.243-.6,2.906-2.243,1.485-3.664a7.543,7.543,0,0,0-6.634-1.485C413.313,789.312,412.65,790.956,414.071,792.377Z" transform="translate(-410.339 -723.089)"/>
          <path id="_Path_61" data-name="&lt;Path&gt;" class="cls-46" d="M407.552,790.739c2.3,2.3,7.118,3.381,10.756,2.41s4.712-3.63,2.41-5.937-7.118-3.381-10.756-2.41S405.249,788.432,407.552,790.739Z" transform="translate(-406.341 -720.775)"/>
          <path id="_Path_62" data-name="&lt;Path&gt;" class="cls-11" d="M419.353,793.717a3.738,3.738,0,0,0,3.291.736c1.113-.3,1.442-1.113.736-1.815a3.738,3.738,0,0,0-3.291-.736C418.976,792.2,418.647,793.015,419.353,793.717Z" transform="translate(-413.575 -724.977)"/>
          <path id="_Path_63" data-name="&lt;Path&gt;" class="cls-11" d="M423.942,638.813a3.739,3.739,0,0,0-1.806-2.846c-1-.574-1.806-.235-1.806.762a3.739,3.739,0,0,0,1.806,2.846C423.134,640.149,423.942,639.811,423.942,638.813Z" transform="translate(-414.342 -635.688)"/>
        </g>
      </g>
      <g id="_Group_64" data-name="&lt;Group&gt;" transform="translate(76.046 35.054)">
        <path id="_Path_64" data-name="&lt;Path&gt;" class="cls-47" d="M801.57,276.973V351.4l4.272-4.593,148.812,85.915a9.957,9.957,0,0,0,14.933-8.62V369.732a22.526,22.526,0,0,0-11.257-19.5L816.508,268.348a9.957,9.957,0,0,0-14.933,8.62Z" transform="translate(-801.57 -267)"/>
        <g id="_Group_65" data-name="&lt;Group&gt;" transform="translate(143.441 88.6)">
          <g id="_Group_66" data-name="&lt;Group&gt;" class="cls-38">
            <path id="_Path_65" data-name="&lt;Path&gt;" class="cls-48" d="M838.041,479.728l-9.485-5.474a1.858,1.858,0,0,0-2.786,1.609v11.8a3.893,3.893,0,0,0,1.947,3.373l9.485,5.474a1.858,1.858,0,0,0,2.786-1.609V483.1a3.893,3.893,0,0,0-1.947-3.373Z" transform="translate(-825.77 -474.003)"/>
          </g>
          <g id="_Group_67" data-name="&lt;Group&gt;" class="cls-38" transform="translate(3.347 5.664)">
            <path id="_Path_66" data-name="&lt;Path&gt;" class="cls-40" d="M834.84,492.493v3.437l6.99,4.036V496.53a7.077,7.077,0,0,0-2.512-4.807c.574,0,.963-.407.963-1.121a4.019,4.019,0,0,0-1.943-3.065c-1.074-.621-1.943-.253-1.943.822a3.719,3.719,0,0,0,.963,2.234,1.8,1.8,0,0,0-2.512,1.9Z" transform="translate(-834.84 -487.235)"/>
          </g>
        </g>
        <g id="_Group_68" data-name="&lt;Group&gt;" class="cls-38" transform="translate(47.052 32.78)">
          <path id="_Path_67" data-name="&lt;Path&gt;" class="cls-49" d="M874.3,345.146V357.9a3.4,3.4,0,0,0,1.7,2.945l85.8,49.538a1.555,1.555,0,0,0,2.333-1.348V396.281a3.4,3.4,0,0,0-1.7-2.945l-85.8-49.538A1.555,1.555,0,0,0,874.3,345.146Z" transform="translate(-874.3 -343.587)"/>
        </g>
        <path id="_Path_68" data-name="&lt;Path&gt;" class="cls-42" d="M1135.97,326.635l-22.167-12.8c-.612-.355-1.113-.312-1.113.09a2.1,2.1,0,0,0,1.113,1.374l22.167,12.8c.612.355,1.113.312,1.113-.09A2.1,2.1,0,0,0,1135.97,326.635Z" transform="translate(-1102.229 -293.652)"/>
        <path id="_Path_69" data-name="&lt;Path&gt;" class="cls-42" d="M940.752,433.656l-53.729-31.151c-.612-.355-1.113-.317-1.113.09a2.118,2.118,0,0,0,1.113,1.378l53.729,31.151c.612.355,1.113.317,1.113-.09a2.1,2.1,0,0,0-1.113-1.374Z" transform="translate(-809.946 -344.368)"/>
        <g id="_Group_69" data-name="&lt;Group&gt;" class="cls-10" transform="translate(10.409 49.635)">
          <path id="_Path_70" data-name="&lt;Path&gt;" class="cls-42" d="M973.089,468.3a2.1,2.1,0,0,0-1.113-1.374L827,383.207c-.612-.355-1.113-.312-1.113.09A2.1,2.1,0,0,0,827,384.671l144.973,83.715c.612.355,1.113.312,1.113-.09Z" transform="translate(-825.89 -382.966)"/>
          <path id="_Path_71" data-name="&lt;Path&gt;" class="cls-42" d="M880.732,516.516,827,485.366c-.612-.355-1.113-.317-1.113.09A2.118,2.118,0,0,0,827,486.834l53.729,31.151c.612.355,1.113.317,1.113-.09a2.1,2.1,0,0,0-1.113-1.374Z" transform="translate(-734.646 -441.398)"/>
          <path id="_Path_72" data-name="&lt;Path&gt;" class="cls-42" d="M825.89,492.627A2.1,2.1,0,0,0,827,494l96.65,55.813c.612.355,1.113.312,1.113-.09a2.1,2.1,0,0,0-1.113-1.374L827,492.537C826.391,492.182,825.89,492.225,825.89,492.627Z" transform="translate(-777.567 -445.501)"/>
          <g id="_Group_70" data-name="&lt;Group&gt;" transform="translate(0 9.446)">
            <path id="_Path_73" data-name="&lt;Path&gt;" class="cls-42" d="M825.89,540.537A2.1,2.1,0,0,0,827,541.911l44.787,25.861c.612.355,1.113.312,1.113-.09a2.1,2.1,0,0,0-1.113-1.374L827,540.447C826.391,540.092,825.89,540.135,825.89,540.537Z" transform="translate(-725.705 -482.351)"/>
            <path id="_Path_74" data-name="&lt;Path&gt;" class="cls-42" d="M1041.283,459.045l-93.11-53.767c-.612-.355-1.113-.312-1.113.09a2.1,2.1,0,0,0,1.113,1.374l93.11,53.767c.612.355,1.113.312,1.113-.09a2.1,2.1,0,0,0-1.113-1.374Z" transform="translate(-947.06 -405.036)"/>
          </g>
        </g>
        <g id="_Group_71" data-name="&lt;Group&gt;" transform="translate(148.902 158.433)">
          <path id="_Path_75" data-name="&lt;Path&gt;" class="cls-44" d="M828.03,642.02v66.12" transform="translate(-820.241 -639.939)"/>
          <path id="_Path_76" data-name="&lt;Path&gt;" class="cls-45" d="M817.541,793.847a7.543,7.543,0,0,0,6.634,1.485c2.243-.6,2.906-2.238,1.485-3.664a7.543,7.543,0,0,0-6.634-1.485C816.783,790.782,816.12,792.426,817.541,793.847Z" transform="translate(-813.809 -724.559)"/>
          <path id="_Path_77" data-name="&lt;Path&gt;" class="cls-46" d="M811.022,792.209c2.3,2.3,7.118,3.381,10.756,2.41s4.712-3.63,2.41-5.937-7.118-3.381-10.756-2.41S808.719,789.9,811.022,792.209Z" transform="translate(-809.811 -722.245)"/>
          <path id="_Path_78" data-name="&lt;Path&gt;" class="cls-11" d="M822.823,795.187a3.738,3.738,0,0,0,3.292.736c1.113-.3,1.442-1.113.736-1.815a3.738,3.738,0,0,0-3.291-.736C822.446,793.672,822.117,794.485,822.823,795.187Z" transform="translate(-817.045 -726.447)"/>
          <path id="_Path_79" data-name="&lt;Path&gt;" class="cls-11" d="M827.422,640.283a3.739,3.739,0,0,0-1.806-2.846c-1-.574-1.806-.235-1.806.762a3.739,3.739,0,0,0,1.806,2.846C826.613,641.619,827.422,641.281,827.422,640.283Z" transform="translate(-817.827 -637.158)"/>
        </g>
      </g>
      <g id="_Group_72" data-name="&lt;Group&gt;" transform="translate(0 126.826)">
        <path id="_Path_80" data-name="&lt;Path&gt;" class="cls-50" d="M979.24,491.27v54.854a22.014,22.014,0,0,0,11.009,19.068l151.624,87.538,5.385,10.974V583.944a22.014,22.014,0,0,0-11.009-19.068L994,482.748a9.839,9.839,0,0,0-14.758,8.522Z" transform="translate(-979.24 -481.415)"/>
        <g id="_Group_73" data-name="&lt;Group&gt;" transform="translate(143.441 88.684)">
          <g id="_Group_74" data-name="&lt;Group&gt;" class="cls-38">
            <path id="_Path_81" data-name="&lt;Path&gt;" class="cls-51" d="M1015.711,694.338l-9.485-5.474a1.858,1.858,0,0,0-2.786,1.609v11.8a3.893,3.893,0,0,0,1.947,3.373l9.485,5.474a1.858,1.858,0,0,0,2.786-1.609v-11.8A3.893,3.893,0,0,0,1015.711,694.338Z" transform="translate(-1003.44 -688.613)"/>
          </g>
          <g id="_Group_75" data-name="&lt;Group&gt;" class="cls-38" transform="translate(3.347 5.664)">
            <path id="_Path_82" data-name="&lt;Path&gt;" class="cls-40" d="M1012.51,707.1v3.437l6.99,4.036V711.14a7.077,7.077,0,0,0-2.512-4.807c.574,0,.963-.406.963-1.121a4.019,4.019,0,0,0-1.943-3.065c-1.074-.621-1.943-.253-1.943.822a3.72,3.72,0,0,0,.963,2.234,1.8,1.8,0,0,0-2.512,1.9Z" transform="translate(-1012.51 -701.846)"/>
          </g>
        </g>
        <g id="_Group_76" data-name="&lt;Group&gt;" class="cls-38" transform="translate(47.052 32.868)">
          <path id="_Path_83" data-name="&lt;Path&gt;" class="cls-52" d="M1051.97,559.766v12.751a3.4,3.4,0,0,0,1.7,2.945l85.8,49.539a1.555,1.555,0,0,0,2.333-1.348V610.9a3.4,3.4,0,0,0-1.7-2.945l-85.8-49.538A1.555,1.555,0,0,0,1051.97,559.766Z" transform="translate(-1051.97 -558.207)"/>
        </g>
        <path id="_Path_84" data-name="&lt;Path&gt;" class="cls-42" d="M1136.772,636.177a2.1,2.1,0,0,0-1.113-1.374L1064.7,593.837c-.612-.355-1.113-.312-1.113.09a2.1,2.1,0,0,0,1.113,1.374l70.956,40.965C1136.271,636.622,1136.772,636.579,1136.772,636.177Z" transform="translate(-1004.858 -545.581)"/>
        <path id="_Path_85" data-name="&lt;Path&gt;" class="cls-42" d="M1313.64,541.245l-22.167-12.8c-.612-.355-1.113-.312-1.113.09a2.1,2.1,0,0,0,1.113,1.374l22.167,12.8c.612.355,1.113.312,1.113-.09A2.1,2.1,0,0,0,1313.64,541.245Z" transform="translate(-1279.899 -508.179)"/>
        <g id="_Group_77" data-name="&lt;Group&gt;" transform="translate(10.456 49.616)">
          <path id="_Path_86" data-name="&lt;Path&gt;" class="cls-43" d="M1150.649,682.667a2.1,2.1,0,0,0-1.113-1.374l-144.973-83.715c-.612-.355-1.113-.312-1.113.09a2.1,2.1,0,0,0,1.113,1.374l144.973,83.715c.612.355,1.113.312,1.113-.09Z" transform="translate(-1003.45 -597.336)"/>
          <path id="_Path_87" data-name="&lt;Path&gt;" class="cls-43" d="M1003.44,719.787a2.1,2.1,0,0,0,1.113,1.374l87.191,50.347c.612.355,1.113.312,1.113-.09a2.1,2.1,0,0,0-1.113-1.374L1004.553,719.7C1003.941,719.342,1003.44,719.385,1003.44,719.787Z" transform="translate(-945.654 -667.187)"/>
          <g id="_Group_78" data-name="&lt;Group&gt;" class="cls-10" transform="translate(0 9.451)">
            <path id="_Path_88" data-name="&lt;Path&gt;" class="cls-42" d="M1288.963,643.126l-40.64-23.468c-.612-.355-1.113-.312-1.113.09a2.1,2.1,0,0,0,1.113,1.374l40.64,23.468c.612.355,1.113.313,1.113-.09A2.1,2.1,0,0,0,1288.963,643.126Z" transform="translate(-1247.21 -619.416)"/>
            <path id="_Path_89" data-name="&lt;Path&gt;" class="cls-42" d="M1003.45,681.787a2.1,2.1,0,0,0,1.113,1.374l98.987,57.161c.612.355,1.113.312,1.113-.09a2.1,2.1,0,0,0-1.113-1.374L1004.563,681.7C1003.951,681.342,1003.45,681.385,1003.45,681.787Z" transform="translate(-957.464 -654.902)"/>
          </g>
          <path id="_Path_90" data-name="&lt;Path&gt;" class="cls-43" d="M1058.282,730.9l-53.729-31.151c-.612-.355-1.113-.317-1.113.09a2.1,2.1,0,0,0,1.113,1.374l53.729,31.151c.612.355,1.113.317,1.113-.09a2.118,2.118,0,0,0-1.113-1.378Z" transform="translate(-912.191 -655.774)"/>
        </g>
        <g id="_Group_79" data-name="&lt;Group&gt;" transform="translate(149.865 158.363)">
          <path id="_Path_91" data-name="&lt;Path&gt;" class="cls-44" d="M1003.45,856.27v66.12" transform="translate(-995.66 -854.189)"/>
          <path id="_Path_92" data-name="&lt;Path&gt;" class="cls-45" d="M992.961,1008.107a7.543,7.543,0,0,0,6.634,1.485c2.243-.6,2.906-2.243,1.485-3.664a7.542,7.542,0,0,0-6.634-1.485C992.2,1005.042,991.54,1006.686,992.961,1008.107Z" transform="translate(-989.228 -938.814)"/>
          <path id="_Path_93" data-name="&lt;Path&gt;" class="cls-46" d="M986.442,1006.459c2.3,2.3,7.118,3.381,10.756,2.41s4.712-3.63,2.41-5.937-7.118-3.381-10.756-2.41S984.139,1004.152,986.442,1006.459Z" transform="translate(-985.231 -936.495)"/>
          <path id="_Path_94" data-name="&lt;Path&gt;" class="cls-11" d="M998.243,1009.437a3.738,3.738,0,0,0,3.291.736c1.113-.3,1.442-1.113.736-1.815a3.738,3.738,0,0,0-3.291-.736C997.867,1007.922,997.537,1008.735,998.243,1009.437Z" transform="translate(-992.465 -940.697)"/>
          <path id="_Path_95" data-name="&lt;Path&gt;" class="cls-11" d="M1002.842,854.533a3.739,3.739,0,0,0-1.806-2.846c-1-.573-1.806-.235-1.806.762a3.739,3.739,0,0,0,1.806,2.846C1002.034,855.869,1002.842,855.531,1002.842,854.533Z" transform="translate(-993.247 -851.408)"/>
        </g>
      </g>
      <g id="_Group_80" data-name="&lt;Group&gt;" transform="translate(423.682 328.432)">
        <g id="_Group_81" data-name="&lt;Group&gt;" transform="translate(0 22.15)">
          <g id="_Group_82" data-name="&lt;Group&gt;">
            <path id="_Compound_Path_8" data-name="&lt;Compound Path&gt;" class="cls-53" d="M234.874,1005.8c-16.295,4.37-21.123,16.286-10.79,26.614S256,1047.574,272.3,1043.2s21.122-16.286,10.79-26.614-31.921-15.156-48.216-10.782Z" transform="translate(-218.646 -1004.191)"/>
          </g>
        </g>
        <path id="_Compound_Path_9" data-name="&lt;Compound Path&gt;" class="cls-54" d="M245.259,960.2q-6.311,1.695-26.443,11.24-.141,5.65-.188,8.222c-.064,3.728,1.686,7.683,5.436,11.428,10.332,10.328,31.921,15.156,48.216,10.782,10.469-2.808,16.2-8.732,16.23-15.344q.013-3.679,0-6.253Q261.553,955.829,245.259,960.2Zm24.641,27.59-9.01-2.624c-.638-.184-.818-.612-.4-.955l5.885-4.79a7.707,7.707,0,0,1,4.237-1.391c2.234-.146,4.379.467,5.2,1.49.937,1.164.081,2.448-1.733,3.223,2.217.184,3.993,1.087,4.088,2.375.086,1.13-1.323,2.256-3.416,2.739a9.91,9.91,0,0,1-4.849-.069Zm-31.065-10.829,21.191,12.387c-7.216,3.244-17.805,3.1-23.661-.321s-4.747-8.826,2.465-12.07Zm5.384-6.947a8.6,8.6,0,0,1,5.744-1.378c2.478.218,3.989,1.237,4.062,2.388a9.75,9.75,0,0,1,6.454-.462c1.87.552,2.774,1.721,2.2,2.838a4.829,4.829,0,0,1-3.24,1.973l-10.028,2.367a1.953,1.953,0,0,1-1.789-.33l-3.9-4.922c-.591-.745-.492-1.652.5-2.474Z" transform="translate(-218.626 -956.502)"/>
        <path id="_Path_96" data-name="&lt;Path&gt;" class="cls-55" d="M289.148,1002.907l8.573-2.337L270.05,985.38v6.365Z" transform="translate(-249.842 -971.282)"/>
        <path id="_Path_97" data-name="&lt;Path&gt;" class="cls-56" d="M272.21,964.848v6.989l11.556-2.264v-5.752l-6.733-3.951Z" transform="translate(-236.811 -956.69)"/>
        <path id="_Path_98" data-name="&lt;Path&gt;" class="cls-57" d="M236.18,998.88v5.2h6.93v-5.2Z" transform="translate(-180.733 -979.003)"/>
        <path id="_Compound_Path_10" data-name="&lt;Compound Path&gt;" class="cls-58" d="M234.874,954.054c-16.295,4.37-21.123,16.286-10.79,26.614S256,995.824,272.3,991.45s21.122-16.286,10.79-26.614S251.168,949.68,234.874,954.054Z" transform="translate(-218.646 -952.441)"/>
      </g>
      <g id="_Group_83" data-name="&lt;Group&gt;" transform="translate(359.191 228.1)">
        <g id="_Group_84" data-name="&lt;Group&gt;" transform="translate(8.029 35.812)">
          <path id="_Path_99" data-name="&lt;Path&gt;" class="cls-44" d="M495.62,806.57V939.46" transform="translate(-487.826 -804.485)"/>
          <path id="_Path_100" data-name="&lt;Path&gt;" class="cls-45" d="M485.141,1114.4a7.543,7.543,0,0,0,6.634,1.485c2.243-.6,2.906-2.243,1.485-3.664a7.543,7.543,0,0,0-6.634-1.485C484.383,1111.332,483.72,1112.976,485.141,1114.4Z" transform="translate(-481.409 -978.334)"/>
          <path id="_Path_101" data-name="&lt;Path&gt;" class="cls-46" d="M478.622,1112.749c2.3,2.3,7.118,3.381,10.756,2.41s4.712-3.63,2.41-5.937-7.118-3.381-10.756-2.41S476.319,1110.442,478.622,1112.749Z" transform="translate(-477.411 -976.015)"/>
          <path id="_Path_102" data-name="&lt;Path&gt;" class="cls-11" d="M490.413,1115.727a3.738,3.738,0,0,0,3.291.736c1.113-.3,1.442-1.113.736-1.815a3.739,3.739,0,0,0-3.291-.736C490.036,1114.212,489.707,1115.025,490.413,1115.727Z" transform="translate(-484.631 -980.217)"/>
          <path id="_Path_103" data-name="&lt;Path&gt;" class="cls-11" d="M495.012,804.823a3.739,3.739,0,0,0-1.806-2.846c-1-.574-1.806-.235-1.806.762a3.739,3.739,0,0,0,1.806,2.846C494.2,806.159,495.012,805.821,495.012,804.823Z" transform="translate(-485.412 -801.698)"/>
        </g>
      </g>
      <g id="_Group_85" data-name="&lt;Group&gt;" transform="translate(95.751 427.176)">
        <path id="_Path_104" data-name="&lt;Path&gt;" class="cls-9" d="M1013.635,1206.956l-30.167-17.416a47.737,47.737,0,0,0-47.745,0l-3.531,2.037a13.941,13.941,0,0,0,0,24.149l3.159,1.823-8.132,4.7,19.179,1.682,15.961,9.215a47.738,47.738,0,0,0,47.745,0l3.531-2.037A13.941,13.941,0,0,0,1013.635,1206.956Z" transform="translate(-925.22 -1183.143)"/>
        <path id="_Compound_Path_11" data-name="&lt;Compound Path&gt;" class="cls-59" d="M998.2,1229.145c2.44,1.408,6.125,1.562,8.235.343s1.845-3.347-.591-4.755-6.125-1.562-8.235-.342S995.762,1227.737,998.2,1229.145Zm13.568,7.644c2.44,1.408,6.125,1.562,8.235.343s1.845-3.347-.591-4.755-6.125-1.562-8.235-.342S1009.33,1235.381,1011.765,1236.79Zm13.568,7.644c2.44,1.408,6.125,1.562,8.235.342s1.845-3.347-.591-4.755-6.125-1.562-8.235-.342S1022.9,1243.026,1025.333,1244.434Z" transform="translate(-969.978 -1206.265)"/>
      </g>
      <g id="_Group_86" data-name="&lt;Group&gt;" transform="translate(206.17 310.136)">
        <g id="_Group_87" data-name="&lt;Group&gt;" transform="translate(10.633 16.344)">
          <path id="_Path_105" data-name="&lt;Path&gt;" class="cls-44" d="M847.05,952.74v35.054" transform="translate(-839.256 -950.659)"/>
          <path id="_Path_106" data-name="&lt;Path&gt;" class="cls-45" d="M836.571,1032a7.542,7.542,0,0,0,6.634,1.485c2.243-.6,2.906-2.243,1.485-3.664a7.542,7.542,0,0,0-6.634-1.485C835.813,1028.932,835.15,1030.576,836.571,1032Z" transform="translate(-832.839 -993.77)"/>
          <path id="_Path_107" data-name="&lt;Path&gt;" class="cls-46" d="M830.052,1030.359c2.3,2.3,7.118,3.381,10.756,2.41s4.713-3.63,2.41-5.937-7.118-3.381-10.756-2.41S827.749,1028.052,830.052,1030.359Z" transform="translate(-828.841 -991.456)"/>
          <path id="_Path_108" data-name="&lt;Path&gt;" class="cls-11" d="M841.853,1033.337a3.738,3.738,0,0,0,3.291.736c1.113-.3,1.442-1.113.736-1.815a3.738,3.738,0,0,0-3.291-.736C841.477,1031.822,841.147,1032.635,841.853,1033.337Z" transform="translate(-836.075 -995.658)"/>
          <path id="_Path_109" data-name="&lt;Path&gt;" class="cls-11" d="M846.452,951a3.739,3.739,0,0,0-1.806-2.846c-1-.574-1.806-.235-1.806.762a3.739,3.739,0,0,0,1.806,2.846C845.643,952.339,846.452,952,846.452,951Z" transform="translate(-836.857 -947.878)"/>
        </g>
      </g>
      <g id="_Group_88" data-name="&lt;Group&gt;" transform="translate(230.837 406.296)">
        <g id="_Group_89" data-name="&lt;Group&gt;" transform="translate(0 0)">
          <path id="_Path_110" data-name="&lt;Path&gt;" class="cls-9" d="M610.366,1135.785l-52.132,30.1a3.286,3.286,0,0,0,0,5.693l52.025,30.038a10.626,10.626,0,0,0,10.632,0l52.136-30.1a3.287,3.287,0,0,0,0-5.693L621,1135.785a10.626,10.626,0,0,0-10.632,0Z" transform="translate(-556.59 -1134.36)"/>
        </g>
        <g id="_Group_90" data-name="&lt;Group&gt;" transform="translate(35.851 11.018)">
          <g id="_Group_91" data-name="&lt;Group&gt;" transform="translate(1.772 9.364)">
            <path id="_Path_111" data-name="&lt;Path&gt;" class="cls-44" d="M726.36,1186.84v22.214" transform="translate(-718.566 -1184.759)"/>
            <path id="_Path_112" data-name="&lt;Path&gt;" class="cls-45" d="M715.881,1236.1a7.542,7.542,0,0,0,6.634,1.485c2.243-.6,2.906-2.238,1.485-3.664a7.543,7.543,0,0,0-6.634-1.485C715.123,1233.032,714.46,1234.676,715.881,1236.1Z" transform="translate(-712.149 -1210.71)"/>
            <path id="_Path_113" data-name="&lt;Path&gt;" class="cls-46" d="M709.362,1234.449c2.3,2.3,7.118,3.381,10.756,2.41s4.712-3.63,2.41-5.937-7.118-3.381-10.756-2.41S707.059,1232.142,709.362,1234.449Z" transform="translate(-708.151 -1208.391)"/>
            <path id="_Path_114" data-name="&lt;Path&gt;" class="cls-11" d="M721.163,1237.427a3.738,3.738,0,0,0,3.291.736c1.113-.3,1.442-1.113.736-1.815a3.738,3.738,0,0,0-3.291-.736C720.786,1235.912,720.457,1236.725,721.163,1237.427Z" transform="translate(-715.385 -1212.593)"/>
            <path id="_Path_115" data-name="&lt;Path&gt;" class="cls-11" d="M725.762,1185.1a3.739,3.739,0,0,0-1.806-2.846c-1-.573-1.806-.235-1.806.762a3.739,3.739,0,0,0,1.806,2.846C724.953,1186.439,725.762,1186.1,725.762,1185.1Z" transform="translate(-716.167 -1181.978)"/>
          </g>
        </g>
      </g>
    </g>
  </g>
</svg>
