<svg width="227" height="61" viewBox="0 0 227 61" fill="none" xmlns="http://www.w3.org/2000/svg">
<path d="M68.0456 40.3765V21.1753C68.0456 21.0243 68.0975 20.8968 68.2014 20.793C68.3052 20.6797 68.4374 20.623 68.5978 20.623H75.593C77.3771 20.623 78.9017 21.2555 80.1667 22.5205C81.4411 23.776 82.0783 25.2817 82.0783 27.0376C82.0783 28.2176 81.7857 29.3079 81.2004 30.3086C80.6245 31.3092 79.841 32.1022 78.8498 32.6875C77.8586 33.2728 76.7824 33.5654 75.6213 33.5654H72.5768V40.3765C72.5768 40.5181 72.5202 40.6455 72.4069 40.7588C72.2936 40.8721 72.1662 40.9287 72.0246 40.9287H68.5978C68.4374 40.9287 68.3052 40.8768 68.2014 40.7729C68.0975 40.6597 68.0456 40.5275 68.0456 40.3765ZM72.5768 29.3315H75.3239C75.9564 29.3315 76.4945 29.1097 76.9382 28.666C77.3913 28.2223 77.6179 27.6795 77.6179 27.0376C77.6179 26.4334 77.3913 25.9237 76.9382 25.5083C76.4945 25.0929 75.9564 24.8853 75.3239 24.8853H72.5768V29.3315Z" fill="#E24B4B"/>
<path d="M83.6501 30.8042C83.6501 29.8507 83.7728 28.9209 84.0182 28.0146C84.2637 27.1084 84.6083 26.2729 85.0519 25.5083C85.4956 24.7437 86.0337 24.0404 86.6662 23.3984C87.3081 22.7565 88.0114 22.2137 88.7761 21.77C89.5407 21.3169 90.3714 20.9676 91.2682 20.7222C92.1745 20.4673 93.1043 20.3398 94.0578 20.3398C95.4833 20.3398 96.8379 20.6136 98.1218 21.1611C99.4151 21.7087 100.524 22.4497 101.449 23.3843C102.384 24.3188 103.125 25.4328 103.673 26.7261C104.22 28.0194 104.494 29.3787 104.494 30.8042C104.494 32.2297 104.22 33.589 103.673 34.8823C103.125 36.1662 102.384 37.2707 101.449 38.1958C100.524 39.1209 99.4151 39.8573 98.1218 40.4048C96.8379 40.9429 95.4833 41.2119 94.0578 41.2119C92.6323 41.2119 91.273 40.9429 89.9797 40.4048C88.6958 39.8573 87.5913 39.1209 86.6662 38.1958C85.7411 37.2707 85.0047 36.1662 84.4572 34.8823C83.9191 33.589 83.6501 32.2297 83.6501 30.8042ZM88.2805 30.8042C88.2805 32.3807 88.8469 33.7401 89.9797 34.8823C91.1219 36.0151 92.4813 36.5815 94.0578 36.5815C95.6532 36.5815 97.0173 36.0151 98.1501 34.8823C99.2923 33.7401 99.8635 32.3807 99.8635 30.8042C99.8635 29.2088 99.2923 27.84 98.1501 26.6978C97.0173 25.5555 95.6532 24.9844 94.0578 24.9844C92.4813 24.9844 91.1219 25.5555 89.9797 26.6978C88.8469 27.84 88.2805 29.2088 88.2805 30.8042ZM196.252 40.3765V21.1753C196.252 21.0337 196.308 20.9062 196.422 20.793C196.535 20.6797 196.662 20.623 196.804 20.623H200.287C200.429 20.623 200.556 20.6797 200.67 20.793C200.783 20.9062 200.84 21.0337 200.84 21.1753V40.3765C200.84 40.5181 200.783 40.6455 200.67 40.7588C200.556 40.8721 200.429 40.9287 200.287 40.9287H196.804C196.662 40.9287 196.535 40.8721 196.422 40.7588C196.308 40.6455 196.252 40.5181 196.252 40.3765Z" fill="#31DD9F"/>
<path d="M108.006 40.3765V21.1753C108.006 21.0243 108.057 20.8968 108.161 20.793C108.265 20.6797 108.397 20.623 108.558 20.623H117.224C118.366 20.623 119.423 20.9062 120.396 21.4727C121.368 22.0296 122.137 22.7896 122.704 23.7524C123.27 24.7153 123.553 25.7632 123.553 26.896C123.553 28.1987 123.162 29.3646 122.378 30.3936C121.595 31.4225 120.556 32.1966 119.263 32.7158L123.228 40.0933C123.332 40.2821 123.336 40.4709 123.242 40.6597C123.147 40.839 122.982 40.9287 122.746 40.9287H118.881C118.654 40.9287 118.498 40.8438 118.413 40.6738L114.562 32.9849H112.565V40.3765C112.565 40.5181 112.508 40.6455 112.395 40.7588C112.282 40.8721 112.154 40.9287 112.013 40.9287H108.558C108.397 40.9287 108.265 40.8768 108.161 40.7729C108.057 40.6597 108.006 40.5275 108.006 40.3765ZM112.565 29.3032H116.856C117.45 29.3032 117.965 29.0719 118.399 28.6094C118.833 28.1374 119.05 27.5946 119.05 26.981C119.05 26.3768 118.833 25.8576 118.399 25.4233C117.965 24.9891 117.45 24.772 116.856 24.772H112.565V29.3032Z" fill="#1457F5"/>
<path d="M130.039 40.3765V24.8853H125.904C125.744 24.8853 125.611 24.8333 125.508 24.7295C125.404 24.6162 125.352 24.4888 125.352 24.3472V21.1753C125.352 21.0243 125.404 20.8968 125.508 20.793C125.611 20.6797 125.744 20.623 125.904 20.623H138.776C138.936 20.623 139.068 20.6797 139.172 20.793C139.276 20.8968 139.328 21.0243 139.328 21.1753V24.3472C139.328 24.4888 139.276 24.6162 139.172 24.7295C139.068 24.8333 138.936 24.8853 138.776 24.8853H134.627V40.3765C134.627 40.5181 134.57 40.6455 134.457 40.7588C134.343 40.8721 134.216 40.9287 134.074 40.9287H130.591C130.449 40.9287 130.322 40.8721 130.209 40.7588C130.095 40.6455 130.039 40.5181 130.039 40.3765Z" fill="#2097EF"/>
<path d="M142.216 40.3765V21.1753C142.216 21.0243 142.268 20.8968 142.372 20.793C142.476 20.6797 142.608 20.623 142.769 20.623H154.777C154.937 20.623 155.069 20.6797 155.173 20.793C155.277 20.8968 155.329 21.0243 155.329 21.1753V24.3472C155.329 24.4888 155.277 24.6162 155.173 24.7295C155.069 24.8333 154.937 24.8853 154.777 24.8853H146.748V29.0625H153.361C153.502 29.0625 153.625 29.1191 153.729 29.2324C153.842 29.3457 153.899 29.4731 153.899 29.6147V32.7866C153.899 32.9282 153.842 33.0557 153.729 33.1689C153.625 33.2728 153.502 33.3247 153.361 33.3247H146.748V40.3765C146.748 40.5181 146.691 40.6455 146.578 40.7588C146.465 40.8721 146.337 40.9287 146.195 40.9287H142.769C142.608 40.9287 142.476 40.8768 142.372 40.7729C142.268 40.6597 142.216 40.5275 142.216 40.3765Z" fill="#D811E4"/>
<path d="M157.085 30.8042C157.085 29.8507 157.207 28.9209 157.453 28.0146C157.698 27.1084 158.043 26.2729 158.487 25.5083C158.93 24.7437 159.468 24.0404 160.101 23.3984C160.743 22.7565 161.446 22.2137 162.211 21.77C162.975 21.3169 163.806 20.9676 164.703 20.7222C165.609 20.4673 166.539 20.3398 167.492 20.3398C168.918 20.3398 170.272 20.6136 171.556 21.1611C172.85 21.7087 173.959 22.4497 174.884 23.3843C175.819 24.3188 176.56 25.4328 177.107 26.7261C177.655 28.0194 177.928 29.3787 177.928 30.8042C177.928 32.2297 177.655 33.589 177.107 34.8823C176.56 36.1662 175.819 37.2707 174.884 38.1958C173.959 39.1209 172.85 39.8573 171.556 40.4048C170.272 40.9429 168.918 41.2119 167.492 41.2119C166.067 41.2119 164.708 40.9429 163.414 40.4048C162.13 39.8573 161.026 39.1209 160.101 38.1958C159.176 37.2707 158.439 36.1662 157.892 34.8823C157.354 33.589 157.085 32.2297 157.085 30.8042ZM161.715 30.8042C161.715 32.3807 162.281 33.7401 163.414 34.8823C164.556 36.0151 165.916 36.5815 167.492 36.5815C169.088 36.5815 170.452 36.0151 171.585 34.8823C172.727 33.7401 173.298 32.3807 173.298 30.8042C173.298 29.2088 172.727 27.84 171.585 26.6978C170.452 25.5555 169.088 24.9844 167.492 24.9844C165.916 24.9844 164.556 25.5555 163.414 26.6978C162.281 27.84 161.715 29.2088 161.715 30.8042Z" fill="#833AB4"/>
<path d="M181.44 40.3765V21.1753C181.44 21.0243 181.492 20.8968 181.596 20.793C181.7 20.6797 181.832 20.623 181.992 20.623H185.447C185.589 20.623 185.716 20.6797 185.83 20.793C185.943 20.9062 186 21.0337 186 21.1753V36.6665H192.896C193.056 36.6665 193.188 36.7231 193.292 36.8364C193.396 36.9403 193.448 37.0677 193.448 37.2188V40.3765C193.448 40.5275 193.396 40.6597 193.292 40.7729C193.188 40.8768 193.056 40.9287 192.896 40.9287H181.992C181.832 40.9287 181.7 40.8768 181.596 40.7729C181.492 40.6597 181.44 40.5275 181.44 40.3765Z" fill="#1C45A8"/>
<path d="M204.351 30.8042C204.351 29.8507 204.474 28.9209 204.719 28.0146C204.965 27.1084 205.309 26.2729 205.753 25.5083C206.197 24.7437 206.735 24.0404 207.367 23.3984C208.009 22.7565 208.713 22.2137 209.477 21.77C210.242 21.3169 211.073 20.9676 211.969 20.7222C212.876 20.4673 213.806 20.3398 214.759 20.3398C216.184 20.3398 217.539 20.6136 218.823 21.1611C220.116 21.7087 221.225 22.4497 222.151 23.3843C223.085 24.3188 223.826 25.4328 224.374 26.7261C224.921 28.0194 225.195 29.3787 225.195 30.8042C225.195 32.2297 224.921 33.589 224.374 34.8823C223.826 36.1662 223.085 37.2707 222.151 38.1958C221.225 39.1209 220.116 39.8573 218.823 40.4048C217.539 40.9429 216.184 41.2119 214.759 41.2119C213.334 41.2119 211.974 40.9429 210.681 40.4048C209.397 39.8573 208.293 39.1209 207.367 38.1958C206.442 37.2707 205.706 36.1662 205.158 34.8823C204.62 33.589 204.351 32.2297 204.351 30.8042ZM208.982 30.8042C208.982 32.3807 209.548 33.7401 210.681 34.8823C211.823 36.0151 213.182 36.5815 214.759 36.5815C216.354 36.5815 217.718 36.0151 218.851 34.8823C219.994 33.7401 220.565 32.3807 220.565 30.8042C220.565 29.2088 219.994 27.84 218.851 26.6978C217.718 25.5555 216.354 24.9844 214.759 24.9844C213.182 24.9844 211.823 25.5555 210.681 26.6978C209.548 27.84 208.982 29.2088 208.982 30.8042Z" fill="black"/>
<path d="M22.0681 4.1678C26.7544 -0.518493 34.3524 -0.5185 39.0387 4.16779L57.0681 22.1972C61.7544 26.8835 61.7544 34.4815 57.0681 39.1678L39.0387 57.1972C34.3524 61.8835 26.7544 61.8835 22.0681 57.1972L4.03871 39.1678C-0.647583 34.4815 -0.647589 26.8835 4.0387 22.1972L22.0681 4.1678Z" fill="#E0CCFF"/>
<path d="M33.1324 37.7493C32.9631 37.7493 32.8427 37.6842 32.7711 37.554L28.1324 28.8918V37.4465C28.1324 37.5312 28.1031 37.6028 28.0445 37.6614C27.9924 37.72 27.9208 37.7493 27.8297 37.7493H25.2711C25.1799 37.7493 25.105 37.72 25.0464 37.6614C24.9944 37.6028 24.9683 37.5312 24.9683 37.4465V24.0481C24.9683 23.9635 24.9944 23.8918 25.0464 23.8333C25.105 23.7747 25.1799 23.7454 25.2711 23.7454H28.2496C28.4123 23.7454 28.5328 23.8137 28.6109 23.9504L33.2496 32.6125V24.0481C33.2496 23.9635 33.2756 23.8918 33.3277 23.8333C33.3863 23.7747 33.4612 23.7454 33.5523 23.7454H36.1109C36.202 23.7454 36.2737 23.7747 36.3257 23.8333C36.3843 23.8918 36.4136 23.9635 36.4136 24.0481V37.4465C36.4136 37.5312 36.3843 37.6028 36.3257 37.6614C36.2737 37.72 36.202 37.7493 36.1109 37.7493H33.1324Z" fill="#FF1203"/>
<path fill-rule="evenodd" clip-rule="evenodd" d="M30.5534 43.5159C37.6411 43.5159 43.3867 37.7703 43.3867 30.6826C43.3867 23.595 37.6411 17.8493 30.5534 17.8493C23.4658 17.8493 17.7201 23.595 17.7201 30.6826C17.7201 37.7703 23.4658 43.5159 30.5534 43.5159ZM30.5534 48.1826C40.2184 48.1826 48.0534 40.3476 48.0534 30.6826C48.0534 21.0176 40.2184 13.1826 30.5534 13.1826C20.8884 13.1826 13.0534 21.0176 13.0534 30.6826C13.0534 40.3476 20.8884 48.1826 30.5534 48.1826Z" fill="#4C84FF"/>
<rect x="50.2666" y="27.3083" width="10.6322" height="2.81" transform="rotate(147 50.2666 27.3083)" fill="#E0CCFF"/>
<rect x="107.61" y="24.1157" width="29.3594" height="2.81" transform="rotate(147 107.61 24.1157)" fill="#F5F5F5"/>
<rect x="179.907" y="24.1157" width="29.3594" height="2.81" transform="rotate(147 179.907 24.1157)" fill="#F5F5F5"/>
<rect x="226.643" y="24.4229" width="25.6369" height="2.81" transform="rotate(147 226.643 24.4229)" fill="#F5F5F5"/>
<rect x="17.7215" y="43.9558" width="12.58" height="2.81452" transform="rotate(-20 17.7215 43.9558)" fill="#E0CCFF"/>
<rect x="30.0427" y="40.9194" width="12.58" height="2.02882" transform="rotate(-39 30.0427 40.9194)" fill="#E0CCFF"/>
<rect x="19.5001" y="27.7256" width="12.58" height="2.02882" transform="rotate(-39 19.5001 27.7256)" fill="#E0CCFF"/>
<rect x="11.7015" y="22.8525" width="12.0382" height="2.81" transform="rotate(-7 11.7015 22.8525)" fill="#E0CCFF"/>
</svg>
