<svg xmlns="http://www.w3.org/2000/svg" width="12" height="11" viewBox="0 0 12 11">
  <path id="linkedin" d="M.151,10.9q0-3.615,0-7.228c0-.028,0-.053.006-.086H2.716v7.411c-.033,0-.065,0-.1,0-.786,0-1.572,0-2.357,0C.174,11,.151,10.978.151,10.9Zm9.28.1V7.082a2.955,2.955,0,0,0-.1-.846A1.206,1.206,0,0,0,8.9,5.585a1.255,1.255,0,0,0-.949-.222,1.355,1.355,0,0,0-1.175.982,1.726,1.726,0,0,0-.054.555c0,1.321,0,2.644,0,3.964v.126H4.156V3.584H6.725V4.61c.106-.13.19-.242.282-.349a2.424,2.424,0,0,1,1.553-.823,3.445,3.445,0,0,1,1.621.154,2.459,2.459,0,0,1,1.068.734A3.176,3.176,0,0,1,11.945,6c.019.14.038.278.055.418V11ZM.7,2.4a1.211,1.211,0,0,1-.682-.89C.015,1.49.008,1.472,0,1.451V1.12c.01-.038.021-.075.031-.113A1.287,1.287,0,0,1,1.185.018,1.741,1.741,0,0,1,2.218.171a1.239,1.239,0,0,1,.648,1.356,1.2,1.2,0,0,1-.907.958,1.882,1.882,0,0,1-.536.081A1.641,1.641,0,0,1,.7,2.4Z" fill="#fff"/>
</svg>
