<svg xmlns="http://www.w3.org/2000/svg" width="32.526" height="32.516" viewBox="0 0 32.526 32.516">
  <path id="Path_1903" data-name="Path 1903" d="M160.066,302.19h0a.606.606,0,0,1-.131.194l-1.186,1.186a.593.593,0,1,1-.839-.838l.174-.174H131.447a2.179,2.179,0,0,1-2.175-2.166V273.754l-.174.174a.593.593,0,0,1-.839-.839l1.187-1.186a.594.594,0,0,1,.193-.131h0a.579.579,0,0,1,.435,0h0a.607.607,0,0,1,.194.131l1.186,1.186a.593.593,0,1,1-.809.868l-.03-.03-.174-.174v13.592h27.643l-.174-.174a.593.593,0,0,1,.839-.839l1.186,1.187a.594.594,0,0,1,.131.193h0a.578.578,0,0,1,0,.435h0a.593.593,0,0,1-.131.193l-1.186,1.187a.593.593,0,0,1-.839-.839l.174-.174H130.458v11.877a.988.988,0,0,0,.989.988h26.638l-.174-.174a.593.593,0,0,1,.839-.839l1.186,1.187a.594.594,0,0,1,.131.193h0a.578.578,0,0,1,0,.435ZM154,290.247c-.581,5.61-2,8.958-3.787,8.958-1.542,0-3.491-6.132-4.428-9.093a.593.593,0,0,0-1.131.36c2.088,6.583,3.523,9.92,5.559,9.92,3.246,0,4.491-5.452,4.95-10.022a.6.6,0,1,0-1.187-.122h.024Zm-21.111-3.76a.594.594,0,0,0,.676-.5h0c.432-2.8,1.752-9.319,4.8-9.319,1.882,0,4,6.607,4.91,9.425a.593.593,0,0,0,1.13-.363c-2.087-6.492-3.744-10.248-6.04-10.248-3.819,0-5.377,6.468-5.966,10.326a.593.593,0,0,0,.494.672Z" transform="translate(-127.835 -271.478)" fill="#fc5546" stroke="#fc5546" stroke-width="0.5"/>
</svg>
