<svg xmlns="http://www.w3.org/2000/svg" width="7.656" height="7.657" viewBox="0 0 7.656 7.657">
  <g id="close" transform="translate(-4875.415 5398.585)">
    <g id="Path_18848" data-name="Path 18848" transform="translate(4875 -5399)" fill="#fff">
      <path d="M 1.414355158805847 7.57165002822876 C 1.280935168266296 7.57165002822876 1.155425190925598 7.519619941711426 1.060945153236389 7.425149917602539 C 0.8658551573753357 7.230040073394775 0.8658551573753357 6.912569999694824 1.060965180397034 6.717450141906738 L 2.828704833984375 4.949702262878418 L 3.535809755325317 5.656812191009521 L 1.767725229263306 7.425179958343506 C 1.673285126686096 7.519619941711426 1.547775149345398 7.57165002822876 1.414355158805847 7.57165002822876 Z M 7.070855140686035 7.570760250091553 C 6.937435150146484 7.570760250091553 6.811934947967529 7.518730163574219 6.717465400695801 7.424260139465332 L 4.949955940246582 5.656759262084961 L 5.65669584274292 4.949899196624756 L 7.42425537109375 6.717450141906738 C 7.518805027008057 6.812010288238525 7.570835113525391 6.937740325927734 7.570755004882812 7.071480274200439 C 7.570675373077393 7.204790115356445 7.518784999847412 7.329920291900635 7.424654960632324 7.423840045928955 C 7.329775333404541 7.518730163574219 7.204275131225586 7.570760250091553 7.070855140686035 7.570760250091553 Z M 5.656101226806641 3.536170721054077 L 4.949526309967041 2.828879117965698 L 6.717455387115479 1.060950040817261 C 6.811934947967529 0.9664800763130188 6.937555313110352 0.9144501090049744 7.071195125579834 0.9144501090049744 C 7.206545352935791 0.9144501090049744 7.328485012054443 0.9649701118469238 7.423845291137695 1.060550093650818 C 7.518335342407227 1.155040144920349 7.570155143737793 1.280550122261047 7.570155143737793 1.414350152015686 C 7.570155143737793 1.548150062561035 7.518335342407227 1.673660039901733 7.42425537109375 1.767750144004822 L 5.656101226806641 3.536170721054077 Z M 2.828701019287109 3.535504341125488 L 1.060955166816711 1.767750144004822 C 0.9668651819229126 1.673650145530701 0.9150452017784119 1.548150062561035 0.9150452017784119 1.414350152015686 C 0.9150452017784119 1.280550122261047 0.9668651819229126 1.155050039291382 1.060955166816711 1.060950040817261 C 1.156725168228149 0.9649701118469238 1.27866518497467 0.9144501090049744 1.414015173912048 0.9144501090049744 C 1.54765522480011 0.9144501090049744 1.673275232315063 0.9664800763130188 1.767755150794983 1.060950040817261 L 3.535505056381226 2.828700065612793 L 2.828701019287109 3.535504341125488 Z" stroke="none"/>
      <path d="M 1.414157032966614 7.071648120880127 L 1.414145231246948 7.071660041809082 L 2.828734397888184 5.656844139099121 L 2.828442811965942 5.656552791595459 L 1.412385225296021 7.071549892425537 C 1.412385225296021 7.071549892425537 1.412953019142151 7.071639060974121 1.414157032966614 7.071648120880127 M 7.070441246032715 7.070756435394287 L 5.656726837158203 5.657048225402832 L 5.656696796417236 5.657078742980957 L 7.068885326385498 7.07066011428833 C 7.068893909454346 7.07066011428833 7.069386959075928 7.070738792419434 7.070441246032715 7.070756435394287 M 1.414355158805847 8.071650505065918 C 1.147385120391846 8.071650505065918 0.8963151574134827 7.967609882354736 0.707405149936676 7.778709888458252 C 0.3173451721668243 7.3886399269104 0.3173451721668243 6.753970146179199 0.707405149936676 6.363900184631348 L 2.828705072402954 4.242599964141846 L 4.242885112762451 5.656790256500244 L 2.121305227279663 7.778709888458252 C 1.932395219802856 7.967609882354736 1.681325197219849 8.071650505065918 1.414355158805847 8.071650505065918 Z M 7.070855140686035 8.070759773254395 C 6.803884983062744 8.070759773254395 6.552814960479736 7.966720104217529 6.36390495300293 7.7778000831604 L 4.242885112762451 5.656790256500244 L 5.656665325164795 4.242770195007324 L 5.65595531463623 4.243470191955566 L 5.655245304107666 4.242770195007324 L 4.242605209350586 2.828700065612793 L 6.36390495300293 0.7074000835418701 C 6.552814960479736 0.5184900760650635 6.803995132446289 0.4144501090049744 7.071195125579834 0.4144501090049744 C 7.338385105133057 0.4144501090049744 7.589324951171875 0.5184900760650635 7.777805328369141 0.7074000835418701 C 7.966335296630859 0.8959301114082336 8.070155143737793 1.147000074386597 8.070155143737793 1.414350152015686 C 8.070155143737793 1.681700110435486 7.966335296630859 1.932770133018494 7.777805328369141 2.121299982070923 L 5.656665325164795 4.242770195007324 L 7.777805328369141 6.363900184631348 C 7.966875076293945 6.552979946136475 8.070915222167969 6.804369926452637 8.070755004882812 7.071780204772949 C 8.070594787597656 7.338749885559082 7.966555118560791 7.589479923248291 7.777805328369141 7.7778000831604 C 7.588895320892334 7.966720104217529 7.337825298309326 8.070759773254395 7.070855140686035 8.070759773254395 Z M 2.828705072402954 4.242589950561523 L 2.82799506187439 4.241889953613281 L 0.707405149936676 2.121299982070923 C 0.5188751816749573 1.932770133018494 0.4150451719760895 1.681700110435486 0.4150451719760895 1.414350152015686 C 0.4150451719760895 1.147000074386597 0.5188751816749573 0.8959301114082336 0.707405149936676 0.7074000835418701 C 0.895885169506073 0.5184900760650635 1.146825194358826 0.4144501090049744 1.414015173912048 0.4144501090049744 C 1.681215167045593 0.4144501090049744 1.932395219802856 0.5184900760650635 2.121305227279663 0.7074000835418701 L 4.242605209350586 2.828700065612793 L 2.828705072402954 4.242589950561523 Z" stroke="none" fill="#8143e3"/>
    </g>
  </g>
</svg>
