<svg xmlns="http://www.w3.org/2000/svg" width="23.927" height="23.922" viewBox="0 0 23.927 23.922">
  <path id="instagram" d="M11.961,8.065A6.133,6.133,0,1,0,18.094,14.2,6.124,6.124,0,0,0,11.961,8.065Zm0,10.121A3.987,3.987,0,1,1,15.948,14.2a3.995,3.995,0,0,1-3.987,3.987ZM19.776,7.814a1.431,1.431,0,1,1-1.431-1.431A1.427,1.427,0,0,1,19.776,7.814Zm4.062,1.452a7.079,7.079,0,0,0-1.932-5.012,7.126,7.126,0,0,0-5.012-1.932c-1.975-.112-7.895-.112-9.87,0A7.116,7.116,0,0,0,2.011,4.249,7.1,7.1,0,0,0,.079,9.261c-.112,1.975-.112,7.895,0,9.87a7.079,7.079,0,0,0,1.932,5.012,7.135,7.135,0,0,0,5.012,1.932c1.975.112,7.895.112,9.87,0a7.079,7.079,0,0,0,5.012-1.932,7.126,7.126,0,0,0,1.932-5.012c.112-1.975.112-7.889,0-9.864ZM21.286,21.25a4.037,4.037,0,0,1-2.274,2.274c-1.575.625-5.311.48-7.051.48s-5.482.139-7.051-.48A4.037,4.037,0,0,1,2.636,21.25c-.625-1.575-.48-5.311-.48-7.051s-.139-5.482.48-7.051A4.037,4.037,0,0,1,4.91,4.873c1.575-.625,5.311-.48,7.051-.48s5.482-.139,7.051.48a4.037,4.037,0,0,1,2.274,2.274c.625,1.575.48,5.311.48,7.051S21.911,19.681,21.286,21.25Z" transform="translate(0.005 -2.238)" fill="#707070"/>
</svg>
