<svg xmlns="http://www.w3.org/2000/svg" width="17.116" height="21.675" viewBox="0 0 17.116 21.675">
  <path id="location" d="M757.882,257.675a3.717,3.717,0,0,1-.513-.455c-1.353-1.739-2.716-3.473-4.032-5.235a20.151,20.151,0,0,1-2.692-4.652A8.383,8.383,0,0,1,750,244.1a7.451,7.451,0,0,1,5.818-6.8c.493-.124,1.008-.174,1.512-.259.05-.009.1-.022.149-.034h1.164c.439.068.884.115,1.316.207a7.617,7.617,0,0,1,6.086,6.066,8.049,8.049,0,0,1-.709,4.4,22.571,22.571,0,0,1-2.857,4.735c-1.262,1.673-2.561,3.324-3.853,4.979a1.866,1.866,0,0,1-.386.288Zm-.47-19.432a6.607,6.607,0,0,0-5.806,4.341,6.156,6.156,0,0,0,.207,4.085,16.242,16.242,0,0,0,2.218,4.036c1.291,1.753,2.641,3.471,3.966,5.2a.771.771,0,0,0,.066.065c.031-.033.057-.056.077-.082,1.132-1.461,2.283-2.91,3.389-4.387a20.109,20.109,0,0,0,2.649-4.494,6.708,6.708,0,0,0,.547-3.521,6.522,6.522,0,0,0-6.68-5.273Q757.731,238.217,757.413,238.243Zm.638,10.089a4.034,4.034,0,1,1,.008,0Zm0-6.425a2.7,2.7,0,1,0,.006,0Z" transform="translate(-749.499 -236.5)" fill="#999" stroke="rgba(0,0,0,0)" stroke-miterlimit="10" stroke-width="1"/>
</svg>
