<svg xmlns="http://www.w3.org/2000/svg" width="49.038" height="38.889" viewBox="0 0 49.038 38.889">
  <g id="quote" transform="translate(-50.308 -76.406)">
    <path id="Path_103" data-name="Path 103" d="M97.967,76.406l1.379,2.275Q87.606,84.976,87.606,90.422a3.247,3.247,0,0,0,.967,2.322,14.243,14.243,0,0,0,3.454,2.31,15.408,15.408,0,0,1,5.423,4.1,8.886,8.886,0,0,1,1.615,5.422,10.379,10.379,0,0,1-3.1,7.6,10.178,10.178,0,0,1-7.462,3.112,9.547,9.547,0,0,1-7.91-3.867q-3.006-3.872-3.006-10.091a23.236,23.236,0,0,1,1.969-9.4A24.894,24.894,0,0,1,85.389,83.8,40.753,40.753,0,0,1,97.967,76.406Zm-27.289,0,1.379,2.275Q60.316,84.905,60.316,90.422q0,2.352,4.421,4.633a16.337,16.337,0,0,1,5.493,4.138,8.769,8.769,0,0,1,1.556,5.387,10.747,10.747,0,0,1-10.645,10.715,9.457,9.457,0,0,1-7.827-3.867q-3.006-3.872-3.006-10.091A23.283,23.283,0,0,1,58.041,83.8a30.527,30.527,0,0,1,5.14-3.9A59.281,59.281,0,0,1,70.678,76.406Z" transform="translate(0 0)" fill="#fff"/>
  </g>
</svg>
