<svg xmlns="http://www.w3.org/2000/svg" width="20.207" height="13.478" viewBox="0 0 20.207 13.478">
  <path id="youtube" d="M772.513-1356.693c0-.008,0-.016-.006-.024a2.766,2.766,0,0,0-2-1.918,66.5,66.5,0,0,0-7.682-.356,60.626,60.626,0,0,0-7.7.393,2.767,2.767,0,0,0-1.995,1.938,22.77,22.77,0,0,0-.412,4.422,22.733,22.733,0,0,0,.421,4.495,2.782,2.782,0,0,0,1.991,1.839,60.725,60.725,0,0,0,7.691.391,60.62,60.62,0,0,0,7.7-.393,2.765,2.765,0,0,0,1.995-1.939,22.755,22.755,0,0,0,.412-4.389A22.754,22.754,0,0,0,772.513-1356.693Zm-6.406,4.78-5.074,2.694a.422.422,0,0,1-.2.048.418.418,0,0,1-.2-.05.367.367,0,0,1-.2-.32v-5.388a.367.367,0,0,1,.2-.321.422.422,0,0,1,.4,0l5.074,2.694a.367.367,0,0,1,.2.322A.367.367,0,0,1,766.107-1351.913Z" transform="translate(-752.719 1358.991)" fill="#fff"/>
</svg>
