<svg id="Contact-Us---Option-1" xmlns="http://www.w3.org/2000/svg" width="72" height="72" viewBox="0 0 72 72">
  <g id="ic-contact-whatsapp">
    <path id="Path" d="M0,72,6.192,53.425A35.375,35.375,0,1,1,20.16,66.7Z" fill="#339e3e"/>
    <path id="Path-2" data-name="Path" d="M45.984,36.652c-1.253-2.369-5.875-5.077-5.875-5.077-1.046-.6-2.308-.663-2.9.4a23.932,23.932,0,0,1-1.884,2.06,3.511,3.511,0,0,1-4.992-.5l-3.791-3.791-3.791-3.791a3.51,3.51,0,0,1-.5-4.992,23.932,23.932,0,0,1,2.06-1.884c1.063-.6,1-1.858.4-2.9,0,0-2.709-4.622-5.077-5.875a2.6,2.6,0,0,0-3.05.459l-1.674,1.674c-5.312,5.311-2.7,11.308,2.615,16.619l4.854,4.854,4.854,4.854c5.311,5.312,11.308,7.927,16.619,2.615L45.526,39.7A2.6,2.6,0,0,0,45.984,36.652Z" transform="translate(8.571 7.143)" fill="#fff"/>
  </g>
</svg>
