<svg xmlns="http://www.w3.org/2000/svg" width="78" height="78" viewBox="0 0 78 78">
  <g id="iconfinder-phone-4341310_120556" transform="translate(-5.949 -5.949)">
    <g id="Group_51" data-name="Group 51" transform="translate(6.281 6.281)">
      <circle id="Ellipse_18" data-name="Ellipse 18" cx="39" cy="39" r="39" transform="translate(-0.332 -0.332)" fill="#35495e"/>
    </g>
    <path id="Path_97" data-name="Path 97" d="M161.852,152.077l-.2-.2-18.68-18.68q-12.855-12.855-25.7-25.711a2.937,2.937,0,0,0-4.262-.016c-.762.778-1.524,1.524-2.286,2.3a2.835,2.835,0,0,0-.824,2.66.341.341,0,0,1-.109.373l-.187.187a9.055,9.055,0,0,0-2.738,5.739,15.946,15.946,0,0,0,.249,5.008,27.7,27.7,0,0,0,2.535,7.108,43.291,43.291,0,0,0,8.119,11.043q12.249,12.3,24.544,24.544l.156.156c.016.031.047.047.062.062A39.168,39.168,0,0,0,161.852,152.077Z" transform="translate(-85.033 -84.855)" fill="#2c3e50"/>
    <path id="Path_98" data-name="Path 98" d="M151.93,142.2l-9.332-9.332a2.854,2.854,0,0,0-4.044,0l-2.426,2.426a2.852,2.852,0,0,0-.715,2.815l-.918.918h0c-.653.653-4.7-.342-9.6-5.242s-5.9-8.944-5.242-9.6h0l.918-.918a2.788,2.788,0,0,0,.793.109,2.851,2.851,0,0,0,2.022-.84l2.426-2.426a2.854,2.854,0,0,0,0-4.044l-9.332-9.332a2.854,2.854,0,0,0-4.044,0l-2.426,2.442A2.852,2.852,0,0,0,109.3,112s-.778.778-.809.84c-2.582,2.878-3.064,7.388-1.353,12.785,1.68,5.288,5.288,10.888,10.172,15.772s10.483,8.493,15.772,10.172a19.893,19.893,0,0,0,5.911,1.011,9.909,9.909,0,0,0,7.2-2.66l.513-.513a2.714,2.714,0,0,0,.793.109,2.836,2.836,0,0,0,2.022-.84l2.426-2.426A2.868,2.868,0,0,0,151.93,142.2Zm-37.47-34.421,10.328,10.328-3.422,3.422L111.039,111.2Zm30.191,40.612a7.76,7.76,0,0,1-5.677,2.038,17.6,17.6,0,0,1-5.257-.9,38.4,38.4,0,0,1-14.9-9.644c-4.651-4.651-8.073-9.939-9.644-14.9-1.524-4.806-1.12-8.695,1.135-10.935l.747-.747,8.228,8.228-1.182,1.182c-2.38,2.411.933,8.306,5.257,12.63,3.671,3.671,7.793,6.035,10.483,6.035a2.955,2.955,0,0,0,2.146-.778l1.167-1.167,8.228,8.228Zm3.717-1.618c-.5.5-.591.591-.824.591h-.078l-.264-.016-10.017-10.017,3.422-3.422,10.328,10.328Z" transform="translate(-84.49 -84.298)" fill="#fff"/>
  </g>
</svg>
