<svg xmlns="http://www.w3.org/2000/svg" width="18" height="16" viewBox="0 0 18 16">
  <path id="heart" d="M14.176,27.887h-.023A.42.42,0,0,1,13.9,27.8c-.241-.179-5.923-4.416-8.016-7.99L5.878,19.8a5.39,5.39,0,0,1-.714-2.692,5.116,5.116,0,0,1,4.992-5.22,4.924,4.924,0,0,1,4.008,2.106,4.921,4.921,0,0,1,4.008-2.106,5.116,5.116,0,0,1,4.992,5.22A5.39,5.39,0,0,1,22.45,19.8l-.008.015c-2.093,3.574-7.775,7.812-8.016,7.99a.415.415,0,0,1-.25.084Z" transform="translate(-5.164 -11.887)" fill="#ffb1c6"/>
</svg>
