<svg xmlns="http://www.w3.org/2000/svg" width="15.751" height="15.751" viewBox="0 0 15.751 15.751">
  <path id="instagram" d="M7.877,0C5.736,0,5.47.011,4.632.046A5.861,5.861,0,0,0,2.719.413a3.863,3.863,0,0,0-1.395.91,3.819,3.819,0,0,0-.91,1.395A5.835,5.835,0,0,0,.048,4.63C.01,5.468,0,5.735,0,7.875s.011,2.408.046,3.245a5.875,5.875,0,0,0,.367,1.913,3.863,3.863,0,0,0,.91,1.395,3.819,3.819,0,0,0,1.395.91,5.92,5.92,0,0,0,1.913.367c.838.038,1.1.046,3.245.046s2.408-.011,3.245-.046a5.946,5.946,0,0,0,1.913-.367,3.863,3.863,0,0,0,1.395-.91,3.8,3.8,0,0,0,.91-1.395,5.92,5.92,0,0,0,.367-1.913c.038-.838.046-1.1.046-3.245s-.011-2.408-.046-3.245a5.928,5.928,0,0,0-.367-1.913,3.863,3.863,0,0,0-.91-1.395,3.8,3.8,0,0,0-1.395-.91A5.85,5.85,0,0,0,11.123.046C10.285.008,10.019,0,7.877,0Zm0,1.418c2.1,0,2.354.011,3.185.046a4.361,4.361,0,0,1,1.461.272,2.456,2.456,0,0,1,.908.589,2.427,2.427,0,0,1,.587.905,4.361,4.361,0,0,1,.272,1.461c.035.831.046,1.083.046,3.185s-.011,2.354-.049,3.185a4.49,4.49,0,0,1-.277,1.461,2.564,2.564,0,0,1-.59.908,2.485,2.485,0,0,1-.908.587,4.367,4.367,0,0,1-1.466.272c-.835.035-1.082.046-3.189.046s-2.354-.011-3.19-.049A4.532,4.532,0,0,1,3.2,14.009a2.472,2.472,0,0,1-.905-.59,2.367,2.367,0,0,1-.589-.908,4.4,4.4,0,0,1-.277-1.466c-.028-.826-.042-1.082-.042-3.179s.013-2.354.042-3.189A4.4,4.4,0,0,1,1.705,3.21,2.31,2.31,0,0,1,2.295,2.3a2.347,2.347,0,0,1,.905-.59,4.393,4.393,0,0,1,1.459-.274c.835-.03,1.082-.041,3.186-.041Zm0,2.415a4.043,4.043,0,1,0,4.043,4.043A4.041,4.041,0,0,0,7.877,3.833Zm0,6.668A2.625,2.625,0,1,1,10.5,7.876,2.624,2.624,0,0,1,7.877,10.5Zm5.151-6.83a.946.946,0,1,1-.946-.944.946.946,0,0,1,.946.944Z" transform="translate(-0.002)" fill="#fff"/>
</svg>
