<svg xmlns="http://www.w3.org/2000/svg" width="20.708" height="20.748" viewBox="0 0 20.708 20.748">
  <path id="phone" d="M15.432,20.54c-.375-.063-.752-.112-1.125-.192a14.653,14.653,0,0,1-3.949-1.618,21.094,21.094,0,0,1-5.2-4.073A20.841,20.841,0,0,1,.831,7.91,8.768,8.768,0,0,1,.2,5.022a3.475,3.475,0,0,1,.952-2.657C1.723,1.777,2.279,1.166,2.9.63A2,2,0,0,1,5.815.669c.974.914,1.916,1.874,2.822,2.852h0a1.939,1.939,0,0,1,0,2.636C8.155,6.7,7.621,7.2,7.113,7.724c-.046.044-.1.082-.18.159h0a14.859,14.859,0,0,0,5.854,5.837L14,12.491h0A3.061,3.061,0,0,1,15.1,11.67a1.835,1.835,0,0,1,2,.356q1.53,1.456,2.984,2.994a1.956,1.956,0,0,1,.052,2.608c-.613.723-1.292,1.406-1.979,2.069a3.053,3.053,0,0,1-1.773.791,1.4,1.4,0,0,0-.14.041Zm.3-1.234h0a2.346,2.346,0,0,0,1.82-.716c.46-.482.93-.952,1.4-1.429.06-.061.116-.125.17-.192a.838.838,0,0,0-.025-1.2c-.375-.4-.772-.789-1.16-1.18-.506-.506-1.007-1.015-1.519-1.514h0a.821.821,0,0,0-1.2-.033c-.077.063-.145.134-.216.205-.487.484-.969.974-1.458,1.453a.929.929,0,0,1-1.164.195c-.3-.151-.594-.3-.882-.47h0a15.144,15.144,0,0,1-3.4-2.835,12.244,12.244,0,0,1-2.249-3.2,1.039,1.039,0,0,1,.274-1.439c.5-.487,1.037-1,1.532-1.53a.783.783,0,0,0,.019-1.147c-.06-.071-.123-.137-.186-.2L5.09,1.656a.913.913,0,0,0-1.486,0c-.514.512-1,.963-1.467,1.475a2.735,2.735,0,0,0-.547.821,3.491,3.491,0,0,0-.025,2.012A12.224,12.224,0,0,0,2.632,8.906a20.1,20.1,0,0,0,3.109,4.518,19.6,19.6,0,0,0,7.849,5.419,7.131,7.131,0,0,0,2.145.452Z" transform="translate(-0.086 0.108)" fill="#fff" stroke="#fff" stroke-width="0.2"/>
</svg>
