<svg xmlns="http://www.w3.org/2000/svg" width="28.435" height="32.127" viewBox="0 0 28.435 32.127">
  <g id="Group_1939" data-name="Group 1939" transform="translate(-1905.998 -3937.022)">
    <g id="Group_1934" data-name="Group 1934" transform="translate(1906 3947.399)">
      <path id="Path_7700" data-name="Path 7700" d="M263.218,156h-4.842a.412.412,0,0,0,0,.808h4.842a1.148,1.148,0,0,1,1.022,1.239v17.141a1.148,1.148,0,0,1-1.022,1.24h-24.53a1.149,1.149,0,0,1-1.022-1.24V158.047a1.148,1.148,0,0,1,1.022-1.239h4.842a.412.412,0,0,0,0-.808h-4.842A1.9,1.9,0,0,0,237,158.047v17.141a1.9,1.9,0,0,0,1.688,2.048h24.53a1.9,1.9,0,0,0,1.688-2.048V158.047A1.9,1.9,0,0,0,263.218,156Z" transform="translate(-236.742 -155.742)" fill="#fc5546"/>
      <path id="Path_7701" data-name="Path 7701" d="M263.226,177.5H238.7a2.152,2.152,0,0,1-1.946-2.307V158.056a2.152,2.152,0,0,1,1.946-2.306h4.841a.667.667,0,0,1,0,1.325H238.7a.894.894,0,0,0-.763.981V175.2a.894.894,0,0,0,.763.982h24.53a.894.894,0,0,0,.763-.982V158.056a.894.894,0,0,0-.763-.981h-4.841a.667.667,0,0,1,0-1.325h4.841a2.152,2.152,0,0,1,1.946,2.306V175.2A2.152,2.152,0,0,1,263.226,177.5ZM238.7,156.267a1.641,1.641,0,0,0-1.429,1.789V175.2a1.642,1.642,0,0,0,1.429,1.79h24.53a1.642,1.642,0,0,0,1.429-1.79V158.056a1.641,1.641,0,0,0-1.429-1.789h-4.841c-.026,0-.075.057-.075.147s.05.145.075.145h4.841a1.4,1.4,0,0,1,1.28,1.5V175.2a1.4,1.4,0,0,1-1.28,1.5H238.7a1.4,1.4,0,0,1-1.28-1.5V158.056a1.4,1.4,0,0,1,1.28-1.5h4.841c.026,0,.075-.056.075-.146s-.05-.146-.075-.146Z" transform="translate(-236.75 -155.75)" fill="#fc5546"/>
    </g>
    <g id="Group_1935" data-name="Group 1935" transform="translate(1914.098 3950.963)">
      <path id="Path_7702" data-name="Path 7702" d="M250.743,173.152a.8.8,0,0,1-.294-.055l-.14-.063-5.3-3.059a.853.853,0,0,1-.426-.737v-6.127a.854.854,0,0,1,.426-.737l5.306-3.062a.853.853,0,0,1,.851,0l5.306,3.063a.853.853,0,0,1,.426.737v6.127a.855.855,0,0,1-.426.738l-5.429,3.119a.814.814,0,0,1-.3.056Zm-5.124-4.018,5.124,2.958,5.123-2.958v-5.917l-5.124-2.957-5.123,2.957Z" transform="translate(-244.585 -159.198)" fill="#fc5546"/>
    </g>
    <g id="Group_1936" data-name="Group 1936" transform="translate(1914.897 3937.023)">
      <path id="Path_7703" data-name="Path 7703" d="M253.117,157.116h-5.462v-5.443h-1.34a.955.955,0,0,1-.675-1.63l4.071-4.071a1,1,0,0,1,1.351,0l4.071,4.07a.955.955,0,0,1-.675,1.63h-1.34Zm-4.429-1.034h3.4V150.64h2.184l-3.882-3.881-3.89,3.881h2.184Z" transform="translate(-245.359 -145.711)" fill="#fc5546"/>
    </g>
    <g id="Group_1937" data-name="Group 1937" transform="translate(1914.539 3954.129)">
      <path id="Path_7704" data-name="Path 7704" d="M250.682,166.193l-5.67-3.018.485-.912,5.188,2.761,5.276-2.763.479.916Z" transform="translate(-245.012 -162.261)" fill="#fc5546"/>
    </g>
    <g id="Group_1938" data-name="Group 1938" transform="translate(1919.906 3957.477)">
      <rect id="Rectangle_1024" data-name="Rectangle 1024" width="1.034" height="6.879" fill="#fc5546"/>
    </g>
  </g>
</svg>
