<svg xmlns="http://www.w3.org/2000/svg" width="64.71" height="54.009" viewBox="0 0 64.71 54.009">
  <g id="Icons1" transform="translate(-8.113 -12)">
    <path id="quote-1" d="M33.9,12V22.844q-5.142.284-7.785,1.878A8.617,8.617,0,0,0,22.4,29.9a37.666,37.666,0,0,0-1.072,10.242H33.9V66.009H8.113v-24.6q0-15.239,6.535-22.326T33.9,12Zm38.926,0V22.844a17.908,17.908,0,0,0-7.785,1.808,8.739,8.739,0,0,0-3.821,5.174,35.136,35.136,0,0,0-1.178,10.312H72.823V66.009H46.9v-24.6q0-15.239,6.5-22.326T72.823,12Z" transform="translate(0 0)" fill="#fc5546"/>
  </g>
</svg>
