<svg xmlns="http://www.w3.org/2000/svg" width="16" height="13" viewBox="0 0 16 13">
  <path id="twitter" d="M16,1.5a5.918,5.918,0,0,1-1.9.5A2.827,2.827,0,0,0,15.5.2a6.561,6.561,0,0,1-2.1.8A3.492,3.492,0,0,0,11,0,3.311,3.311,0,0,0,7.8,3.3a1.483,1.483,0,0,0,.1.7A9.2,9.2,0,0,1,1.1.6,2.934,2.934,0,0,0,.7,2.2,3.282,3.282,0,0,0,2.2,4.9,4.191,4.191,0,0,1,.7,4.5h0A3.228,3.228,0,0,0,3.3,7.7a1.486,1.486,0,0,1-.9.2,1.268,1.268,0,0,1-.6-.1,3.24,3.24,0,0,0,3.1,2.3A6.359,6.359,0,0,1,.8,11.5H0A8.9,8.9,0,0,0,5,13a9.256,9.256,0,0,0,9.3-9.3V3.3A5.814,5.814,0,0,0,16,1.5Z" fill="#fff"/>
</svg>
