<svg xmlns="http://www.w3.org/2000/svg" width="226.621" height="60.062" viewBox="0 0 226.621 60.062">
    <g id="footer-logo" transform="translate(299 828)">
        <g id="Group_1960" data-name="Group 1960">
            <g id="logo">
                <path
                    id="Path_17487"
                    data-name="Path 17487"
                    d="M22.068,4.168a12,12,0,0,1,16.971,0L57.068,22.2a12,12,0,0,1,0,16.971L39.039,57.2a12,12,0,0,1-16.971,0L4.039,39.168a12,12,0,0,1,0-16.971Z"
                    transform="translate(-299.524 -828.653)"
                    fill="#e0ccff"
                />
                <path
                    id="Path_17488"
                    data-name="Path 17488"
                    d="M33.132,37.749a.379.379,0,0,1-.361-.2l-4.639-8.662v8.555a.292.292,0,0,1-.088.215.273.273,0,0,1-.215.088H25.271a.3.3,0,0,1-.225-.088.312.312,0,0,1-.078-.215v-13.4a.312.312,0,0,1,.078-.215.3.3,0,0,1,.225-.088H28.25a.388.388,0,0,1,.361.2L33.25,32.6V24.048a.312.312,0,0,1,.078-.215.3.3,0,0,1,.225-.088h2.559a.273.273,0,0,1,.215.088.292.292,0,0,1,.088.215v13.4a.292.292,0,0,1-.088.215.273.273,0,0,1-.215.088Z"
                    transform="translate(-299.524 -828.653)"
                    fill="#ff1203"
                />
                <g id="Group_1949" data-name="Group 1949" transform="translate(-1)">
                    <rect id="Rectangle_3964" data-name="Rectangle 3964" width="12.58" height="2.029" transform="translate(-268.481 -787.734) rotate(-39)" fill="#e0ccff" />
                    <rect id="Rectangle_3965" data-name="Rectangle 3965" width="12.58" height="2.029" transform="translate(-279.024 -800.927) rotate(-39)" fill="#e0ccff" />
                </g>
                <g id="Group_1954" data-name="Group 1954">
                    <g id="Group_1953" data-name="Group 1953">
                        <g id="Group_1951" data-name="Group 1951">
                            <g id="Group_1943" data-name="Group 1943" transform="translate(-0.793)">
                                <path
                                    id="logoSpin"
                                    d="M30.553,43.516A12.833,12.833,0,1,0,17.72,30.683,12.833,12.833,0,0,0,30.553,43.516Zm0,4.667a17.5,17.5,0,1,0-17.5-17.5A17.5,17.5,0,0,0,30.553,48.183Z"
                                    transform="translate(-298.524 -828.653)"
                                    fill="#4c84ff"
                                    fill-rule="evenodd"
                                />
                                <path id="Path_17489" data-name="Path 17489" d="M0,0H4.884V2.81H0Z" transform="matrix(0.999, -0.035, 0.035, 0.999, -255.4, -800.002)" fill="#e0ccff" />
                            </g>
                        </g>
                    </g>
                    <g id="Group_1952" data-name="Group 1952">
                        <g id="Group_1950" data-name="Group 1950">
                            <rect id="Rectangle_3963" data-name="Rectangle 3963" width="5.58" height="2.815" transform="translate(-273.539 -786.182) rotate(126.011)" fill="#e0ccff" />
                            <rect id="Rectangle_3966" data-name="Rectangle 3966" width="5.645" height="2.81" transform="translate(-278.936 -813.115) rotate(47)" fill="#e0ccff" />
                        </g>
                    </g>
                </g>
                <g id="Group_1959" data-name="Group 1959">
                    <g id="Group_1958" data-name="Group 1958">
                        <path
                            id="Path_17479"
                            data-name="Path 17479"
                            d="M68.046,40.376v-19.2a.52.52,0,0,1,.156-.382.514.514,0,0,1,.4-.17h7a6.234,6.234,0,0,1,4.574,1.9,6.116,6.116,0,0,1,1.912,4.517,6.364,6.364,0,0,1-.878,3.271,6.458,6.458,0,0,1-2.351,2.379,6.237,6.237,0,0,1-3.229.878H72.577V40.38a.583.583,0,0,1-.552.552H68.6a.537.537,0,0,1-.4-.156.568.568,0,0,1-.154-.4Zm4.531-11.045h2.747a2.3,2.3,0,0,0,2.294-2.294,1.994,1.994,0,0,0-.68-1.529,2.276,2.276,0,0,0-1.614-.623H72.577Z"
                            transform="translate(-299.524 -828.653)"
                            fill="#e24b4b"
                        />
                        <path
                            id="Path_17480"
                            data-name="Path 17480"
                            d="M196.252,21.175a.583.583,0,0,1,.552-.552h3.483a.583.583,0,0,1,.553.552v19.2a.583.583,0,0,1-.553.552H196.8a.526.526,0,0,1-.382-.17Z"
                            transform="translate(-299.524 -828.653)"
                            fill="#31dd9f"
                        />
                        <path
                            id="Path_17481"
                            data-name="Path 17481"
                            d="M108.006,40.376v-19.2a.555.555,0,0,1,.552-.552h8.666a6.378,6.378,0,0,1,5.48,3.129,6.094,6.094,0,0,1,.849,3.144,5.621,5.621,0,0,1-1.175,3.5,7.184,7.184,0,0,1-3.115,2.322l3.965,7.377a.578.578,0,0,1,.014.566.513.513,0,0,1-.5.269h-3.865a.475.475,0,0,1-.468-.255l-3.851-7.689h-2v7.392a.583.583,0,0,1-.552.552h-3.455a.537.537,0,0,1-.4-.156.567.567,0,0,1-.145-.4ZM112.565,29.3h4.291a2.048,2.048,0,0,0,1.543-.694,2.335,2.335,0,0,0,.651-1.628,2.224,2.224,0,0,0-2.194-2.209h-4.291Z"
                            transform="translate(-299.524 -828.653)"
                            fill="#1457f5"
                        />
                        <path
                            id="Path_17482"
                            data-name="Path 17482"
                            d="M130.039,40.376V24.885H125.9a.536.536,0,0,1-.4-.156.551.551,0,0,1-.156-.382V21.175a.519.519,0,0,1,.156-.382.513.513,0,0,1,.4-.17h12.872a.556.556,0,0,1,.556.552v3.172a.551.551,0,0,1-.156.382.537.537,0,0,1-.4.156h-4.149V40.376a.583.583,0,0,1-.553.552h-3.483a.583.583,0,0,1-.552-.552Z"
                            transform="translate(-299.524 -828.653)"
                            fill="#2097ef"
                        />
                        <path
                            id="Path_17483"
                            data-name="Path 17483"
                            d="M142.216,40.376v-19.2a.556.556,0,0,1,.553-.552h12.008a.556.556,0,0,1,.556.552v3.172a.551.551,0,0,1-.156.382.537.537,0,0,1-.4.156h-8.029v4.177h6.613a.485.485,0,0,1,.368.17.529.529,0,0,1,.17.382v3.172a.529.529,0,0,1-.17.382.5.5,0,0,1-.368.156h-6.613v7.052a.583.583,0,0,1-.553.552h-3.426a.538.538,0,0,1-.4-.156A.568.568,0,0,1,142.216,40.376Z"
                            transform="translate(-299.524 -828.653)"
                            fill="#d811e4"
                        />
                        <path
                            id="Path_17485"
                            data-name="Path 17485"
                            d="M181.44,40.376v-19.2a.556.556,0,0,1,.556-.552h3.455a.583.583,0,0,1,.553.552V36.667h6.9a.514.514,0,0,1,.4.17.52.52,0,0,1,.156.382v3.158a.568.568,0,0,1-.156.4.537.537,0,0,1-.4.156H182a.537.537,0,0,1-.4-.156.568.568,0,0,1-.164-.4Z"
                            transform="translate(-299.524 -828.653)"
                            fill="#1c45a8"
                        />
                        <g id="Group_1955" data-name="Group 1955" transform="translate(-273.628 77.787) rotate(42)">
                            <path id="Path_17491" data-name="Path 17491" d="M2.879,17.9l1.912-1.815L6.24,14.6a5.958,5.958,0,0,1,8.293-8.4l1.693-1.69L17.918,2.9a10.649,10.649,0,0,0-15.039,15" transform="translate(-456.313 -787.888)" />
                            <path
                                id="Path_17492"
                                data-name="Path 17492"
                                d="M27.886,27.869a5.851,5.851,0,0,1-7.655.533L18.7,29.9l-1.775,1.748A10.452,10.452,0,0,0,31.68,16.92l-1.53,1.632-1.77,1.6a5.862,5.862,0,0,1-.494,7.711Z"
                                transform="translate(-469.305 -800.899)"
                                fill="#d50c0c"
                            />
                        </g>
                        <g id="Group_1956" data-name="Group 1956" transform="translate(-394.38 78.163) rotate(42)">
                            <path
                                id="Path_17491-2"
                                data-name="Path 17491"
                                d="M2.879,17.9l1.735-1.736L6.24,14.6a5.958,5.958,0,0,1,8.293-8.4l1.83-1.8,1.555-1.5a10.649,10.649,0,0,0-15.039,15"
                                transform="translate(-456.313 -787.888)"
                                fill="#1457f5"
                            />
                            <path
                                id="Path_17492-2"
                                data-name="Path 17492"
                                d="M27.886,27.869a5.851,5.851,0,0,1-7.655.533L18.59,29.957l-1.668,1.687A10.452,10.452,0,0,0,31.68,16.92L30.2,18.42,28.38,20.157a5.862,5.862,0,0,1-.494,7.711Z"
                                transform="translate(-469.305 -800.899)"
                                fill="#d811e4"
                            />
                        </g>
                        <g id="Group_1957" data-name="Group 1957" transform="translate(-320.851 77.504) rotate(42)">
                            <path
                                id="Path_17491-3"
                                data-name="Path 17491"
                                d="M2.879,17.9l1.755-1.708L6.24,14.6a5.958,5.958,0,0,1,8.293-8.4l1.644-1.652L17.918,2.9a10.649,10.649,0,0,0-15.039,15"
                                transform="translate(-456.313 -787.888)"
                                fill="#31dd9f"
                            />
                            <path
                                id="Path_17492-3"
                                data-name="Path 17492"
                                d="M27.886,27.869a5.851,5.851,0,0,1-7.655.533l-1.593,1.59-1.717,1.652A10.452,10.452,0,0,0,31.68,16.92s-.67.716-1.495,1.525-1.805,1.713-1.805,1.713a5.862,5.862,0,0,1-.494,7.711Z"
                                transform="translate(-469.305 -800.899)"
                            />
                        </g>
                    </g>
                </g>
            </g>
            <text id="o" transform="translate(-136.2 -794.2)" fill="#31dd9f" font-size="15" font-family="Figtree-ExtraBold, Figtree" font-weight="800" letter-spacing="0.01em"><tspan x="0" y="0">o</tspan></text>
            <text id="o-2" data-name="o" transform="translate(-89.2 -794.2)" fill="#d50c0c" font-size="15" font-family="Figtree-ExtraBold, Figtree" font-weight="800" letter-spacing="0.01em"><tspan x="0" y="0">o</tspan></text>
            <text id="o-3" data-name="o" transform="translate(-209.6 -793.6)" fill="#d811e4" font-size="15" font-family="Figtree-ExtraBold, Figtree" font-weight="800" letter-spacing="0.01em"><tspan x="0" y="0">o</tspan></text>
        </g>
    </g>
</svg>