<svg xmlns="http://www.w3.org/2000/svg" width="850.35" height="850.35" viewBox="0 0 850.35 850.35">
    <g id="line.overlay" transform="translate(1266 -2604)">
        <g id="Group_75" data-name="Group 75">
            <g id="overlay-line" transform="translate(-1494.448 145.025)">
                <g id="overlay-line-2" data-name="overlay-line">
                    <g id="Path_12" data-name="Path 12" transform="matrix(0.799, 0.602, -0.602, 0.799, 974.172, 2458.975)" fill="#fff">
                        <path d="M0,0H1V1064H0Z" stroke="none" />
                        <path d="M 0 0 L 1 0 L 1 1064 L 0 1064 L 0 0 Z" stroke="none" fill="#099f18" />
                    </g>
                    <g id="Path_11" data-name="Path 11" transform="matrix(0.799, 0.602, -0.602, 0.799, 974.172, 2510.417)" fill="#fff">
                        <path d="M0,0H1V979.891H0Z" stroke="none" />
                        <path d="M 0 0 L 1 0 L 1 979.8914794921875 L 0 979.8914794921875 L 0 0 Z" stroke="none" fill="#099f18" />
                    </g>
                    <g id="Path_13" data-name="Path 13" transform="matrix(0.799, 0.602, -0.602, 0.799, 923.555, 2467.417)" fill="#fff">
                        <path d="M0,0H1V979.891H0Z" stroke="none" />
                        <path d="M 0 0 L 1 0 L 1 979.8914794921875 L 0 979.8914794921875 L 0 0 Z" stroke="none" fill="#099f18" />
                    </g>
                    <g id="Path_14" data-name="Path 14" transform="matrix(0.799, 0.602, -0.602, 0.799, 880.748, 2474.814)" fill="#fff">
                        <path d="M0,0H1V908.763H0Z" stroke="none" />
                        <path d="M 0 -6.103515625e-05 L 1 -6.103515625e-05 L 1 908.7628784179688 L 0 908.7628784179688 L 0 -6.103515625e-05 Z" stroke="none" fill="#099f18" />
                    </g>
                    <g id="Path_9" data-name="Path 9" transform="matrix(0.799, 0.602, -0.602, 0.799, 977.729, 2599.513)" fill="#fff">
                        <path d="M0,0H1V847.9H0Z" stroke="none" />
                        <path d="M 0 0 L 1 0 L 1 847.9037475585938 L 0 847.9037475585938 L 0 0 Z" stroke="none" fill="#099f18" />
                    </g>
                    <g id="Path_15" data-name="Path 15" transform="matrix(0.799, 0.602, -0.602, 0.799, 835.729, 2474.814)" fill="#fff">
                        <path d="M0,0H1V847.9H0Z" stroke="none" />
                        <path d="M 0 0 L 1 0 L 1 847.9037475585938 L 0 847.9037475585938 L 0 0 Z" stroke="none" fill="#099f18" />
                    </g>
                    <g id="Path_8" data-name="Path 8" transform="matrix(0.799, 0.602, -0.602, 0.799, 983.073, 2640.585)" fill="#fff">
                        <path d="M0,0H1V790.781H0Z" stroke="none" />
                        <path d="M 0 -6.103515625e-05 L 1 -6.103515625e-05 L 1 790.7811889648438 L 0 790.7811889648438 L 0 -6.103515625e-05 Z" stroke="none" fill="#099f18" />
                    </g>
                    <g id="Path_16" data-name="Path 16" transform="matrix(0.799, 0.602, -0.602, 0.799, 798.352, 2481.585)" fill="#fff">
                        <path d="M0,0H1V790.781H0Z" stroke="none" />
                        <path d="M 0 -6.103515625e-05 L 1 -6.103515625e-05 L 1 790.7811889648438 L 0 790.7811889648438 L 0 -6.103515625e-05 Z" stroke="none" fill="#099f18" />
                    </g>
                    <g id="Path_10" data-name="Path 10" transform="matrix(0.799, 0.602, -0.602, 0.799, 978.106, 2556.472)" fill="#fff">
                        <path d="M0,0H1V908.763H0Z" stroke="none" />
                        <path d="M 0 -6.103515625e-05 L 1 -6.103515625e-05 L 1 908.7628784179688 L 0 908.7628784179688 L 0 -6.103515625e-05 Z" stroke="none" fill="#099f18" />
                    </g>
                </g>
            </g>
            
            <g id="overlay-line-3" data-name="overlay-line" transform="translate(2043.325 2375.552) rotate(90)">
                <g id="overlay-line-4" data-name="overlay-line">
                    <g id="Path_12-2" data-name="Path 12" transform="matrix(0.799, 0.602, -0.602, 0.799, 974.172, 2458.975)" fill="#fff">
                        <path d="M0,0H1V1064H0Z" stroke="none" />
                        <path d="M 0 0 L 1 0 L 1 1064 L 0 1064 L 0 0 Z" stroke="none" fill="#099f18" />
                    </g>
                    <g id="Path_11-2" data-name="Path 11" transform="matrix(0.799, 0.602, -0.602, 0.799, 974.172, 2510.417)" fill="#fff">
                        <path d="M0,0H1V979.891H0Z" stroke="none" />
                        <path d="M 0 0 L 1 0 L 1 979.8914794921875 L 0 979.8914794921875 L 0 0 Z" stroke="none" fill="#099f18" />
                    </g>
                    <g id="Path_13-2" data-name="Path 13" transform="matrix(0.799, 0.602, -0.602, 0.799, 923.555, 2467.417)" fill="#fff">
                        <path d="M0,0H1V979.891H0Z" stroke="none" />
                        <path d="M 0 0 L 1 0 L 1 979.8914794921875 L 0 979.8914794921875 L 0 0 Z" stroke="none" fill="#099f18" />
                    </g>
                    <g id="Path_14-2" data-name="Path 14" transform="matrix(0.799, 0.602, -0.602, 0.799, 880.748, 2474.814)" fill="#fff">
                        <path d="M0,0H1V908.763H0Z" stroke="none" />
                        <path d="M 0 -6.103515625e-05 L 1 -6.103515625e-05 L 1 908.7628784179688 L 0 908.7628784179688 L 0 -6.103515625e-05 Z" stroke="none" fill="#099f18" />
                    </g>
                    <g id="Path_9-2" data-name="Path 9" transform="matrix(0.799, 0.602, -0.602, 0.799, 977.729, 2599.513)" fill="#fff">
                        <path d="M0,0H1V847.9H0Z" stroke="none" />
                        <path d="M 0 0 L 1 0 L 1 847.9037475585938 L 0 847.9037475585938 L 0 0 Z" stroke="none" fill="#099f18" />
                    </g>
                    <g id="Path_15-2" data-name="Path 15" transform="matrix(0.799, 0.602, -0.602, 0.799, 835.729, 2474.814)" fill="#fff">
                        <path d="M0,0H1V847.9H0Z" stroke="none" />
                        <path d="M 0 0 L 1 0 L 1 847.9037475585938 L 0 847.9037475585938 L 0 0 Z" stroke="none" fill="#099f18" />
                    </g>
                    <g id="Path_8-2" data-name="Path 8" transform="matrix(0.799, 0.602, -0.602, 0.799, 983.073, 2640.585)" fill="#fff">
                        <path d="M0,0H1V790.781H0Z" stroke="none" />
                        <path d="M 0 -6.103515625e-05 L 1 -6.103515625e-05 L 1 790.7811889648438 L 0 790.7811889648438 L 0 -6.103515625e-05 Z" stroke="none" fill="#099f18" />
                    </g>
                    <g id="Path_16-2" data-name="Path 16" transform="matrix(0.799, 0.602, -0.602, 0.799, 798.352, 2481.585)" fill="#fff">
                        <path d="M0,0H1V790.781H0Z" stroke="none" />
                        <path d="M 0 -6.103515625e-05 L 1 -6.103515625e-05 L 1 790.7811889648438 L 0 790.7811889648438 L 0 -6.103515625e-05 Z" stroke="none" fill="#099f18" />
                    </g>
                    <g id="Path_10-2" data-name="Path 10" transform="matrix(0.799, 0.602, -0.602, 0.799, 978.106, 2556.472)" fill="#fff">
                        <path d="M0,0H1V908.763H0Z" stroke="none" />
                        <path d="M 0 -6.103515625e-05 L 1 -6.103515625e-05 L 1 908.7628784179688 L 0 908.7628784179688 L 0 -6.103515625e-05 Z" stroke="none" fill="#099f18" />
                    </g>
                </g>
            </g>
        </g>
    </g>
</svg>