<svg xmlns="http://www.w3.org/2000/svg" width="142.188" height="37.684" viewBox="0 0 142.188 37.684">
    <g id="logo" transform="translate(299 828)">
        <g id="Group_1960" data-name="Group 1960" transform="translate(-299 -828)">
            <g id="logo-2" data-name="logo" transform="translate(0 0)">
                <path
                    id="Path_17487"
                    data-name="Path 17487"
                    d="M14.041,2.858a7.529,7.529,0,0,1,10.648,0L36,14.172A7.529,7.529,0,0,1,36,24.82L24.689,36.132a7.529,7.529,0,0,1-10.648,0L2.729,24.818a7.529,7.529,0,0,1,0-10.648Z"
                    transform="translate(-0.524 -0.653)"
                    fill="#e0ccff"
                />
                <path
                    id="Path_17488"
                    data-name="Path 17488"
                    d="M30.09,32.529a.238.238,0,0,1-.226-.125l-2.911-5.435v5.368a.183.183,0,0,1-.055.135.171.171,0,0,1-.135.055h-1.6a.188.188,0,0,1-.141-.055.2.2,0,0,1-.049-.135V23.929a.2.2,0,0,1,.049-.135.188.188,0,0,1,.141-.055h1.869a.243.243,0,0,1,.227.125L30.164,29.3V23.933a.2.2,0,0,1,.049-.135.188.188,0,0,1,.141-.055H31.96a.171.171,0,0,1,.135.055.183.183,0,0,1,.055.135V32.34a.183.183,0,0,1-.055.135.171.171,0,0,1-.135.055Z"
                    transform="translate(-9.631 -9.254)"
                    fill="#ff1203"
                />
                <g id="Group_1949" data-name="Group 1949" transform="translate(11.906 12.019)">
                    <rect id="Rectangle_3964" data-name="Rectangle 3964" width="7.893" height="1.273" transform="translate(6.615 13.245) rotate(-39)" fill="#e0ccff" />
                    <rect id="Rectangle_3965" data-name="Rectangle 3965" width="7.893" height="1.273" transform="translate(0 4.967) rotate(-39)" fill="#e0ccff" />
                </g>
                <g id="Group_1954" data-name="Group 1954" transform="translate(7.991 7.862)">
                    <g id="Group_1953" data-name="Group 1953" transform="translate(0 0)">
                        <g id="Group_1951" data-name="Group 1951">
                            <g id="Group_1943" data-name="Group 1943" transform="translate(0)">
                                <path
                                    id="logoSpin"
                                    d="M24.033,32.215a8.052,8.052,0,1,0-8.052-8.052A8.052,8.052,0,0,0,24.033,32.215Zm0,2.928a10.98,10.98,0,1,0-10.98-10.98A10.98,10.98,0,0,0,24.033,35.143Z"
                                    transform="translate(-13.053 -13.183)"
                                    fill="#4c84ff"
                                    fill-rule="evenodd"
                                />
                                <path id="Path_17489" data-name="Path 17489" d="M0,0H3.064V1.763H0Z" transform="matrix(0.999, -0.035, 0.035, 0.999, 18.867, 9.705)" fill="#e0ccff" />
                            </g>
                        </g>
                    </g>
                    <g id="Group_1952" data-name="Group 1952" transform="translate(3.308 1.478)">
                        <g id="Group_1950" data-name="Group 1950" transform="translate(0 0)">
                            <rect id="Rectangle_3963" data-name="Rectangle 3963" width="3.501" height="1.766" transform="translate(4.676 16.898) rotate(126.011)" fill="#e0ccff" />
                            <rect id="Rectangle_3966" data-name="Rectangle 3966" width="3.542" height="1.763" transform="translate(1.289 0) rotate(47)" fill="#e0ccff" />
                        </g>
                    </g>
                </g>
                <g id="Group_1959" data-name="Group 1959" transform="translate(42.365 9.466)">
                    <g id="Group_1958" data-name="Group 1958" transform="translate(0 0)">
                        <path
                            id="Path_17479"
                            data-name="Path 17479"
                            d="M68.046,33.017V20.97a.326.326,0,0,1,.1-.24.322.322,0,0,1,.251-.107h4.392a3.911,3.911,0,0,1,2.87,1.192,3.837,3.837,0,0,1,1.2,2.834,3.993,3.993,0,0,1-.551,2.052,4.052,4.052,0,0,1-1.475,1.493,3.913,3.913,0,0,1-2.026.551H70.889v4.273a.366.366,0,0,1-.346.346H68.394a.337.337,0,0,1-.251-.1A.356.356,0,0,1,68.046,33.017Zm2.843-6.93h1.724a1.443,1.443,0,0,0,1.439-1.439,1.251,1.251,0,0,0-.427-.959,1.428,1.428,0,0,0-1.013-.391H70.889Z"
                            transform="translate(-68.046 -17.559)"
                            fill="#e24b4b"
                        />
                        <path
                            id="Path_17480"
                            data-name="Path 17480"
                            d="M196.252,20.969a.366.366,0,0,1,.346-.346h2.185a.366.366,0,0,1,.347.346V33.016a.366.366,0,0,1-.347.346H196.6a.33.33,0,0,1-.24-.107Z"
                            transform="translate(-115.812 -17.559)"
                            fill="#31dd9f"
                        />
                        <path
                            id="Path_17481"
                            data-name="Path 17481"
                            d="M108.006,33.017V20.97a.348.348,0,0,1,.346-.346h5.437a4,4,0,0,1,3.438,1.963,3.824,3.824,0,0,1,.533,1.973,3.527,3.527,0,0,1-.737,2.2,4.507,4.507,0,0,1-1.954,1.457l2.488,4.629a.363.363,0,0,1,.009.355.322.322,0,0,1-.314.169h-2.425a.3.3,0,0,1-.294-.16l-2.416-4.824h-1.255v4.638a.366.366,0,0,1-.346.346h-2.168a.337.337,0,0,1-.251-.1.356.356,0,0,1-.091-.25Zm2.86-6.949h2.692a1.285,1.285,0,0,0,.968-.435,1.465,1.465,0,0,0,.408-1.021,1.4,1.4,0,0,0-1.377-1.386h-2.692Z"
                            transform="translate(-82.934 -17.559)"
                            fill="#1457f5"
                        />
                        <path
                            id="Path_17482"
                            data-name="Path 17482"
                            d="M128.29,33.016V23.3h-2.6a.336.336,0,0,1-.251-.1.346.346,0,0,1-.1-.24v-1.99a.326.326,0,0,1,.1-.24.322.322,0,0,1,.251-.107h8.076a.349.349,0,0,1,.349.346v1.99a.346.346,0,0,1-.1.24.337.337,0,0,1-.251.1h-2.6v9.719a.366.366,0,0,1-.347.346h-2.185a.366.366,0,0,1-.346-.346Z"
                            transform="translate(-89.394 -17.559)"
                            fill="#2097ef"
                        />
                        <path
                            id="Path_17483"
                            data-name="Path 17483"
                            d="M142.216,33.017V20.97a.349.349,0,0,1,.347-.346H150.1a.349.349,0,0,1,.349.346v1.99a.346.346,0,0,1-.1.24.337.337,0,0,1-.251.1h-5.038v2.621h4.149a.3.3,0,0,1,.231.107.332.332,0,0,1,.107.24v1.99a.332.332,0,0,1-.107.24.314.314,0,0,1-.231.1h-4.149v4.425a.366.366,0,0,1-.347.346h-2.15a.338.338,0,0,1-.251-.1A.356.356,0,0,1,142.216,33.017Z"
                            transform="translate(-95.68 -17.559)"
                            fill="#d811e4"
                        />
                        <path
                            id="Path_17485"
                            data-name="Path 17485"
                            d="M181.44,33.017V20.97a.349.349,0,0,1,.349-.346h2.168a.366.366,0,0,1,.347.346V30.69h4.329a.323.323,0,0,1,.251.107.326.326,0,0,1,.1.24v1.981a.356.356,0,0,1-.1.251.337.337,0,0,1-.251.1h-6.839a.337.337,0,0,1-.251-.1.356.356,0,0,1-.1-.252Z"
                            transform="translate(-110.293 -17.559)"
                            fill="#1c45a8"
                        />
                        <g id="Group_1955" data-name="Group 1955" transform="translate(91.583 0.178) rotate(42)">
                            <path id="Path_17491" data-name="Path 17491" d="M1.618,11.041,2.818,9.9l.909-.932A3.738,3.738,0,0,1,8.93,3.7l1.062-1.06,1.062-1.01a6.681,6.681,0,0,0-9.436,9.411" transform="translate(0 0)" />
                            <path
                                id="Path_17492"
                                data-name="Path 17492"
                                d="M6.877,6.87a3.671,3.671,0,0,1-4.8.334l-.961.94L0,9.241A6.558,6.558,0,0,0,9.258,0L8.3,1.024,7.187,2.031a3.678,3.678,0,0,1-.31,4.838Z"
                                transform="translate(2.279 2.262)"
                                fill="#d50c0c"
                            />
                        </g>
                        <g id="Group_1956" data-name="Group 1956" transform="translate(15.82 0.413) rotate(42)">
                            <path id="Path_17491-2" data-name="Path 17491" d="M1.618,11.041,2.707,9.951l1.02-.981A3.738,3.738,0,0,1,8.93,3.7L10.078,2.57l.976-.941a6.681,6.681,0,0,0-9.436,9.411" transform="translate(0 0)" fill="#1457f5" />
                            <path
                                id="Path_17492-2"
                                data-name="Path 17492"
                                d="M6.879,6.87a3.671,3.671,0,0,1-4.8.334l-1.03.976L0,9.238A6.558,6.558,0,0,0,9.26,0l-.93.941-1.14,1.09a3.678,3.678,0,0,1-.31,4.838Z"
                                transform="translate(2.277 2.262)"
                                fill="#d811e4"
                            />
                        </g>
                        <g id="Group_1957" data-name="Group 1957" transform="translate(61.954 0) rotate(42)">
                            <path id="Path_17491-3" data-name="Path 17491" d="M1.618,11.041l1.1-1.072,1.008-1A3.738,3.738,0,0,1,8.93,3.7L9.961,2.663l1.092-1.034a6.681,6.681,0,0,0-9.436,9.411" transform="translate(0 0)" fill="#31dd9f" />
                            <path
                                id="Path_17492-3"
                                data-name="Path 17492"
                                d="M6.88,6.87a3.671,3.671,0,0,1-4.8.334l-1,1L0,9.238A6.558,6.558,0,0,0,9.26,0s-.42.449-.938.957S7.19,2.032,7.19,2.032A3.678,3.678,0,0,1,6.88,6.87Z"
                                transform="translate(2.277 2.262)"
                            />
                        </g>
                    </g>
                </g>
            </g>
            <text id="o" transform="translate(102.145 20.423)" fill="#31dd9f" font-size="8" font-family="Figtree-ExtraBold, Figtree" font-weight="800" letter-spacing="0.01em"><tspan x="0" y="0">o</tspan></text>
            <text id="o-2" data-name="o" transform="translate(131.634 20.423)" fill="#d50c0c" font-size="8" font-family="Figtree-ExtraBold, Figtree" font-weight="800" letter-spacing="0.01em"><tspan x="0" y="0">o</tspan></text>
            <text id="o-3" data-name="o" transform="translate(56.092 20.799)" fill="#d811e4" font-size="8" font-family="Figtree-ExtraBold, Figtree" font-weight="800" letter-spacing="0.01em"><tspan x="0" y="0">o</tspan></text>
        </g>
    </g>
</svg>