<svg xmlns="http://www.w3.org/2000/svg" width="1078.925" height="950.505" viewBox="0 0 1078.925 950.505">
  <g id="overlay-line" transform="translate(1387 -2595.139)">
    <g id="overlay-line-2" data-name="overlay-line" transform="matrix(0.995, 0.105, -0.105, 0.995, -1258.172, 32.79)">
      <g id="overlay-line-3" data-name="overlay-line" transform="translate(322.448 2458.975)">
        <g id="Path_12" data-name="Path 12" transform="matrix(0.799, 0.602, -0.602, 0.799, 795.369, 0)" fill="#fff">
          <path d="M0,0H1.22V1298.514H0Z" stroke="none"/>
          <path d="M 3.743171691894531e-05 0 L 1.220370650291443 0 L 1.220370650291443 1298.514038085938 L 3.743171691894531e-05 1298.514038085938 L 3.743171691894531e-05 0 Z" stroke="none" fill="#099f18"/>
        </g>
        <g id="Path_11" data-name="Path 11" transform="matrix(0.799, 0.602, -0.602, 0.799, 795.369, 62.78)" fill="#fff">
          <path d="M0,0H1.22V1195.867H0Z" stroke="none"/>
          <path d="M 5.018711090087891e-05 0 L 1.220357894897461 0 L 1.220357894897461 1195.867309570312 L 5.018711090087891e-05 1195.867309570312 L 5.018711090087891e-05 0 Z" stroke="none" fill="#099f18"/>
        </g>
        <g id="Path_13" data-name="Path 13" transform="matrix(0.799, 0.602, -0.602, 0.799, 733.595, 10.302)" fill="#fff">
          <path d="M0,0H1.22V1195.867H0Z" stroke="none"/>
          <path d="M 5.018711090087891e-05 0 L 1.220357894897461 0 L 1.220357894897461 1195.867309570312 L 5.018711090087891e-05 1195.867309570312 L 5.018711090087891e-05 0 Z" stroke="none" fill="#099f18"/>
        </g>
        <g id="Path_14" data-name="Path 14" transform="matrix(0.799, 0.602, -0.602, 0.799, 681.354, 19.33)" fill="#fff">
          <path d="M0,0H1.22V1109.062H0Z" stroke="none"/>
          <path d="M 6.115436553955078e-05 0 L 1.220346927642822 0 L 1.220346927642822 1109.0615234375 L 6.115436553955078e-05 1109.0615234375 L 6.115436553955078e-05 0 Z" stroke="none" fill="#099f18"/>
        </g>
        <g id="Path_9" data-name="Path 9" transform="matrix(0.799, 0.602, -0.602, 0.799, 799.71, 171.513)" fill="#fff">
          <path d="M0,0H1.22V1034.788H0Z" stroke="none"/>
          <path d="M -6.258487701416016e-05 0 L 1.220470666885376 0 L 1.220470666885376 1034.788452148438 L -6.258487701416016e-05 1034.788452148438 L -6.258487701416016e-05 0 Z" stroke="none" fill="#099f18"/>
        </g>
        <g id="Path_15" data-name="Path 15" transform="matrix(0.799, 0.602, -0.602, 0.799, 626.412, 19.33)" fill="#fff">
          <path d="M0,0H1.22V1034.788H0Z" stroke="none"/>
          <path d="M -6.258487701416016e-05 0 L 1.220470666885376 0 L 1.220470666885376 1034.788452148438 L -6.258487701416016e-05 1034.788452148438 L -6.258487701416016e-05 0 Z" stroke="none" fill="#099f18"/>
        </g>
        <g id="Path_8" data-name="Path 8" transform="matrix(0.799, 0.602, -0.602, 0.799, 806.232, 221.638)" fill="#fff">
          <path d="M0,0H1.22V965.076H0Z" stroke="none"/>
          <path d="M -4.601478576660156e-05 0 L 1.220454096794128 0 L 1.220454096794128 965.0755004882812 L -4.601478576660156e-05 965.0755004882812 L -4.601478576660156e-05 0 Z" stroke="none" fill="#099f18"/>
        </g>
        <g id="Path_16" data-name="Path 16" transform="matrix(0.799, 0.602, -0.602, 0.799, 580.797, 27.593)" fill="#fff">
          <path d="M0,0H1.22V965.076H0Z" stroke="none"/>
          <path d="M -4.601478576660156e-05 0 L 1.220454096794128 0 L 1.220454096794128 965.0755004882812 L -4.601478576660156e-05 965.0755004882812 L -4.601478576660156e-05 0 Z" stroke="none" fill="#099f18"/>
        </g>
        <g id="Path_10" data-name="Path 10" transform="matrix(0.799, 0.602, -0.602, 0.799, 800.17, 118.986)" fill="#fff">
          <path d="M0,0H1.22V1109.062H0Z" stroke="none"/>
          <path d="M 6.115436553955078e-05 0 L 1.220346927642822 0 L 1.220346927642822 1109.0615234375 L 6.115436553955078e-05 1109.0615234375 L 6.115436553955078e-05 0 Z" stroke="none" fill="#099f18"/>
        </g>
      </g>
    </g>
    <g id="overlay-line-4" data-name="overlay-line" transform="translate(2150.9 2328.552) rotate(90)">
      <g id="overlay-line-5" data-name="overlay-line" transform="translate(322.448 2458.975)">
        <g id="Path_12-2" data-name="Path 12" transform="matrix(0.799, 0.602, -0.602, 0.799, 826.909, 0)" fill="#fff">
          <path d="M0,0H1.269V1350H0Z" stroke="none"/>
          <path d="M 6.735324859619141e-05 -0.0001220703125 L 1.268734097480774 -0.0001220703125 L 1.268734097480774 1350.00439453125 L 6.735324859619141e-05 1350.00439453125 L 6.735324859619141e-05 -0.0001220703125 Z" stroke="none" fill="#099f18"/>
        </g>
        <g id="Path_11-2" data-name="Path 11" transform="matrix(0.799, 0.602, -0.602, 0.799, 826.909, 65.269)" fill="#fff">
          <path d="M0,0H1.269V1243.287H0Z" stroke="none"/>
          <path d="M -6.079673767089844e-05 0 L 1.268862247467041 0 L 1.268862247467041 1243.287353515625 L -6.079673767089844e-05 1243.287353515625 L -6.079673767089844e-05 0 Z" stroke="none" fill="#099f18"/>
        </g>
        <g id="Path_13-2" data-name="Path 13" transform="matrix(0.799, 0.602, -0.602, 0.799, 762.685, 10.711)" fill="#fff">
          <path d="M0,0H1.269V1243.287H0Z" stroke="none"/>
          <path d="M -6.079673767089844e-05 0 L 1.268862247467041 0 L 1.268862247467041 1243.287353515625 L -6.079673767089844e-05 1243.287353515625 L -6.079673767089844e-05 0 Z" stroke="none" fill="#099f18"/>
        </g>
        <g id="Path_14-2" data-name="Path 14" transform="matrix(0.799, 0.602, -0.602, 0.799, 708.372, 20.096)" fill="#fff">
          <path d="M0,0H1.269V1153.04H0Z" stroke="none"/>
          <path d="M -2.789497375488281e-05 -0.0001220703125 L 1.268829345703125 -0.0001220703125 L 1.268829345703125 1153.039428710938 L -2.789497375488281e-05 1153.039428710938 L -2.789497375488281e-05 -0.0001220703125 Z" stroke="none" fill="#099f18"/>
        </g>
        <g id="Path_9-2" data-name="Path 9" transform="matrix(0.799, 0.602, -0.602, 0.799, 831.422, 178.315)" fill="#fff">
          <path d="M0,0H1.269V1075.821H0Z" stroke="none"/>
          <path d="M 7.152557373046875e-07 0 L 1.268800735473633 0 L 1.268800735473633 1075.821411132812 L 7.152557373046875e-07 1075.821411132812 L 7.152557373046875e-07 0 Z" stroke="none" fill="#099f18"/>
        </g>
        <g id="Path_15-2" data-name="Path 15" transform="matrix(0.799, 0.602, -0.602, 0.799, 651.252, 20.096)" fill="#fff">
          <path d="M0,0H1.269V1075.821H0Z" stroke="none"/>
          <path d="M 7.152557373046875e-07 0 L 1.268800735473633 0 L 1.268800735473633 1075.821411132812 L 7.152557373046875e-07 1075.821411132812 L 7.152557373046875e-07 0 Z" stroke="none" fill="#099f18"/>
        </g>
        <g id="Path_8-2" data-name="Path 8" transform="matrix(0.799, 0.602, -0.602, 0.799, 838.202, 230.427)" fill="#fff">
          <path d="M0,0H1.269V1003.344H0Z" stroke="none"/>
          <path d="M 2.574920654296875e-05 0 L 1.268775701522827 0 L 1.268775701522827 1003.344055175781 L 2.574920654296875e-05 1003.344055175781 L 2.574920654296875e-05 0 Z" stroke="none" fill="#099f18"/>
        </g>
        <g id="Path_16-2" data-name="Path 16" transform="matrix(0.799, 0.602, -0.602, 0.799, 603.828, 28.687)" fill="#fff">
          <path d="M0,0H1.269V1003.344H0Z" stroke="none"/>
          <path d="M 2.574920654296875e-05 0 L 1.268775701522827 0 L 1.268775701522827 1003.344055175781 L 2.574920654296875e-05 1003.344055175781 L 2.574920654296875e-05 0 Z" stroke="none" fill="#099f18"/>
        </g>
        <g id="Path_10-2" data-name="Path 10" transform="matrix(0.799, 0.602, -0.602, 0.799, 831.9, 123.704)" fill="#fff">
          <path d="M0,0H1.269V1153.04H0Z" stroke="none"/>
          <path d="M -2.789497375488281e-05 -0.0001220703125 L 1.268829345703125 -0.0001220703125 L 1.268829345703125 1153.039428710938 L -2.789497375488281e-05 1153.039428710938 L -2.789497375488281e-05 -0.0001220703125 Z" stroke="none" fill="#099f18"/>
        </g>
      </g>
    </g>
  </g>
</svg>
